<?xml version="1.0" encoding="utf-8"?>
<!-- Generator: Adobe Illustrator 16.0.0, SVG Export Plug-In . SVG Version: 6.00 Build 0)  -->
<!DOCTYPE svg PUBLIC "-//W3C//DTD SVG 1.1//EN" "http://www.w3.org/Graphics/SVG/1.1/DTD/svg11.dtd">
<svg version="1.1" id="圖層_1" xmlns="http://www.w3.org/2000/svg" xmlns:xlink="http://www.w3.org/1999/xlink" x="0px" y="0px"
	 width="27px" height="27px" viewBox="0 0 27 27" enable-background="new 0 0 27 27" xml:space="preserve">
<g>
	<g id="stats1_5_">
		<g>
			<path fill-rule="evenodd" clip-rule="evenodd" fill="#646464" d="M17.818,17.59c0.316,0,0.574-0.257,0.574-0.574v-6.311
				c0-0.317-0.258-0.574-0.574-0.574c-0.318,0-0.574,0.257-0.574,0.574v6.311C17.244,17.333,17.5,17.59,17.818,17.59z
				 M20.686,18.736H8.637V6.688c0-0.317-0.256-0.574-0.572-0.574S7.49,6.371,7.49,6.688v12.622c0,0.317,0.258,0.574,0.574,0.574
				h12.621c0.318,0,0.574-0.257,0.574-0.574C21.26,18.994,21.004,18.736,20.686,18.736z M15.523,17.59
				c0.316,0,0.572-0.257,0.572-0.574v-4.017c0-0.316-0.256-0.573-0.572-0.573s-0.574,0.257-0.574,0.573v4.017
				C14.949,17.333,15.207,17.59,15.523,17.59z M13.229,17.59c0.316,0,0.572-0.257,0.572-0.574v-9.18
				c0-0.316-0.256-0.574-0.572-0.574c-0.318,0-0.574,0.258-0.574,0.574v9.18C12.654,17.333,12.91,17.59,13.229,17.59z M10.934,17.59
				c0.316,0,0.572-0.257,0.572-0.574v-5.737c0-0.317-0.256-0.573-0.572-0.573c-0.318,0-0.574,0.256-0.574,0.573v5.737
				C10.359,17.333,10.615,17.59,10.934,17.59z"/>
		</g>
	</g>
	<circle fill="none" stroke="#646464" stroke-width="0.75" stroke-miterlimit="10" cx="13.5" cy="13.5" r="12.5"/>
</g>
</svg>
