<?xml version="1.0" encoding="utf-8"?>
<!-- Generator: Adobe Illustrator 16.0.3, SVG Export Plug-In . SVG Version: 6.00 Build 0)  -->
<!DOCTYPE svg PUBLIC "-//W3C//DTD SVG 1.1//EN" "http://www.w3.org/Graphics/SVG/1.1/DTD/svg11.dtd">
<svg version="1.1" id="圖層_1" xmlns="http://www.w3.org/2000/svg" xmlns:xlink="http://www.w3.org/1999/xlink" x="0px" y="0px"
	 width="33.25px" height="17.063px" viewBox="0 0 33.25 17.063" enable-background="new 0 0 33.25 17.063" xml:space="preserve">
<path fill="#020002" d="M24.625,0.531h-16c-4.418,0-8,3.582-8,8s3.582,8,8,8h16c4.418,0,8-3.582,8-8S29.043,0.531,24.625,0.531z
	 M19.734,9.164h-2.772v2.792c0,0.409-0.298,0.671-0.671,0.671c-0.428,0-0.669-0.262-0.669-0.671V9.164h-2.775
	c-0.372,0-0.669-0.298-0.669-0.634c0-0.409,0.297-0.633,0.669-0.633h2.775V5.086c0-0.354,0.241-0.65,0.669-0.65
	c0.373,0,0.671,0.298,0.671,0.65v2.812h2.772C20.629,7.898,20.629,9.108,19.734,9.164z"/>
</svg>
