<?xml version="1.0" encoding="utf-8"?>
<!-- Generator: Adobe Illustrator 16.0.3, SVG Export Plug-In . SVG Version: 6.00 Build 0)  -->
<!DOCTYPE svg PUBLIC "-//W3C//DTD SVG 1.1//EN" "http://www.w3.org/Graphics/SVG/1.1/DTD/svg11.dtd">
<svg version="1.1" id="圖層_1" xmlns="http://www.w3.org/2000/svg" xmlns:xlink="http://www.w3.org/1999/xlink" x="0px" y="0px"
	 width="33.25px" height="17.063px" viewBox="0 0 33.25 17.063" enable-background="new 0 0 33.25 17.063" xml:space="preserve">
<path fill="#020002" d="M24.5,0.5h-16c-4.418,0-8,3.582-8,8s3.582,8,8,8h16c4.418,0,8-3.582,8-8S28.918,0.5,24.5,0.5z M19.844,8.101
	l-5.094,2.938c-0.078,0.045-0.164,0.067-0.25,0.067s-0.173-0.022-0.25-0.067C14.095,10.95,14,10.785,14,10.607v-5.88
	c0-0.179,0.095-0.344,0.25-0.433c0.154-0.089,0.346-0.089,0.5,0l5.094,2.941c0.154,0.089,0.25,0.254,0.25,0.433
	S19.998,8.012,19.844,8.101z"/>
<path d="M24.5,17h-16C3.813,17,0,13.187,0,8.5C0,3.813,3.813,0,8.5,0h16C29.187,0,33,3.813,33,8.5C33,13.187,29.187,17,24.5,17z
	 M8.5,1C4.364,1,1,4.365,1,8.5S4.364,16,8.5,16h16c4.136,0,7.5-3.364,7.5-7.5S28.636,1,24.5,1H8.5z"/>
<g>
	<g>
		<path fill="none" stroke="#000000" stroke-miterlimit="10" d="M-5.5,8.5c0-4.418-3.582-8-8-8h-16c-4.418,0-8,3.582-8,8l0,0
			c0,4.418,3.582,8,8,8h16C-9.082,16.5-5.5,12.918-5.5,8.5L-5.5,8.5z"/>
	</g>
	<g>
		<path d="M-21.163,7.032h2.773c0.894,0,0.894,1.21,0,1.267h-2.773v2.792c0,0.409-0.298,0.671-0.671,0.671
			c-0.428,0-0.669-0.262-0.669-0.671V8.299h-2.775c-0.372,0-0.669-0.298-0.669-0.634c0-0.409,0.297-0.633,0.669-0.633h2.775V4.221
			c0-0.354,0.241-0.65,0.669-0.65c0.373,0,0.671,0.298,0.671,0.65V7.032z"/>
	</g>
</g>
</svg>
