<?xml version="1.0" encoding="utf-8"?>
<!-- Generator: Adobe Illustrator 16.0.0, SVG Export Plug-In . SVG Version: 6.00 Build 0)  -->
<!DOCTYPE svg PUBLIC "-//W3C//DTD SVG 1.1//EN" "http://www.w3.org/Graphics/SVG/1.1/DTD/svg11.dtd">
<svg version="1.1" id="圖層_1" xmlns="http://www.w3.org/2000/svg" xmlns:xlink="http://www.w3.org/1999/xlink" x="0px" y="0px"
	 width="27px" height="27px" viewBox="0 0 27 27" enable-background="new 0 0 27 27" xml:space="preserve">
<g opacity="0.9">
	<circle fill="none" stroke="#646464" stroke-width="0.75" stroke-miterlimit="10" cx="13.5" cy="13.5" r="12.5"/>
	<g id="write_5_">
		<g>
			<path fill-rule="evenodd" clip-rule="evenodd" fill="#646464" d="M9.483,17.535l2.867-0.007l7.708-7.796
				c0.441-0.442,0.441-1.159,0-1.602l-1.197-1.202c-0.441-0.442-1.156-0.442-1.597,0l-7.789,7.726L9.483,17.535z M18.063,7.729
				l1.197,1.202l-6.335,6.297l-1.149-1.149L18.063,7.729z M10.626,14.654l1.725,1.725h-1.725V14.654z M19.248,13.04v6.213H7.752
				V7.756h6.212l1.15-1.149H7.752c-0.637,0-1.15,0.515-1.15,1.149v11.497c0,0.635,0.514,1.149,1.15,1.149h11.496
				c0.636,0,1.15-0.515,1.15-1.149v-7.362L19.248,13.04z"/>
		</g>
	</g>
</g>
</svg>
