<?xml version="1.0" encoding="utf-8"?>
<!-- Generator: Adobe Illustrator 16.0.3, SVG Export Plug-In . SVG Version: 6.00 Build 0)  -->
<!DOCTYPE svg PUBLIC "-//W3C//DTD SVG 1.1//EN" "http://www.w3.org/Graphics/SVG/1.1/DTD/svg11.dtd">
<svg version="1.1" id="圖層_1" xmlns="http://www.w3.org/2000/svg" xmlns:xlink="http://www.w3.org/1999/xlink" x="0px" y="0px"
	 width="33.25px" height="17.063px" viewBox="0 0 33.25 17.063" enable-background="new 0 0 33.25 17.063" xml:space="preserve">
<g>
	<polygon fill="none" stroke="#000000" stroke-linecap="round" stroke-linejoin="round" stroke-miterlimit="10" points="
		51.5,13.107 56.594,10.168 51.5,7.227 	"/>
	<path fill="none" stroke="#000000" stroke-miterlimit="10" d="M69.5,10.5c0-4.418-3.582-8-8-8h-16c-4.418,0-8,3.582-8,8l0,0
		c0,4.418,3.582,8,8,8h16C65.918,18.5,69.5,14.918,69.5,10.5L69.5,10.5z"/>
</g>
<g>
	<g>
		<path fill="none" stroke="#000000" stroke-miterlimit="10" d="M32.5,8.5c0-4.418-3.582-8-8-8h-16c-4.418,0-8,3.582-8,8l0,0
			c0,4.418,3.582,8,8,8h16C28.918,16.5,32.5,12.918,32.5,8.5L32.5,8.5z"/>
	</g>
	<g>
		<path d="M16.837,7.032h2.773c0.894,0,0.894,1.21,0,1.267h-2.773v2.792c0,0.409-0.298,0.671-0.671,0.671
			c-0.428,0-0.669-0.262-0.669-0.671V8.299h-2.775c-0.372,0-0.669-0.298-0.669-0.634c0-0.409,0.297-0.633,0.669-0.633h2.775V4.221
			c0-0.354,0.241-0.65,0.669-0.65c0.373,0,0.671,0.297,0.671,0.65V7.032z"/>
	</g>
</g>
</svg>
