<?xml version="1.0" encoding="utf-8"?>
<!-- Generator: Adobe Illustrator 16.0.0, SVG Export Plug-In . SVG Version: 6.00 Build 0)  -->
<!DOCTYPE svg PUBLIC "-//W3C//DTD SVG 1.1//EN" "http://www.w3.org/Graphics/SVG/1.1/DTD/svg11.dtd">
<svg version="1.1" id="圖層_1" xmlns="http://www.w3.org/2000/svg" xmlns:xlink="http://www.w3.org/1999/xlink" x="0px" y="0px"
	 width="27px" height="27px" viewBox="0 0 27 27" enable-background="new 0 0 27 27" xml:space="preserve">
<g>
	<circle fill="#FFFFFF" stroke="#323232" stroke-width="0.75" stroke-miterlimit="10" cx="13.5" cy="13.5" r="12.5"/>
	<g>
		<g id="cloud-down_5_">
			<g>
				<path fill-rule="evenodd" clip-rule="evenodd" fill="#323232" d="M15.49,17.01l-1.434,0.968v-4.384
					c0-0.307-0.25-0.556-0.557-0.556s-0.555,0.249-0.555,0.556v4.384L11.51,17.01c-0.252-0.171-0.576-0.069-0.721,0.226
					c-0.146,0.296-0.061,0.673,0.193,0.844l2.107,1.422c0.016,0.02,0.025,0.043,0.045,0.06c0.033,0.031,0.068,0.051,0.105,0.072
					c0.02,0.01,0.035,0.023,0.057,0.031c0.047,0.019,0.092,0.025,0.143,0.028c0.006,0.001,0.012,0.002,0.018,0.004
					c0.006,0.001,0.012,0.003,0.018,0.004c0.008,0.002,0.016,0.005,0.025,0.005s0.018-0.005,0.025-0.005
					c0.006-0.001,0.012-0.003,0.018-0.004c0.004-0.001,0.008-0.003,0.01-0.003c0.074-0.004,0.143-0.024,0.207-0.062l0.002-0.001
					c0.053-0.029,0.1-0.069,0.141-0.12c0.008-0.008,0.02-0.012,0.027-0.021l2.09-1.41c0.252-0.171,0.338-0.548,0.191-0.844
					C16.066,16.94,15.742,16.839,15.49,17.01z M15.166,7.482c-2.186,0-4.039,1.406-4.719,3.362
					c-0.094-0.008-0.184-0.028-0.281-0.028c-1.84,0-3.332,1.492-3.332,3.333c0,1.449,0.93,2.67,2.223,3.129v-1.215
					c-0.662-0.385-1.111-1.094-1.111-1.914c0-1.228,0.994-2.223,2.221-2.223h1.168c0.271-1.882,1.875-3.333,3.832-3.333
					c2.148,0,3.891,1.741,3.891,3.889c0,1.059-0.426,2.016-1.111,2.716v1.441c1.34-0.896,2.221-2.424,2.221-4.157
					C20.166,9.722,17.928,7.482,15.166,7.482z"/>
			</g>
		</g>
	</g>
</g>
</svg>
