<?xml version="1.0" encoding="utf-8"?>
<!-- Generator: Adobe Illustrator 16.0.0, SVG Export Plug-In . SVG Version: 6.00 Build 0)  -->
<!DOCTYPE svg PUBLIC "-//W3C//DTD SVG 1.1//EN" "http://www.w3.org/Graphics/SVG/1.1/DTD/svg11.dtd">
<svg version="1.1" id="圖層_1" xmlns="http://www.w3.org/2000/svg" xmlns:xlink="http://www.w3.org/1999/xlink" x="0px" y="0px"
	 width="27px" height="27px" viewBox="0 0 27 27" enable-background="new 0 0 27 27" xml:space="preserve">
<circle fill="none" stroke="#646464" stroke-width="0.75" stroke-miterlimit="10" cx="13.5" cy="13.5" r="12.5"/>
<g id="share2">
	<g>
		<path fill-rule="evenodd" clip-rule="evenodd" fill="#646464" d="M17.633,17.862H9.329V9.559H14V8.521H9.329
			c-0.574,0-1.038,0.465-1.038,1.038v8.304c0,0.573,0.464,1.038,1.038,1.038h8.304c0.574,0,1.038-0.465,1.038-1.038v-4.671h-1.038
			V17.862z M19.71,8c0-0.123-0.056-0.229-0.136-0.317c-0.01-0.012-0.019-0.025-0.029-0.037c-0.011-0.01-0.024-0.019-0.036-0.028
			c-0.088-0.081-0.195-0.136-0.317-0.136c-0.012,0-0.021,0.006-0.032,0.008c-0.014-0.001-0.028-0.008-0.043-0.008h-3.482
			c-0.328,0-0.594,0.232-0.594,0.518c0,0.286,0.266,0.517,0.594,0.517h2.134l-4.634,4.634c-0.245,0.246-0.245,0.645,0,0.892
			c0.246,0.243,0.645,0.243,0.891,0l4.649-4.652v2.167c0,0.327,0.231,0.592,0.518,0.592c0.285,0,0.519-0.265,0.519-0.592V8.075
			c0-0.015-0.007-0.027-0.008-0.042C19.703,8.021,19.71,8.011,19.71,8z"/>
	</g>
</g>
</svg>
