<?xml version="1.0" encoding="utf-8"?>
<!-- Generator: Adobe Illustrator 16.0.0, SVG Export Plug-In . SVG Version: 6.00 Build 0)  -->
<!DOCTYPE svg PUBLIC "-//W3C//DTD SVG 1.1//EN" "http://www.w3.org/Graphics/SVG/1.1/DTD/svg11.dtd">
<svg version="1.1" id="圖層_1" xmlns="http://www.w3.org/2000/svg" xmlns:xlink="http://www.w3.org/1999/xlink" x="0px" y="0px"
	 width="37px" height="37px" viewBox="0 0 37 37" enable-background="new 0 0 37 37" xml:space="preserve">
<g>
	<path d="M8.227,19.066c0-4.231,2.449-6.824,5.779-6.824c1.603,0,2.827,0.774,3.583,1.603l-0.829,0.973
		c-0.684-0.757-1.584-1.261-2.737-1.261c-2.575,0-4.267,2.089-4.267,5.474c0,3.403,1.621,5.546,4.213,5.546
		c1.278,0,2.25-0.54,3.115-1.513L17.914,24c-1.026,1.206-2.305,1.891-4.015,1.891C10.64,25.891,8.227,23.334,8.227,19.066z"/>
	<path d="M18.541,12.477h1.567l2.215,7.273c0.467,1.567,0.773,2.81,1.295,4.357h0.072c0.504-1.548,0.828-2.79,1.314-4.357
		l2.18-7.273h1.512l-4.213,13.18h-1.711L18.541,12.477z"/>
</g>
<circle fill="none" stroke="#000000" stroke-miterlimit="10" cx="18.5" cy="18.583" r="17.5"/>
</svg>
