<?xml version="1.0" encoding="utf-8"?>
<!-- Generator: Adobe Illustrator 16.0.0, SVG Export Plug-In . SVG Version: 6.00 Build 0)  -->
<!DOCTYPE svg PUBLIC "-//W3C//DTD SVG 1.1//EN" "http://www.w3.org/Graphics/SVG/1.1/DTD/svg11.dtd">
<svg version="1.1" id="圖層_1" xmlns="http://www.w3.org/2000/svg" xmlns:xlink="http://www.w3.org/1999/xlink" x="0px" y="0px"
	 width="38px" height="38px" viewBox="0 0 38 38" enable-background="new 0 0 38 38" xml:space="preserve">
<circle fill="#FFFFFF" stroke="#00AAE6" stroke-miterlimit="10" cx="19" cy="19" r="17.5"/>
<g>
	<path fill="#00AAE6" d="M13.563,25.57V14.191l-2.395,2.106v-1.476l2.395-2.071h1.297V25.57H13.563z"/>
	<path fill="#00AAE6" d="M23.012,25.679c-1.998,0-3.51-1.404-3.51-3.528v-5.979c0-2.125,1.512-3.529,3.51-3.529
		c2,0,3.512,1.404,3.512,3.529v5.979C26.523,24.274,25.012,25.679,23.012,25.679z M25.227,16.244c0-1.405-0.791-2.449-2.215-2.449
		c-1.422,0-2.214,1.044-2.214,2.449v5.834c0,1.404,0.792,2.448,2.214,2.448c1.424,0,2.215-1.044,2.215-2.448V16.244z"/>
</g>
</svg>
