<?xml version="1.0" encoding="utf-8"?>
<!-- Generator: Adobe Illustrator 16.0.0, SVG Export Plug-In . SVG Version: 6.00 Build 0)  -->
<!DOCTYPE svg PUBLIC "-//W3C//DTD SVG 1.1//EN" "http://www.w3.org/Graphics/SVG/1.1/DTD/svg11.dtd">
<svg version="1.1" id="圖層_1" xmlns="http://www.w3.org/2000/svg" xmlns:xlink="http://www.w3.org/1999/xlink" x="0px" y="0px"
	 width="38px" height="38px" viewBox="0 0 38 38" enable-background="new 0 0 38 38" xml:space="preserve">
<circle fill="#FFFFFF" stroke="#9B0019" stroke-miterlimit="10" cx="19" cy="19" r="17.5"/>
<g>
	<path fill="#9B0019" d="M13.334,25.57V14.191l-2.395,2.106v-1.476l2.395-2.071h1.297V25.57H13.334z"/>
	<path fill="#9B0019" d="M25.502,19.215l-3.15,6.355h-1.35l2.881-5.761c-0.396,0.18-0.865,0.27-1.369,0.27
		c-1.998,0-3.313-1.53-3.313-3.637c0-2.179,1.368-3.799,3.547-3.799c2.178,0,3.564,1.477,3.564,3.691
		C26.313,17.252,26.043,18.135,25.502,19.215z M22.748,13.795c-1.369,0-2.251,1.026-2.251,2.593c0,1.422,0.774,2.593,2.251,2.593
		c1.368,0,2.269-1.008,2.269-2.593C25.017,14.822,24.116,13.795,22.748,13.795z"/>
</g>
</svg>
