<?xml version="1.0" encoding="utf-8"?>
<!-- Generator: Adobe Illustrator 16.0.0, SVG Export Plug-In . SVG Version: 6.00 Build 0)  -->
<!DOCTYPE svg PUBLIC "-//W3C//DTD SVG 1.1//EN" "http://www.w3.org/Graphics/SVG/1.1/DTD/svg11.dtd">
<svg version="1.1" id="圖層_1" xmlns="http://www.w3.org/2000/svg" xmlns:xlink="http://www.w3.org/1999/xlink" x="0px" y="0px"
	 width="38px" height="38px" viewBox="0 0 38 38" enable-background="new 0 0 38 38" xml:space="preserve">
<circle fill="#FFFFFF" stroke="#9B0019" stroke-miterlimit="10" cx="19" cy="19" r="17.5"/>
<g>
	<path fill="#9B0019" d="M10.828,25.57v-1.152l5.06-6.427c0.486-0.63,0.721-1.188,0.721-1.891c0-1.387-0.828-2.305-2.232-2.305
		c-1.188,0-2.233,0.666-2.233,2.323h-1.296c0-2.017,1.387-3.475,3.529-3.475c2.106,0,3.528,1.35,3.528,3.457
		c0,1.026-0.323,1.692-1.026,2.593l-4.482,5.725h5.509v1.152H10.828z"/>
	<path fill="#9B0019" d="M26.112,23.536v2.034h-1.278v-2.034h-5.113v-1.171l4.627-9.614h1.387l-4.628,9.614h3.728v-3.636h1.278
		v3.636h1.566v1.171H26.112z"/>
</g>
</svg>
