<?xml version="1.0" encoding="utf-8"?>
<!-- Generator: Adobe Illustrator 16.0.0, SVG Export Plug-In . SVG Version: 6.00 Build 0)  -->
<!DOCTYPE svg PUBLIC "-//W3C//DTD SVG 1.1//EN" "http://www.w3.org/Graphics/SVG/1.1/DTD/svg11.dtd">
<svg version="1.1" id="圖層_1" xmlns="http://www.w3.org/2000/svg" xmlns:xlink="http://www.w3.org/1999/xlink" x="0px" y="0px"
	 width="38px" height="38px" viewBox="0 0 38 38" enable-background="new 0 0 38 38" xml:space="preserve">
<circle fill="#FFFFFF" stroke="#00AAE6" stroke-miterlimit="10" cx="19" cy="19" r="17.5"/>
<g>
	<path fill="#00AAE6" d="M13.334,25.57V14.191l-2.395,2.106v-1.476l2.395-2.071h1.297V25.57H13.334z"/>
	<path fill="#00AAE6" d="M22.82,25.679c-2.18,0-3.565-1.476-3.565-3.69c0-0.919,0.271-1.801,0.81-2.881l3.151-6.356h1.333
		l-2.863,5.762c0.396-0.18,0.846-0.27,1.351-0.27c1.999,0,3.331,1.53,3.331,3.637C26.367,24.059,24.998,25.679,22.82,25.679z
		 M22.802,19.341c-1.368,0-2.251,1.009-2.251,2.593c0,1.566,0.883,2.593,2.251,2.593s2.269-1.026,2.269-2.593
		C25.07,20.512,24.278,19.341,22.802,19.341z"/>
</g>
</svg>
