<?xml version="1.0" encoding="utf-8"?>
<!-- Generator: Adobe Illustrator 16.0.0, SVG Export Plug-In . SVG Version: 6.00 Build 0)  -->
<!DOCTYPE svg PUBLIC "-//W3C//DTD SVG 1.1//EN" "http://www.w3.org/Graphics/SVG/1.1/DTD/svg11.dtd">
<svg version="1.1" id="圖層_1" xmlns="http://www.w3.org/2000/svg" xmlns:xlink="http://www.w3.org/1999/xlink" x="0px" y="0px"
	 width="38px" height="38px" viewBox="0 0 38 38" enable-background="new 0 0 38 38" xml:space="preserve">
<circle fill="#FFFFFF" stroke="#F0BE23" stroke-miterlimit="10" cx="19" cy="19" r="17.5"/>
<g>
	<path fill="#F0BE23" d="M13.804,25.679c-1.999,0-3.511-1.404-3.511-3.528v-5.979c0-2.125,1.512-3.529,3.511-3.529
		s3.511,1.404,3.511,3.529v5.979C17.314,24.274,15.803,25.679,13.804,25.679z M16.019,16.244c0-1.405-0.792-2.449-2.215-2.449
		s-2.214,1.044-2.214,2.449v5.834c0,1.404,0.791,2.448,2.214,2.448s2.215-1.044,2.215-2.448V16.244z"/>
	<path fill="#F0BE23" d="M25.918,19.215l-3.15,6.355h-1.35l2.881-5.761c-0.396,0.18-0.865,0.27-1.369,0.27
		c-1.998,0-3.313-1.53-3.313-3.637c0-2.179,1.368-3.799,3.547-3.799c2.178,0,3.564,1.477,3.564,3.691
		C26.729,17.252,26.459,18.135,25.918,19.215z M23.164,13.795c-1.369,0-2.251,1.026-2.251,2.593c0,1.422,0.774,2.593,2.251,2.593
		c1.368,0,2.269-1.008,2.269-2.593C25.433,14.822,24.532,13.795,23.164,13.795z"/>
</g>
</svg>
