<?xml version="1.0" encoding="utf-8"?>
<!-- Generator: Adobe Illustrator 16.0.0, SVG Export Plug-In . SVG Version: 6.00 Build 0)  -->
<!DOCTYPE svg PUBLIC "-//W3C//DTD SVG 1.1//EN" "http://www.w3.org/Graphics/SVG/1.1/DTD/svg11.dtd">
<svg version="1.1" id="圖層_1" xmlns="http://www.w3.org/2000/svg" xmlns:xlink="http://www.w3.org/1999/xlink" x="0px" y="0px"
	 width="38px" height="38px" viewBox="0 0 38 38" enable-background="new 0 0 38 38" xml:space="preserve">
<circle fill="#9B0019" stroke="#9B0019" stroke-miterlimit="10" cx="19" cy="19" r="17.5"/>
<g>
	<g>
		<path fill="#FFFFFF" d="M13.333,25.57V14.191l-2.395,2.106v-1.476l2.395-2.071h1.296V25.57H13.333z"/>
		<path fill="#FFFFFF" d="M22.604,25.697c-2.017,0-3.655-1.063-3.763-3.385h1.296c0.107,1.602,1.242,2.232,2.467,2.232
			c1.387,0,2.467-0.918,2.467-2.485c0-1.548-0.774-2.484-2.521-2.484h-0.27v-1.134h0.27c1.566,0,2.287-0.882,2.287-2.323
			c0-1.531-0.99-2.341-2.232-2.341c-1.351,0-2.179,0.828-2.305,2.143h-1.296c0.144-2.071,1.656-3.295,3.601-3.295
			c2.088,0,3.529,1.386,3.529,3.475c0,1.35-0.576,2.323-1.729,2.845c1.296,0.486,1.962,1.53,1.962,3.133
			C26.366,24.437,24.691,25.697,22.604,25.697z"/>
	</g>
</g>
</svg>
