<?xml version="1.0" encoding="utf-8"?>
<!-- Generator: Adobe Illustrator 16.0.0, SVG Export Plug-In . SVG Version: 6.00 Build 0)  -->
<!DOCTYPE svg PUBLIC "-//W3C//DTD SVG 1.1//EN" "http://www.w3.org/Graphics/SVG/1.1/DTD/svg11.dtd">
<svg version="1.1" id="圖層_1" xmlns="http://www.w3.org/2000/svg" xmlns:xlink="http://www.w3.org/1999/xlink" x="0px" y="0px"
	 width="38px" height="38px" viewBox="0 0 38 38" enable-background="new 0 0 38 38" xml:space="preserve">
<circle fill="#9B0019" stroke="#9B0019" stroke-miterlimit="10" cx="19" cy="19" r="17.5"/>
<g>
	<g>
		<path fill="#FFFFFF" d="M13.333,25.57V14.191l-2.395,2.106v-1.476l2.395-2.071h1.296V25.57H13.333z"/>
		<path fill="#FFFFFF" d="M22.819,25.679c-2.179,0-3.565-1.476-3.565-3.69c0-0.919,0.27-1.801,0.81-2.881l3.15-6.356h1.333
			l-2.862,5.762c0.396-0.18,0.846-0.27,1.35-0.27c1.999,0,3.331,1.53,3.331,3.637C26.366,24.059,24.998,25.679,22.819,25.679z
			 M22.801,19.341c-1.367,0-2.25,1.009-2.25,2.593c0,1.566,0.883,2.593,2.25,2.593c1.369,0,2.27-1.026,2.27-2.593
			C25.07,20.512,24.277,19.341,22.801,19.341z"/>
	</g>
</g>
</svg>
