<?xml version="1.0" encoding="utf-8"?>
<!-- Generator: Adobe Illustrator 16.0.0, SVG Export Plug-In . SVG Version: 6.00 Build 0)  -->
<!DOCTYPE svg PUBLIC "-//W3C//DTD SVG 1.1//EN" "http://www.w3.org/Graphics/SVG/1.1/DTD/svg11.dtd">
<svg version="1.1" id="圖層_1" xmlns="http://www.w3.org/2000/svg" xmlns:xlink="http://www.w3.org/1999/xlink" x="0px" y="0px"
	 width="38px" height="38px" viewBox="0 0 38 38" enable-background="new 0 0 38 38" xml:space="preserve">
<circle fill="#9B0019" stroke="#9B0019" stroke-miterlimit="10" cx="19" cy="19" r="17.5"/>
<g>
	<g>
		<path fill="#FFFFFF" d="M13.803,25.679c-1.999,0-3.511-1.404-3.511-3.528v-5.979c0-2.125,1.512-3.529,3.511-3.529
			s3.511,1.404,3.511,3.529v5.979C17.314,24.274,15.802,25.679,13.803,25.679z M16.018,16.244c0-1.405-0.792-2.449-2.215-2.449
			s-2.214,1.044-2.214,2.449v5.834c0,1.404,0.792,2.448,2.214,2.448s2.215-1.044,2.215-2.448V16.244z"/>
		<path fill="#FFFFFF" d="M25.792,24.742c-0.594,0.595-1.423,0.955-2.557,0.955c-1.116,0-2.017-0.36-2.575-0.918
			c-0.558-0.576-0.828-1.314-0.9-2.233h1.296c0.162,1.278,0.828,1.999,2.179,1.999c0.63,0,1.206-0.217,1.585-0.595
			c0.666-0.666,0.701-1.692,0.701-2.61c0-1.567-0.306-3.115-2.16-3.115c-1.116,0-1.873,0.504-2.125,1.26h-1.17v-6.734h6.482v1.152
			h-5.313v4.069c0.505-0.558,1.297-0.882,2.305-0.882c0.955,0,1.711,0.306,2.215,0.81c0.937,0.937,1.063,2.232,1.063,3.439
			C26.818,22.617,26.711,23.824,25.792,24.742z"/>
	</g>
</g>
</svg>
