<?xml version="1.0" encoding="utf-8"?>
<!-- Generator: Adobe Illustrator 16.0.0, SVG Export Plug-In . SVG Version: 6.00 Build 0)  -->
<!DOCTYPE svg PUBLIC "-//W3C//DTD SVG 1.1//EN" "http://www.w3.org/Graphics/SVG/1.1/DTD/svg11.dtd">
<svg version="1.1" id="圖層_1" xmlns="http://www.w3.org/2000/svg" xmlns:xlink="http://www.w3.org/1999/xlink" x="0px" y="0px"
	 width="38px" height="38px" viewBox="0 0 38 38" enable-background="new 0 0 38 38" xml:space="preserve">
<circle fill="#FFFFFF" stroke="#F0BE23" stroke-miterlimit="10" cx="19" cy="19" r="17.5"/>
<g>
	<path fill="#F0BE23" d="M13.804,25.679c-1.999,0-3.511-1.404-3.511-3.528v-5.979c0-2.125,1.512-3.529,3.511-3.529
		s3.511,1.404,3.511,3.529v5.979C17.314,24.274,15.803,25.679,13.804,25.679z M16.019,16.244c0-1.405-0.792-2.449-2.215-2.449
		s-2.214,1.044-2.214,2.449v5.834c0,1.404,0.791,2.448,2.214,2.448s2.215-1.044,2.215-2.448V16.244z"/>
	<path fill="#F0BE23" d="M23.02,25.697c-2.016,0-3.654-1.063-3.763-3.385h1.296c0.108,1.602,1.242,2.232,2.467,2.232
		c1.387,0,2.467-0.918,2.467-2.485c0-1.548-0.773-2.484-2.521-2.484h-0.271v-1.134h0.271c1.566,0,2.286-0.882,2.286-2.323
		c0-1.531-0.99-2.341-2.232-2.341c-1.35,0-2.178,0.828-2.305,2.143h-1.296c0.144-2.071,1.656-3.295,3.601-3.295
		c2.089,0,3.529,1.386,3.529,3.475c0,1.35-0.576,2.323-1.729,2.845c1.297,0.486,1.963,1.53,1.963,3.133
		C26.783,24.437,25.108,25.697,23.02,25.697z"/>
</g>
</svg>
