<?xml version="1.0" encoding="utf-8"?>
<!-- Generator: Adobe Illustrator 16.0.0, SVG Export Plug-In . SVG Version: 6.00 Build 0)  -->
<!DOCTYPE svg PUBLIC "-//W3C//DTD SVG 1.1//EN" "http://www.w3.org/Graphics/SVG/1.1/DTD/svg11.dtd">
<svg version="1.1" id="圖層_1" xmlns="http://www.w3.org/2000/svg" xmlns:xlink="http://www.w3.org/1999/xlink" x="0px" y="0px"
	 width="38px" height="38px" viewBox="0 0 38 38" enable-background="new 0 0 38 38" xml:space="preserve">
<circle fill="#FFFFFF" stroke="#00AAE6" stroke-miterlimit="10" cx="19" cy="19" r="17.5"/>
<g>
	<path fill="#00AAE6" d="M10.828,25.57v-1.152l5.06-6.427c0.486-0.63,0.721-1.188,0.721-1.891c0-1.387-0.828-2.305-2.232-2.305
		c-1.188,0-2.233,0.666-2.233,2.323h-1.296c0-2.017,1.387-3.475,3.529-3.475c2.106,0,3.528,1.35,3.528,3.457
		c0,1.026-0.323,1.692-1.026,2.593l-4.482,5.725h5.509v1.152H10.828z"/>
	<path fill="#00AAE6" d="M23.52,25.697c-2.017,0-3.655-1.063-3.763-3.385h1.296c0.108,1.602,1.242,2.232,2.467,2.232
		c1.387,0,2.467-0.918,2.467-2.485c0-1.548-0.774-2.484-2.521-2.484h-0.271v-1.134h0.271c1.566,0,2.286-0.882,2.286-2.323
		c0-1.531-0.99-2.341-2.232-2.341c-1.351,0-2.179,0.828-2.305,2.143h-1.296c0.144-2.071,1.656-3.295,3.601-3.295
		c2.089,0,3.529,1.386,3.529,3.475c0,1.35-0.576,2.323-1.729,2.845c1.296,0.486,1.962,1.53,1.962,3.133
		C27.282,24.437,25.608,25.697,23.52,25.697z"/>
</g>
</svg>
