<?xml version="1.0" encoding="utf-8"?>
<!-- Generator: Adobe Illustrator 16.0.0, SVG Export Plug-In . SVG Version: 6.00 Build 0)  -->
<!DOCTYPE svg PUBLIC "-//W3C//DTD SVG 1.1//EN" "http://www.w3.org/Graphics/SVG/1.1/DTD/svg11.dtd">
<svg version="1.1" id="圖層_1" xmlns="http://www.w3.org/2000/svg" xmlns:xlink="http://www.w3.org/1999/xlink" x="0px" y="0px"
	 width="38px" height="38px" viewBox="0 0 38 38" enable-background="new 0 0 38 38" xml:space="preserve">
<circle fill="#FFFFFF" stroke="#F0BE23" stroke-miterlimit="10" cx="19" cy="19" r="17.5"/>
<g>
	<path fill="#F0BE23" d="M10.828,25.57v-1.152l5.06-6.427c0.486-0.63,0.721-1.188,0.721-1.891c0-1.387-0.828-2.305-2.232-2.305
		c-1.188,0-2.233,0.666-2.233,2.323h-1.296c0-2.017,1.387-3.475,3.529-3.475c2.106,0,3.528,1.35,3.528,3.457
		c0,1.026-0.323,1.692-1.026,2.593l-4.482,5.725h5.509v1.152H10.828z"/>
	<path fill="#F0BE23" d="M26.418,19.215l-3.15,6.355h-1.351l2.881-5.761c-0.396,0.18-0.864,0.27-1.368,0.27
		c-1.999,0-3.313-1.53-3.313-3.637c0-2.179,1.369-3.799,3.548-3.799c2.178,0,3.564,1.477,3.564,3.691
		C27.229,17.252,26.959,18.135,26.418,19.215z M23.664,13.795c-1.369,0-2.251,1.026-2.251,2.593c0,1.422,0.774,2.593,2.251,2.593
		c1.368,0,2.269-1.008,2.269-2.593C25.933,14.822,25.032,13.795,23.664,13.795z"/>
</g>
</svg>
