<?xml version="1.0" encoding="utf-8"?>
<!-- Generator: Adobe Illustrator 16.0.0, SVG Export Plug-In . SVG Version: 6.00 Build 0)  -->
<!DOCTYPE svg PUBLIC "-//W3C//DTD SVG 1.1//EN" "http://www.w3.org/Graphics/SVG/1.1/DTD/svg11.dtd">
<svg version="1.1" id="圖層_1" xmlns="http://www.w3.org/2000/svg" xmlns:xlink="http://www.w3.org/1999/xlink" x="0px" y="0px"
	 width="38px" height="38px" viewBox="0 0 38 38" enable-background="new 0 0 38 38" xml:space="preserve">
<circle fill="#00AAE6" stroke="#00AAE6" stroke-miterlimit="10" cx="19" cy="19" r="17.5"/>
<g>
	<g>
		<path fill="#FFFFFF" d="M13.803,25.679c-1.999,0-3.511-1.404-3.511-3.528v-5.979c0-2.125,1.512-3.529,3.511-3.529
			s3.511,1.404,3.511,3.529v5.979C17.314,24.274,15.802,25.679,13.803,25.679z M16.018,16.244c0-1.405-0.792-2.449-2.215-2.449
			s-2.214,1.044-2.214,2.449v5.834c0,1.404,0.792,2.448,2.214,2.448s2.215-1.044,2.215-2.448V16.244z"/>
		<path fill="#FFFFFF" d="M25.612,23.536v2.034h-1.278v-2.034H19.22v-1.171l4.627-9.614h1.387l-4.628,9.614h3.728v-3.636h1.278
			v3.636h1.566v1.171H25.612z"/>
	</g>
</g>
</svg>
