<?xml version="1.0" encoding="utf-8"?>
<!-- Generator: Adobe Illustrator 16.0.0, SVG Export Plug-In . SVG Version: 6.00 Build 0)  -->
<!DOCTYPE svg PUBLIC "-//W3C//DTD SVG 1.1//EN" "http://www.w3.org/Graphics/SVG/1.1/DTD/svg11.dtd">
<svg version="1.1" id="圖層_1" xmlns="http://www.w3.org/2000/svg" xmlns:xlink="http://www.w3.org/1999/xlink" x="0px" y="0px"
	 width="38px" height="38px" viewBox="0 0 38 38" enable-background="new 0 0 38 38" xml:space="preserve">
<circle fill="#00AAE6" stroke="#00AAE6" stroke-miterlimit="10" cx="19" cy="19" r="17.5"/>
<g>
	<g>
		<path fill="#FFFFFF" d="M13.803,25.679c-1.999,0-3.511-1.404-3.511-3.528v-5.979c0-2.125,1.512-3.529,3.511-3.529
			s3.511,1.404,3.511,3.529v5.979C17.314,24.274,15.802,25.679,13.803,25.679z M16.018,16.244c0-1.405-0.792-2.449-2.215-2.449
			s-2.214,1.044-2.214,2.449v5.834c0,1.404,0.792,2.448,2.214,2.448s2.215-1.044,2.215-2.448V16.244z"/>
		<path fill="#FFFFFF" d="M23.235,25.679c-2.179,0-3.565-1.476-3.565-3.69c0-0.919,0.27-1.801,0.81-2.881l3.15-6.356h1.333
			l-2.862,5.762c0.396-0.18,0.846-0.27,1.35-0.27c1.999,0,3.331,1.53,3.331,3.637C26.782,24.059,25.414,25.679,23.235,25.679z
			 M23.217,19.341c-1.367,0-2.25,1.009-2.25,2.593c0,1.566,0.883,2.593,2.25,2.593c1.369,0,2.27-1.026,2.27-2.593
			C25.486,20.512,24.693,19.341,23.217,19.341z"/>
	</g>
</g>
</svg>
