<?xml version="1.0" encoding="utf-8"?>
<!-- Generator: Adobe Illustrator 16.0.0, SVG Export Plug-In . SVG Version: 6.00 Build 0)  -->
<!DOCTYPE svg PUBLIC "-//W3C//DTD SVG 1.1//EN" "http://www.w3.org/Graphics/SVG/1.1/DTD/svg11.dtd">
<svg version="1.1" id="圖層_1" xmlns="http://www.w3.org/2000/svg" xmlns:xlink="http://www.w3.org/1999/xlink" x="0px" y="0px"
	 width="38px" height="38px" viewBox="0 0 38 38" enable-background="new 0 0 38 38" xml:space="preserve">
<circle fill="#00AAE6" stroke="#00AAE6" stroke-miterlimit="10" cx="19" cy="19" r="17.5"/>
<g>
	<g>
		<path fill="#FFFFFF" d="M10.828,25.57v-1.152l5.06-6.427c0.486-0.63,0.72-1.188,0.72-1.891c0-1.387-0.828-2.305-2.232-2.305
			c-1.188,0-2.233,0.666-2.233,2.323h-1.296c0-2.017,1.387-3.475,3.529-3.475c2.106,0,3.529,1.35,3.529,3.457
			c0,1.026-0.324,1.692-1.026,2.593l-4.483,5.725h5.509v1.152H10.828z"/>
		<path fill="#FFFFFF" d="M23.699,25.679c-2.124,0-3.781-1.476-3.781-3.638c0-1.494,0.846-2.502,1.926-3.114
			c-1.008-0.576-1.674-1.512-1.674-2.845c0-1.999,1.494-3.439,3.528-3.439c2.035,0,3.529,1.44,3.529,3.439
			c0,1.333-0.648,2.269-1.656,2.845c1.08,0.612,1.908,1.62,1.908,3.114C27.48,24.203,25.824,25.679,23.699,25.679z M23.699,19.521
			c-1.404,0-2.484,1.081-2.484,2.502c0,1.423,1.08,2.503,2.484,2.503c1.405,0,2.485-1.08,2.485-2.503
			C26.185,20.602,25.104,19.521,23.699,19.521z M23.699,13.795c-1.314,0-2.232,0.972-2.232,2.305c0,1.35,0.918,2.287,2.232,2.287
			s2.233-0.937,2.233-2.287C25.933,14.768,25.014,13.795,23.699,13.795z"/>
	</g>
</g>
</svg>
