<?xml version="1.0" encoding="utf-8"?>
<!-- Generator: Adobe Illustrator 16.0.0, SVG Export Plug-In . SVG Version: 6.00 Build 0)  -->
<!DOCTYPE svg PUBLIC "-//W3C//DTD SVG 1.1//EN" "http://www.w3.org/Graphics/SVG/1.1/DTD/svg11.dtd">
<svg version="1.1" id="圖層_1" xmlns="http://www.w3.org/2000/svg" xmlns:xlink="http://www.w3.org/1999/xlink" x="0px" y="0px"
	 width="38px" height="38px" viewBox="0 0 38 38" enable-background="new 0 0 38 38" xml:space="preserve">
<circle fill="#FFFFFF" stroke="#00AAE6" stroke-miterlimit="10" cx="19" cy="19" r="17.5"/>
<g>
	<path fill="#00AAE6" d="M14.304,25.679c-1.999,0-3.511-1.404-3.511-3.528v-5.979c0-2.125,1.512-3.529,3.511-3.529
		s3.511,1.404,3.511,3.529v5.979C17.814,24.274,16.303,25.679,14.304,25.679z M16.519,16.244c0-1.405-0.792-2.449-2.215-2.449
		s-2.214,1.044-2.214,2.449v5.834c0,1.404,0.791,2.448,2.214,2.448s2.215-1.044,2.215-2.448V16.244z"/>
	<path fill="#00AAE6" d="M23.646,25.57V14.191l-2.396,2.106v-1.476l2.396-2.071h1.296V25.57H23.646z"/>
</g>
</svg>
