<?xml version="1.0" encoding="utf-8"?>
<!-- Generator: Adobe Illustrator 16.0.0, SVG Export Plug-In . SVG Version: 6.00 Build 0)  -->
<!DOCTYPE svg PUBLIC "-//W3C//DTD SVG 1.1//EN" "http://www.w3.org/Graphics/SVG/1.1/DTD/svg11.dtd">
<svg version="1.1" id="圖層_1" xmlns="http://www.w3.org/2000/svg" xmlns:xlink="http://www.w3.org/1999/xlink" x="0px" y="0px"
	 width="38px" height="38px" viewBox="0 0 38 38" enable-background="new 0 0 38 38" xml:space="preserve">
<circle fill="#F0BE23" stroke="#F0BE23" stroke-miterlimit="10" cx="19" cy="19" r="17.5"/>
<g>
	<g>
		<path fill="#FFFFFF" d="M10.828,25.57v-1.152l5.06-6.427c0.486-0.63,0.72-1.188,0.72-1.891c0-1.387-0.828-2.305-2.232-2.305
			c-1.188,0-2.233,0.666-2.233,2.323h-1.296c0-2.017,1.387-3.475,3.529-3.475c2.106,0,3.529,1.35,3.529,3.457
			c0,1.026-0.324,1.692-1.026,2.593l-4.483,5.725h5.509v1.152H10.828z"/>
		<path fill="#FFFFFF" d="M26.292,24.742c-0.594,0.595-1.422,0.955-2.557,0.955c-1.116,0-2.017-0.36-2.574-0.918
			c-0.559-0.576-0.828-1.314-0.9-2.233h1.296c0.162,1.278,0.828,1.999,2.179,1.999c0.631,0,1.207-0.217,1.585-0.595
			c0.666-0.666,0.702-1.692,0.702-2.61c0-1.567-0.307-3.115-2.161-3.115c-1.116,0-1.872,0.504-2.124,1.26h-1.171v-6.734h6.482v1.152
			h-5.312v4.069c0.504-0.558,1.296-0.882,2.305-0.882c0.954,0,1.71,0.306,2.215,0.81c0.936,0.937,1.062,2.232,1.062,3.439
			C27.318,22.617,27.211,23.824,26.292,24.742z"/>
	</g>
</g>
</svg>
