<?xml version="1.0" encoding="utf-8"?>
<!-- Generator: Adobe Illustrator 16.0.0, SVG Export Plug-In . SVG Version: 6.00 Build 0)  -->
<!DOCTYPE svg PUBLIC "-//W3C//DTD SVG 1.1//EN" "http://www.w3.org/Graphics/SVG/1.1/DTD/svg11.dtd">
<svg version="1.1" id="圖層_1" xmlns="http://www.w3.org/2000/svg" xmlns:xlink="http://www.w3.org/1999/xlink" x="0px" y="0px"
	 width="38px" height="38px" viewBox="0 0 38 38" enable-background="new 0 0 38 38" xml:space="preserve">
<circle fill="#FFFFFF" stroke="#9B0019" stroke-miterlimit="10" cx="19" cy="19" r="17.5"/>
<g>
	<path fill="#9B0019" d="M13.334,25.57V14.191l-2.395,2.106v-1.476l2.395-2.071h1.297V25.57H13.334z"/>
	<path fill="#9B0019" d="M22.604,25.697c-2.016,0-3.654-1.063-3.763-3.385h1.296c0.108,1.602,1.242,2.232,2.467,2.232
		c1.387,0,2.467-0.918,2.467-2.485c0-1.548-0.773-2.484-2.521-2.484h-0.271v-1.134h0.271c1.566,0,2.286-0.882,2.286-2.323
		c0-1.531-0.99-2.341-2.232-2.341c-1.35,0-2.178,0.828-2.305,2.143h-1.296c0.144-2.071,1.656-3.295,3.601-3.295
		c2.089,0,3.529,1.386,3.529,3.475c0,1.35-0.576,2.323-1.729,2.845c1.297,0.486,1.963,1.53,1.963,3.133
		C26.367,24.437,24.692,25.697,22.604,25.697z"/>
</g>
</svg>
