<?xml version="1.0" encoding="utf-8"?>
<!-- Generator: Adobe Illustrator 16.0.0, SVG Export Plug-In . SVG Version: 6.00 Build 0)  -->
<!DOCTYPE svg PUBLIC "-//W3C//DTD SVG 1.1//EN" "http://www.w3.org/Graphics/SVG/1.1/DTD/svg11.dtd">
<svg version="1.1" id="圖層_1" xmlns="http://www.w3.org/2000/svg" xmlns:xlink="http://www.w3.org/1999/xlink" x="0px" y="0px"
	 width="38px" height="38px" viewBox="0 0 38 38" enable-background="new 0 0 38 38" xml:space="preserve">
<circle fill="#FFFFFF" stroke="#F0BE23" stroke-miterlimit="10" cx="19" cy="19" r="17.5"/>
<g>
	<path fill="#F0BE23" d="M13.804,25.679c-1.999,0-3.511-1.404-3.511-3.528v-5.979c0-2.125,1.512-3.529,3.511-3.529
		s3.511,1.404,3.511,3.529v5.979C17.314,24.274,15.803,25.679,13.804,25.679z M16.019,16.244c0-1.405-0.792-2.449-2.215-2.449
		s-2.214,1.044-2.214,2.449v5.834c0,1.404,0.791,2.448,2.214,2.448s2.215-1.044,2.215-2.448V16.244z"/>
	<path fill="#F0BE23" d="M23.236,25.679c-2.18,0-3.565-1.476-3.565-3.69c0-0.919,0.271-1.801,0.81-2.881l3.151-6.356h1.333
		l-2.863,5.762c0.396-0.18,0.846-0.27,1.351-0.27c1.999,0,3.331,1.53,3.331,3.637C26.783,24.059,25.414,25.679,23.236,25.679z
		 M23.218,19.341c-1.368,0-2.251,1.009-2.251,2.593c0,1.566,0.883,2.593,2.251,2.593s2.269-1.026,2.269-2.593
		C25.486,20.512,24.694,19.341,23.218,19.341z"/>
</g>
</svg>
