<?xml version="1.0" encoding="utf-8"?>
<!-- Generator: Adobe Illustrator 16.0.0, SVG Export Plug-In . SVG Version: 6.00 Build 0)  -->
<!DOCTYPE svg PUBLIC "-//W3C//DTD SVG 1.1//EN" "http://www.w3.org/Graphics/SVG/1.1/DTD/svg11.dtd">
<svg version="1.1" id="圖層_1" xmlns="http://www.w3.org/2000/svg" xmlns:xlink="http://www.w3.org/1999/xlink" x="0px" y="0px"
	 width="38px" height="38px" viewBox="0 0 38 38" enable-background="new 0 0 38 38" xml:space="preserve">
<circle fill="#FFFFFF" stroke="#F0BE23" stroke-miterlimit="10" cx="19" cy="19" r="17.5"/>
<g>
	<path fill="#F0BE23" d="M13.804,25.679c-1.999,0-3.511-1.404-3.511-3.528v-5.979c0-2.125,1.512-3.529,3.511-3.529
		s3.511,1.404,3.511,3.529v5.979C17.314,24.274,15.803,25.679,13.804,25.679z M16.019,16.244c0-1.405-0.792-2.449-2.215-2.449
		s-2.214,1.044-2.214,2.449v5.834c0,1.404,0.791,2.448,2.214,2.448s2.215-1.044,2.215-2.448V16.244z"/>
	<path fill="#F0BE23" d="M23.199,25.679c-2.124,0-3.78-1.476-3.78-3.638c0-1.494,0.847-2.502,1.927-3.114
		c-1.009-0.576-1.675-1.512-1.675-2.845c0-1.999,1.495-3.439,3.528-3.439c2.035,0,3.529,1.44,3.529,3.439
		c0,1.333-0.648,2.269-1.656,2.845c1.08,0.612,1.908,1.62,1.908,3.114C26.98,24.203,25.324,25.679,23.199,25.679z M23.199,19.521
		c-1.404,0-2.484,1.081-2.484,2.502c0,1.423,1.08,2.503,2.484,2.503c1.405,0,2.485-1.08,2.485-2.503
		C25.685,20.602,24.604,19.521,23.199,19.521z M23.199,13.795c-1.314,0-2.232,0.972-2.232,2.305c0,1.35,0.918,2.287,2.232,2.287
		s2.233-0.937,2.233-2.287C25.433,14.768,24.514,13.795,23.199,13.795z"/>
</g>
</svg>
