<?xml version="1.0" encoding="utf-8"?>
<!-- Generator: Adobe Illustrator 16.0.0, SVG Export Plug-In . SVG Version: 6.00 Build 0)  -->
<!DOCTYPE svg PUBLIC "-//W3C//DTD SVG 1.1//EN" "http://www.w3.org/Graphics/SVG/1.1/DTD/svg11.dtd">
<svg version="1.1" id="圖層_1" xmlns="http://www.w3.org/2000/svg" xmlns:xlink="http://www.w3.org/1999/xlink" x="0px" y="0px"
	 width="38px" height="38px" viewBox="0 0 38 38" enable-background="new 0 0 38 38" xml:space="preserve">
<circle fill="#FFFFFF" stroke="#00AAE6" stroke-miterlimit="10" cx="19" cy="19" r="17.5"/>
<g>
	<path fill="#00AAE6" d="M13.334,25.57V14.191l-2.395,2.106v-1.476l2.395-2.071h1.297V25.57H13.334z"/>
	<path fill="#00AAE6" d="M25.377,24.742c-0.594,0.595-1.423,0.955-2.557,0.955c-1.117,0-2.018-0.36-2.575-0.918
		c-0.558-0.576-0.828-1.314-0.9-2.233h1.296c0.162,1.278,0.828,1.999,2.18,1.999c0.63,0,1.206-0.217,1.584-0.595
		c0.666-0.666,0.702-1.692,0.702-2.61c0-1.567-0.306-3.115-2.161-3.115c-1.115,0-1.872,0.504-2.124,1.26H19.65v-6.734h6.482v1.152
		h-5.312v4.069c0.505-0.558,1.296-0.882,2.305-0.882c0.954,0,1.71,0.306,2.215,0.81c0.937,0.937,1.062,2.232,1.062,3.439
		C26.402,22.617,26.295,23.824,25.377,24.742z"/>
</g>
</svg>
