<?xml version="1.0" encoding="utf-8"?>
<!-- Generator: Adobe Illustrator 16.0.0, SVG Export Plug-In . SVG Version: 6.00 Build 0)  -->
<!DOCTYPE svg PUBLIC "-//W3C//DTD SVG 1.1//EN" "http://www.w3.org/Graphics/SVG/1.1/DTD/svg11.dtd">
<svg version="1.1" id="圖層_1" xmlns="http://www.w3.org/2000/svg" xmlns:xlink="http://www.w3.org/1999/xlink" x="0px" y="0px"
	 width="38px" height="38px" viewBox="0 0 38 38" enable-background="new 0 0 38 38" xml:space="preserve">
<circle fill="#FFFFFF" stroke="#9B0019" stroke-miterlimit="10" cx="19" cy="19" r="17.5"/>
<g>
	<path fill="#9B0019" d="M13.334,25.57V14.191l-2.395,2.106v-1.476l2.395-2.071h1.297V25.57H13.334z"/>
	<path fill="#9B0019" d="M19.309,25.57v-1.152l5.06-6.427c0.486-0.63,0.72-1.188,0.72-1.891c0-1.387-0.828-2.305-2.232-2.305
		c-1.188,0-2.232,0.666-2.232,2.323h-1.297c0-2.017,1.387-3.475,3.529-3.475c2.107,0,3.529,1.35,3.529,3.457
		c0,1.026-0.324,1.692-1.025,2.593l-4.484,5.725h5.51v1.152H19.309z"/>
</g>
</svg>
