<?xml version="1.0" encoding="utf-8"?>
<!-- Generator: Adobe Illustrator 16.0.0, SVG Export Plug-In . SVG Version: 6.00 Build 0)  -->
<!DOCTYPE svg PUBLIC "-//W3C//DTD SVG 1.1//EN" "http://www.w3.org/Graphics/SVG/1.1/DTD/svg11.dtd">
<svg version="1.1" id="圖層_1" xmlns="http://www.w3.org/2000/svg" xmlns:xlink="http://www.w3.org/1999/xlink" x="0px" y="0px"
	 width="38px" height="38px" viewBox="0 0 38 38" enable-background="new 0 0 38 38" xml:space="preserve">
<circle fill="#9B0019" stroke="#9B0019" stroke-miterlimit="10" cx="19" cy="19" r="17.5"/>
<g>
	<g>
		<path fill="#FFFFFF" d="M10.828,25.57v-1.152l5.06-6.427c0.486-0.63,0.72-1.188,0.72-1.891c0-1.387-0.828-2.305-2.232-2.305
			c-1.188,0-2.233,0.666-2.233,2.323h-1.296c0-2.017,1.387-3.475,3.529-3.475c2.106,0,3.529,1.35,3.529,3.457
			c0,1.026-0.324,1.692-1.026,2.593l-4.483,5.725h5.509v1.152H10.828z"/>
		<path fill="#FFFFFF" d="M23.735,25.679c-2.179,0-3.564-1.476-3.564-3.69c0-0.919,0.27-1.801,0.81-2.881l3.151-6.356h1.332
			l-2.862,5.762c0.396-0.18,0.846-0.27,1.351-0.27c1.998,0,3.33,1.53,3.33,3.637C27.282,24.059,25.914,25.679,23.735,25.679z
			 M23.718,19.341c-1.368,0-2.251,1.009-2.251,2.593c0,1.566,0.883,2.593,2.251,2.593s2.269-1.026,2.269-2.593
			C25.986,20.512,25.194,19.341,23.718,19.341z"/>
	</g>
</g>
</svg>
