<?xml version="1.0" encoding="utf-8"?>
<!-- Generator: Adobe Illustrator 16.0.0, SVG Export Plug-In . SVG Version: 6.00 Build 0)  -->
<!DOCTYPE svg PUBLIC "-//W3C//DTD SVG 1.1//EN" "http://www.w3.org/Graphics/SVG/1.1/DTD/svg11.dtd">
<svg version="1.1" id="圖層_1" xmlns="http://www.w3.org/2000/svg" xmlns:xlink="http://www.w3.org/1999/xlink" x="0px" y="0px"
	 width="16px" height="16px" viewBox="0 0 16 16" enable-background="new 0 0 16 16" xml:space="preserve">
<g>
	<path fill="#505050" stroke="#505050" stroke-miterlimit="10" d="M15.5,12.5c0,1.656-1.343,3-3,3h-9c-1.657,0-3-1.344-3-3v-9
		c0-1.657,1.343-3,3-3h9c1.657,0,3,1.343,3,3V12.5z"/>
	<g>
		<g>
			<path fill="#FFFFFF" d="M5.346,9.641c0-1.416,1.235-2.111,4.018-2.423C9.375,6.342,9.1,5.479,7.984,5.479
				c-0.78,0-1.476,0.372-1.967,0.719L5.621,5.514C6.186,5.143,7.097,4.663,8.14,4.663c1.571,0,2.195,1.067,2.195,2.627v4.017H9.531
				l-0.084-0.791H9.411c-0.623,0.527-1.367,0.947-2.183,0.947C6.161,11.463,5.346,10.815,5.346,9.641z M9.363,9.771V7.877
				c-2.291,0.264-3.07,0.815-3.07,1.703c0,0.779,0.54,1.092,1.199,1.092C8.152,10.672,8.704,10.359,9.363,9.771z"/>
		</g>
	</g>
</g>
</svg>
