<?xml version="1.0" encoding="utf-8"?>
<!-- Generator: Adobe Illustrator 16.0.3, SVG Export Plug-In . SVG Version: 6.00 Build 0)  -->
<!DOCTYPE svg PUBLIC "-//W3C//DTD SVG 1.1//EN" "http://www.w3.org/Graphics/SVG/1.1/DTD/svg11.dtd">
<svg version="1.1" id="圖層_1" xmlns="http://www.w3.org/2000/svg" xmlns:xlink="http://www.w3.org/1999/xlink" x="0px" y="0px"
	 width="48.665px" height="49.667px" viewBox="0 0 48.665 49.667" enable-background="new 0 0 48.665 49.667" xml:space="preserve">
<g>
	<path d="M-27.782,270.827c-0.01-5.322-1.59-9.934-4.829-14.099c-2.794-3.593-6.466-6.426-10.016-9.165
		c-6.778-5.23-13.181-10.17-13.181-19.931c0-0.394-0.319-0.712-0.713-0.712h-2.852c-0.394,0-0.713,0.318-0.713,0.712
		c0,5.343,1.58,9.973,4.83,14.152c2.225,2.859,5.004,5.238,7.836,7.472c-2.648,2.087-5.553,4.534-7.836,7.472
		c-3.25,4.179-4.83,8.809-4.83,14.151c0,0.394,0.319,0.714,0.713,0.714h2.852c0.394,0,0.713-0.32,0.713-0.714
		c0-0.74,0.037-1.451,0.106-2.139h5.069c0.394,0,0.713-0.319,0.713-0.712c0-0.394-0.319-0.714-0.713-0.714h-4.87
		c0.274-1.528,0.729-2.928,1.335-4.23h17.655c0.394,0,0.712-0.318,0.712-0.713c0-0.394-0.318-0.713-0.712-0.713h-16.911
		c0.879-1.516,1.974-2.905,3.232-4.231h8.702c0.394,0,0.712-0.319,0.712-0.713s-0.318-0.713-0.712-0.713h-7.263
		c1.458-1.368,3.084-2.69,4.818-4.042c6.271,4.878,11.873,9.791,11.873,18.92c0,0.394,0.32,0.714,0.714,0.714h2.852
		c0.396,0,0.714-0.32,0.714-0.714C-27.78,270.862-27.78,270.845-27.782,270.827L-27.782,270.827z M-50.992,256.18
		c-0.03,0.027-0.06,0.057-0.085,0.09c-0.787,0.813-1.523,1.66-2.191,2.553c-0.765,1.022-1.415,2.075-1.956,3.165
		c-0.028,0.043-0.052,0.091-0.069,0.14c-0.882,1.812-1.459,3.724-1.738,5.759c-0.007,0.029-0.01,0.06-0.013,0.09
		c-0.095,0.714-0.155,1.444-0.179,2.192h-1.426c0.135-4.716,1.617-8.832,4.52-12.564c2.267-2.914,5.214-5.361,7.869-7.443
		c0.341,0.264,0.682,0.528,1.021,0.79c0.047,0.037,0.094,0.074,0.143,0.11C-47.2,252.702-49.224,254.36-50.992,256.18
		L-50.992,256.18z M-30.644,270.168c-0.137-4.413-1.537-8.268-4.275-11.764c-2.555-3.263-5.903-5.848-9.45-8.584
		c-3.479-2.684-7.078-5.461-9.761-8.911c-2.902-3.732-4.385-7.849-4.52-12.563h1.428c0.135,4.413,1.537,8.267,4.273,11.764
		c2.555,3.262,5.904,5.847,9.45,8.583c3.479,2.686,7.078,5.461,9.762,8.911c2.901,3.732,4.384,7.849,4.519,12.564H-30.644z
		 M-30.644,270.168"/>
	<path d="M-51.354,235.429c-0.395,0-0.713,0.318-0.713,0.713c0,0.394,0.318,0.713,0.713,0.713h2.852
		c0.394,0,0.713-0.319,0.713-0.713c0-0.395-0.319-0.713-0.713-0.713H-51.354z M-51.354,235.429"/>
	<path d="M-53.446,231.197h21.09c-0.268,1.524-0.713,2.922-1.318,4.231h-11.977c-0.395,0-0.713,0.318-0.713,0.713
		c0,0.394,0.318,0.713,0.713,0.713h11.234c-0.865,1.495-1.953,2.884-3.235,4.23h-8.726c-0.394,0-0.713,0.319-0.713,0.713
		c0,0.395,0.319,0.713,0.713,0.713h7.284c-0.919,0.859-1.913,1.71-2.979,2.57c-0.306,0.248-0.354,0.697-0.106,1.003
		s0.696,0.354,1.003,0.106c3.174-2.566,6.48-5.539,8.524-9.65c0.037-0.054,0.065-0.112,0.086-0.176
		c0.824-1.699,1.432-3.591,1.729-5.727c0.009-0.036,0.014-0.073,0.016-0.111c0.093-0.701,0.154-1.427,0.178-2.181h1.426
		c-0.135,4.715-1.617,8.831-4.519,12.563c-1.485,1.91-3.401,3.807-6.029,5.97c-0.304,0.25-0.347,0.7-0.097,1.003
		c0.141,0.172,0.344,0.26,0.551,0.26c0.158,0,0.319-0.053,0.452-0.162c2.712-2.231,4.696-4.199,6.248-6.194
		c3.25-4.179,4.829-8.81,4.829-14.152c0-0.394-0.318-0.712-0.712-0.712h-2.852c-0.394,0-0.714,0.318-0.714,0.712
		c0,0.74-0.034,1.452-0.102,2.139h-21.285c-0.395,0-0.713,0.319-0.713,0.713S-53.841,231.197-53.446,231.197L-53.446,231.197z
		 M-53.446,231.197"/>
	<path d="M-34.42,267.315h-13.36c-0.393,0-0.713,0.32-0.713,0.714c0,0.393,0.32,0.712,0.713,0.712h13.36
		c0.394,0,0.714-0.319,0.714-0.712C-33.706,267.636-34.026,267.315-34.42,267.315L-34.42,267.315z M-34.42,267.315"/>
</g>
<g>
	<path d="M-45.596,143.813c5.988,0,10.859-4.873,10.859-10.861c0-5.99-4.871-10.861-10.859-10.861
		c-5.99,0-10.861,4.871-10.861,10.861C-56.458,138.939-51.586,143.813-45.596,143.813L-45.596,143.813z M-45.596,123.516
		c5.201,0,9.436,4.232,9.436,9.436s-4.234,9.436-9.436,9.436c-5.203,0-9.438-4.232-9.438-9.436S-50.799,123.516-45.596,123.516
		L-45.596,123.516z M-45.596,123.516"/>
	<path d="M-37.258,154.59h-1.705c-0.395,0-0.713,0.318-0.713,0.713v1.449l-5.207,7.117v-5.416l6.775-9.262
		c1.41,0.629,2.746,1.441,3.988,2.43c0.307,0.246,0.756,0.195,1.002-0.113c0.244-0.307,0.193-0.756-0.115-1.002
		c-3.545-2.824-7.82-4.318-12.363-4.318c-2.629,0-5.139,0.516-7.438,1.447c-0.051,0.014-0.102,0.035-0.15,0.063
		c-2.113,0.875-4.045,2.107-5.719,3.621c-0.01,0.006-0.02,0.012-0.029,0.02c-0.055,0.039-0.102,0.086-0.143,0.137
		c-3.922,3.631-6.383,8.82-6.383,14.576c0,0.393,0.318,0.713,0.711,0.713c0.395,0,0.715-0.32,0.715-0.713
		c0-5.096,2.076-9.715,5.43-13.055l1.994,2.729c0.135,0.182,0.35,0.291,0.576,0.291h3.09v0.969c0,0.152,0.047,0.299,0.137,0.422
		l6.633,9.064c0.002,0.004,0.006,0.008,0.01,0.012c0.01,0.014,0.021,0.027,0.033,0.041c0.006,0.008,0.012,0.014,0.02,0.02
		c0.012,0.014,0.025,0.027,0.039,0.039c0.006,0.006,0.012,0.01,0.016,0.014c0.02,0.018,0.041,0.033,0.063,0.047
		c0.002,0.002,0.006,0.004,0.01,0.006c0.018,0.012,0.037,0.023,0.057,0.035c0.008,0.002,0.014,0.004,0.02,0.008
		c0.018,0.008,0.035,0.016,0.053,0.023c0.008,0.002,0.014,0.006,0.021,0.008c0.018,0.006,0.035,0.012,0.055,0.016
		c0.008,0.002,0.014,0.004,0.021,0.006c0.02,0.004,0.039,0.008,0.059,0.012c0.006,0,0.014,0.002,0.021,0.002
		c0.025,0.004,0.053,0.006,0.078,0.006c0.027,0,0.055-0.002,0.08-0.006c0.008,0,0.014-0.002,0.021-0.002
		c0.02-0.004,0.039-0.008,0.059-0.012c0.006-0.002,0.014-0.004,0.021-0.006c0.02-0.004,0.037-0.01,0.055-0.016
		c0.006-0.002,0.014-0.006,0.021-0.008c0.018-0.008,0.035-0.016,0.053-0.023c0.006-0.004,0.012-0.006,0.02-0.008
		c0.02-0.012,0.039-0.023,0.057-0.035c0.004-0.002,0.006-0.004,0.01-0.006c0.021-0.014,0.043-0.029,0.063-0.047
		c0.004-0.004,0.01-0.008,0.014-0.014c0.016-0.012,0.029-0.025,0.041-0.039c0.008-0.006,0.014-0.012,0.02-0.02
		c0.012-0.014,0.021-0.027,0.033-0.041c0.004-0.004,0.006-0.008,0.01-0.012l6.633-9.064c0.09-0.123,0.137-0.27,0.137-0.422v-0.969
		h0.994c0.395,0,0.713-0.32,0.713-0.713C-36.545,154.908-36.864,154.59-37.258,154.59L-37.258,154.59z M-46.309,163.869
		l-5.207-7.117v-1.449c0-0.395-0.32-0.713-0.713-0.713h-3.441l-1.877-2.566c1.338-1.141,2.842-2.096,4.469-2.82l6.77,9.25V163.869z
		 M-45.596,157.014l-6.115-8.355c1.914-0.676,3.973-1.043,6.115-1.043c2.121,0,4.18,0.35,6.119,1.033L-45.596,157.014z
		 M-45.596,157.014"/>
	<path d="M-47.022,135.797c0.393,0,0.713-0.32,0.713-0.713s0.318-0.713,0.713-0.713c0.393,0,0.713,0.32,0.713,0.713
		s0.318,0.713,0.713,0.713h3.957c1.232,0,2.234-1.002,2.234-2.234v-2.209c0-1.232-1.002-2.234-2.234-2.234h-10.768
		c-1.232,0-2.234,1.002-2.234,2.234v2.209c0,1.232,1.002,2.234,2.234,2.234H-47.022z M-51.79,133.563v-2.209
		c0-0.445,0.363-0.809,0.809-0.809h10.768c0.445,0,0.809,0.363,0.809,0.809v2.209c0,0.445-0.363,0.809-0.809,0.809h-3.367
		c-0.293-0.83-1.088-1.426-2.016-1.426c-0.93,0-1.723,0.596-2.018,1.426h-3.367C-51.426,134.371-51.79,134.008-51.79,133.563
		L-51.79,133.563z M-51.79,133.563"/>
	<path d="M-25.842,152.045v-7.52c0-0.393-0.32-0.713-0.713-0.713h-3.607c-0.395,0-0.715,0.32-0.715,0.713v7.52
		c-3.002,1.057-5.057,3.92-5.057,7.145c0,4.176,3.398,7.574,7.574,7.574c4.178,0,7.574-3.398,7.574-7.574
		C-20.786,155.965-22.838,153.102-25.842,152.045L-25.842,152.045z M-28.36,165.338c-3.148,0-5.752-2.381-6.105-5.436h7.264
		c0.395,0,0.713-0.32,0.713-0.713c0-0.395-0.318-0.713-0.713-0.713h-7.264c0.287-2.465,2.053-4.557,4.488-5.219
		c0.311-0.086,0.527-0.367,0.527-0.688v-7.332h2.182v7.332c0,0.32,0.215,0.602,0.525,0.688c2.438,0.662,4.201,2.754,4.488,5.219
		h-2.096c-0.393,0-0.713,0.318-0.713,0.713c0,0.393,0.32,0.713,0.713,0.713h2.096C-22.608,162.957-25.209,165.338-28.36,165.338
		L-28.36,165.338z M-28.36,165.338"/>
</g>
<g>
	<path d="M-60.966,78.676c0,0.448,0.364,0.813,0.812,0.813h3.244c0.448,0,0.811-0.364,0.811-0.813V73.81
		c0-0.447-0.362-0.811-0.811-0.811h-3.244c-0.447,0-0.812,0.363-0.812,0.811V78.676z M-59.344,74.621h1.622v3.244h-1.622V74.621z
		 M-59.344,74.621"/>
	<path d="M-60.155,69.754h3.244c0.448,0,0.811-0.363,0.811-0.811v-4.867c0-0.447-0.362-0.811-0.811-0.811h-3.244
		c-0.447,0-0.812,0.363-0.812,0.811v4.867C-60.966,69.391-60.602,69.754-60.155,69.754L-60.155,69.754z M-59.344,64.889h1.622v3.244
		h-1.622V64.889z M-59.344,64.889"/>
	<path d="M-66.226,63.961l11.749-7.049l11.748,7.049c0.131,0.079,0.275,0.115,0.417,0.115c0.275,0,0.544-0.14,0.696-0.393
		c0.23-0.385,0.106-0.883-0.277-1.113l-11.773-7.063v-5.219h4.056v1.622h-2.433c-0.448,0-0.812,0.363-0.812,0.812
		s0.363,0.812,0.812,0.812h3.244c0.447,0,0.811-0.363,0.811-0.812v-3.244c0-0.448-0.363-0.812-0.811-0.812h-5.678
		c-0.448,0-0.812,0.363-0.812,0.812v6.029l-11.772,7.063c-0.384,0.23-0.509,0.729-0.277,1.113
		C-67.11,64.066-66.61,64.191-66.226,63.961L-66.226,63.961z M-66.226,63.961"/>
	<path d="M-69.888,79.488c0.448,0,0.812-0.364,0.812-0.813v-4.865c0-0.448-0.363-0.812-0.812-0.812h-3.244
		c-0.447,0-0.812,0.363-0.812,0.812v1.621c0,0.448,0.364,0.812,0.812,0.812s0.811-0.363,0.811-0.812v-0.811h1.622v4.055
		C-70.7,79.124-70.336,79.488-69.888,79.488L-69.888,79.488z M-69.888,79.488"/>
	<path d="M-64.21,90.031V66.51c0-0.447-0.363-0.811-0.811-0.811c-0.448,0-0.812,0.363-0.812,0.811v23.521
		c0,0.448,0.363,0.813,0.812,0.813C-64.574,90.844-64.21,90.479-64.21,90.031L-64.21,90.031z M-64.21,90.031"/>
	<path d="M-68.266,94.087h27.577c0.448,0,0.812-0.363,0.812-0.811c0-0.448-0.363-0.812-0.812-0.812h-7.3v-8.11h0.811
		c0.448,0,0.812-0.364,0.812-0.812s-0.363-0.811-0.812-0.811h-14.6c-0.447,0-0.811,0.363-0.811,0.811s0.363,0.812,0.811,0.812h0.812
		v8.11h-7.3c-0.447,0-0.811,0.363-0.811,0.811C-69.077,93.724-68.713,94.087-68.266,94.087L-68.266,94.087z M-53.667,89.221
		c0.448,0,0.812-0.363,0.812-0.811c0-0.448-0.363-0.812-0.812-0.812v-3.244h4.056v8.11h-4.056V89.221z M-59.344,84.354h4.056v3.244
		c-0.447,0-0.811,0.363-0.811,0.812c0,0.447,0.363,0.811,0.811,0.811v3.244h-4.056V84.354z M-59.344,84.354"/>
	<path d="M-35.823,83.543h-3.244c-0.447,0-0.811,0.363-0.811,0.811v4.867c0,0.447,0.363,0.811,0.811,0.811h3.244
		c0.448,0,0.812-0.363,0.812-0.811v-4.867C-35.011,83.906-35.375,83.543-35.823,83.543L-35.823,83.543z M-36.633,88.41h-1.622
		v-3.245h1.622V88.41z M-36.633,88.41"/>
	<path d="M-35.823,73.81h-3.244c-0.447,0-0.811,0.364-0.811,0.812v4.867c0,0.447,0.363,0.811,0.811,0.811h3.244
		c0.448,0,0.812-0.363,0.812-0.811v-4.867C-35.011,74.174-35.375,73.81-35.823,73.81L-35.823,73.81z M-36.633,78.676h-1.622v-3.244
		h1.622V78.676z M-36.633,78.676"/>
	<path d="M-37.445,95.709H-71.51c-0.447,0-0.812,0.363-0.812,0.812c0,0.447,0.364,0.812,0.812,0.812h34.065
		c0.448,0,0.812-0.363,0.812-0.812S-36.997,95.709-37.445,95.709L-37.445,95.709z M-37.445,95.709"/>
	<path d="M-30.956,66.51c-0.448,0-0.812,0.363-0.812,0.812v0.812h-8.922c-0.447,0-0.811,0.363-0.811,0.811s0.363,0.811,0.811,0.811
		h8.922v26.767c0,0.447,0.363,0.812,0.812,0.812c0.447,0,0.811-0.364,0.811-0.812V67.321C-30.145,66.873-30.508,66.51-30.956,66.51
		L-30.956,66.51z M-30.956,66.51"/>
	<path d="M-52.855,78.676c0,0.448,0.363,0.813,0.812,0.813h3.244c0.447,0,0.811-0.364,0.811-0.813V73.81
		c0-0.447-0.363-0.811-0.811-0.811h-3.244c-0.448,0-0.812,0.363-0.812,0.811V78.676z M-51.233,74.621h1.622v3.244h-1.622V74.621z
		 M-51.233,74.621"/>
	<path d="M-70.7,88.41c0-0.105-0.046-10.545-4.055-10.545S-78.81,88.305-78.81,88.41c0,1.958,1.396,3.596,3.244,3.973v4.138
		c0,0.448,0.363,0.812,0.812,0.812c0.447,0,0.811-0.363,0.811-0.812v-4.138C-72.095,92.006-70.7,90.368-70.7,88.41L-70.7,88.41z
		 M-74.754,90.844c-1.342,0-2.434-1.093-2.434-2.434c0-4.041,1.086-8.922,2.434-8.922s2.433,4.881,2.433,8.922
		C-72.322,89.751-73.413,90.844-74.754,90.844L-74.754,90.844z M-74.754,90.844"/>
	<path d="M-43.122,90.031V65.699c0-0.447-0.363-0.811-0.812-0.811s-0.811,0.363-0.811,0.811v24.332c0,0.448,0.362,0.813,0.811,0.813
		S-43.122,90.479-43.122,90.031L-43.122,90.031z M-43.122,90.031"/>
	<path d="M-52.043,69.754h3.244c0.447,0,0.811-0.363,0.811-0.811v-4.867c0-0.447-0.363-0.811-0.811-0.811h-3.244
		c-0.448,0-0.812,0.363-0.812,0.811v4.867C-52.855,69.391-52.492,69.754-52.043,69.754L-52.043,69.754z M-51.233,64.889h1.622v3.244
		h-1.622V64.889z M-51.233,64.889"/>
	<path d="M-77.999,77.055c0.447,0,0.811-0.363,0.811-0.812v-6.489h8.922c0.448,0,0.812-0.363,0.812-0.811s-0.363-0.811-0.812-0.811
		h-8.922v-0.811c0-0.449-0.363-0.813-0.811-0.813c-0.448,0-0.812,0.363-0.812,0.812v8.922
		C-78.81,76.691-78.447,77.055-77.999,77.055L-77.999,77.055z M-77.999,77.055"/>
</g>
<g>
	<path d="M-30.669,211.144c-0.403-0.103-0.812,0.145-0.912,0.547l-0.752,3.008c-0.102,0.404,0.145,0.813,0.548,0.913
		c0.061,0.016,0.122,0.022,0.183,0.022c0.338,0,0.643-0.228,0.729-0.569l0.753-3.009C-30.021,211.653-30.267,211.245-30.669,211.144
		L-30.669,211.144z M-30.669,211.144"/>
	<path d="M-39.878,196.077c0.098,0,0.195-0.019,0.287-0.057l8.275-3.424c0.383-0.159,0.565-0.599,0.406-0.982
		c-0.158-0.385-0.6-0.565-0.982-0.407l-7.986,3.305l-21.061-8.715v-0.25c0-0.415-0.338-0.752-0.752-0.752
		c-0.416,0-0.753,0.337-0.753,0.752v0.752c0,0.305,0.184,0.58,0.465,0.695l21.813,9.026
		C-40.073,196.058-39.976,196.077-39.878,196.077L-39.878,196.077z M-39.878,196.077"/>
	<path d="M-30.929,203.784c-0.184-0.372-0.634-0.526-1.008-0.342c-1.428,0.706-3.814,1.528-7.188,1.64v-6.748
		c0-0.415-0.337-0.752-0.753-0.752c-0.415,0-0.752,0.337-0.752,0.752v6.742c-9.34-0.299-12.354-5.956-12.787-6.898v-5.108
		c0-0.416-0.337-0.753-0.752-0.753s-0.752,0.337-0.752,0.753v5.265c0,0.096,0.018,0.19,0.053,0.28
		c0.131,0.325,3.332,7.994,14.99,7.994c4.075,0,6.931-0.988,8.607-1.817C-30.897,204.607-30.744,204.156-30.929,203.784
		L-30.929,203.784z M-30.929,203.784"/>
	<path d="M-28.595,211.874c-0.416,0-0.752,0.337-0.752,0.752v2.257c0,0.415,0.336,0.752,0.752,0.752s0.752-0.337,0.752-0.752v-2.257
		C-27.843,212.21-28.179,211.874-28.595,211.874L-28.595,211.874z M-28.595,211.874"/>
	<path d="M-18.063,184.794c-0.416,0-0.752,0.337-0.752,0.752v0.248l-9.027,3.716v-1.359l10.066-4.166
		c0.281-0.116,0.465-0.391,0.465-0.695s-0.184-0.578-0.464-0.694l-21.815-9.027c-0.184-0.075-0.391-0.075-0.574,0l-21.813,9.027
		c-0.281,0.116-0.465,0.39-0.465,0.694c0,0.306,0.184,0.58,0.465,0.695l21.813,9.026c0.092,0.038,0.189,0.058,0.287,0.058
		s0.195-0.02,0.288-0.058l7.888-3.264c0.384-0.158,0.566-0.598,0.408-0.982c-0.16-0.384-0.6-0.565-0.983-0.407l-7.601,3.145
		l-19.846-8.213l19.846-8.212l19.848,8.212l-8.637,3.574l-8.271-3.089c0.043-0.156,0.07-0.317,0.07-0.485
		c0-1.265-1.322-2.256-3.01-2.256c-1.687,0-3.008,0.991-3.008,2.256c0,1.266,1.321,2.257,3.008,2.257
		c0.754,0,1.426-0.205,1.947-0.536l8.584,3.205v18.531c-0.873,0.312-1.504,1.139-1.504,2.118c0,1.244,1.012,2.256,2.256,2.256
		s2.257-1.012,2.257-2.256c0-0.979-0.631-1.807-1.505-2.118v-4.27c2.16-1.63,2.934-3.801,2.968-3.897
		c0.027-0.078,0.042-0.162,0.042-0.245v-5.266c0-0.415-0.337-0.752-0.752-0.752c-0.417,0-0.753,0.337-0.753,0.752v5.126
		c-0.13,0.319-0.583,1.303-1.505,2.272v-9.331l10.065-4.142c0.282-0.116,0.466-0.392,0.466-0.696v-0.752
		C-17.312,185.131-17.647,184.794-18.063,184.794L-18.063,184.794z M-39.878,184.042c-0.918,0-1.504-0.444-1.504-0.752
		c0-0.307,0.586-0.752,1.504-0.752c0.919,0,1.505,0.445,1.505,0.752C-38.373,183.597-38.959,184.042-39.878,184.042L-39.878,184.042
		z M-28.595,209.617c-0.415,0-0.752-0.338-0.752-0.752c0-0.415,0.337-0.752,0.752-0.752c0.416,0,0.752,0.337,0.752,0.752
		C-27.843,209.279-28.179,209.617-28.595,209.617L-28.595,209.617z M-28.595,209.617"/>
	<path d="M-25.608,211.691c-0.101-0.402-0.51-0.648-0.912-0.547c-0.402,0.101-0.648,0.509-0.547,0.912l0.752,3.009
		c0.086,0.342,0.393,0.569,0.729,0.569c0.061,0,0.122-0.007,0.184-0.022c0.402-0.101,0.648-0.509,0.547-0.913L-25.608,211.691z
		 M-25.608,211.691"/>
</g>
<g>
	<path d="M-66.153,308.303c0.432,0.126,0.884-0.122,1.01-0.555c2.414-8.292,10.139-14.083,18.785-14.083
		c1.384,0,2.76,0.145,4.1,0.43c-0.029,1.174,0.477,1.978,0.803,2.494c0.091,0.144,0.214,0.34,0.229,0.366
		c0,2.923-0.598,3.399-0.592,3.401c-1.32,0-3.488,1.18-4.304,2.701c-0.501,0.934-0.46,1.921,0.113,2.782
		c0.394,0.589,0.731,1.244,1.059,1.879c0.692,1.341,1.462,2.83,2.669,2.83c0.255,0,0.53-0.067,0.828-0.216
		c0.951-0.476,1.633-1.827,2.291-3.133c0.29-0.576,0.717-1.42,0.969-1.688c0.828,0.112,1.232,0.86,1.779,2.046
		c0.402,0.872,0.818,1.773,1.637,2.182c1.377,0.689,5.907-0.032,8.41-1.095c0.374-0.159,0.574-0.57,0.468-0.963
		c-1.71-6.325-6.357-11.586-12.432-14.073c-0.417-0.172-0.894,0.028-1.063,0.445c-0.17,0.416,0.029,0.893,0.446,1.063
		c5.38,2.204,9.548,6.765,11.271,12.288c-2.536,0.895-5.792,1.163-6.372,0.877c-0.307-0.153-0.613-0.819-0.885-1.406
		c-0.568-1.231-1.348-2.917-3.334-3.005c-1.027-0.063-1.605,1.12-2.351,2.596c-0.437,0.866-1.097,2.174-1.622,2.433
		c-0.303-0.071-0.902-1.234-1.262-1.929c-0.332-0.643-0.707-1.37-1.15-2.034c-0.24-0.36-0.25-0.702-0.033-1.108
		c0.561-1.045,2.24-1.841,2.867-1.841c1.475,0,2.222-1.692,2.222-5.031c0-0.475-0.243-0.86-0.479-1.234
		c-0.346-0.548-0.702-1.114-0.491-2.08c0.094-0.43-0.17-0.857-0.596-0.965c-1.688-0.425-3.437-0.642-5.195-0.642
		c-9.367,0-17.736,6.274-20.35,15.259C-66.834,307.725-66.584,308.178-66.153,308.303L-66.153,308.303z M-66.153,308.303"/>
	<path d="M-36.581,313.651c-0.235,0.067-0.557,0.16-0.643,0.167c-1.127,0-1.841,0.872-2.361,1.508
		c-0.199,0.243-0.559,0.68-0.788,0.686c-0.368-0.184-0.755-0.277-1.15-0.277c-0.962,0-1.794,0.572-1.979,1.361
		c-0.131,0.554,0.063,1.313,0.996,1.779c1.322,0.662,2.691,1.346,3.301,1.955c0.418,0.419,1.143,0.659,1.988,0.659
		c1.284,0,2.99-0.624,3.576-2.383c0.232-0.692,0.785-1.222,1.321-1.734c0.621-0.595,1.208-1.157,1.217-1.963
		c0.005-0.477-0.206-0.931-0.626-1.353c-0.573-0.572-1.354-0.863-2.32-0.863C-34.976,313.193-35.904,313.458-36.581,313.651
		L-36.581,313.651z M-32.733,315.386c-0.039,0.16-0.444,0.549-0.715,0.808c-0.615,0.589-1.38,1.321-1.738,2.397
		c-0.402,1.206-1.764,1.268-2.031,1.268c-0.475,0-0.773-0.126-0.835-0.182c-0.798-0.797-2.22-1.508-3.726-2.261
		c-0.004-0.001-0.006-0.002-0.01-0.004c0.154-0.063,0.438-0.067,0.687,0.058c0.263,0.132,0.534,0.198,0.803,0.198
		c0.903,0,1.472-0.696,1.975-1.31c0.367-0.447,0.747-0.911,1.101-0.911c0.289,0,0.625-0.097,1.09-0.229
		c0.617-0.176,1.385-0.396,2.084-0.396c0.526,0,0.908,0.127,1.167,0.386C-32.769,315.323-32.738,315.386-32.733,315.386
		L-32.733,315.386z M-32.733,315.386"/>
	<path d="M-25.368,310.294c-0.063-0.446-0.48-0.757-0.919-0.696c-0.446,0.063-0.759,0.474-0.696,0.92
		c0.124,0.896,0.188,1.808,0.188,2.71c0,10.708-8.648,19.434-19.328,19.56c-2.898-1.852-5.615-4.119-4.404-6.941
		c2.173-5.073,0.15-6.963-0.713-7.771l-0.162-0.154c-0.248-0.246-0.526-0.414-0.771-0.562c-0.597-0.357-0.758-0.454-0.438-1.415
		c0.212-0.638,0.494-0.936,0.819-1.28c0.755-0.797,1.33-1.591,1.33-3.896c0-1.342-0.681-2.411-1.866-2.936
		c-1.347-0.596-3.144-0.385-4.094,0.478c-0.594,0.539-0.793,1.273-0.547,2.014c0.58,1.739-0.748,4.255-3.229,6.115
		c-0.656,0.493-0.852,0.267-0.97,0.133c-0.728-0.839-0.671-3.225-0.074-3.821c0.4-0.4,0.519-0.911,0.317-1.366
		c-0.66-1.498-4.871-1.383-5.707-1.343c-0.396,0.019-0.723,0.32-0.771,0.715c-0.104,0.843-0.147,1.582-0.147,2.472
		c0,9.772,6.617,18.231,16.093,20.573c0.435,0.108,0.878-0.159,0.985-0.597c0.108-0.437-0.158-0.878-0.596-0.985
		c-8.745-2.161-14.853-9.972-14.853-18.992c0-0.565,0.02-1.065,0.063-1.574c1.379-0.002,2.551,0.157,3.148,0.341
		c-0.936,1.46-0.832,4.329,0.311,5.646c0.819,0.943,2.008,0.983,3.18,0.104c3.131-2.349,4.621-5.464,3.796-7.936
		c-0.026-0.081-0.052-0.156,0.099-0.293c0.428-0.39,1.52-0.555,2.336-0.192c0.604,0.267,0.896,0.739,0.896,1.445
		c0,1.84-0.371,2.232-0.885,2.775c-0.38,0.403-0.854,0.905-1.182,1.886c-0.732,2.201,0.443,2.907,1.146,3.328
		c0.182,0.109,0.353,0.211,0.458,0.316c0.059,0.059,0.127,0.123,0.201,0.191c0.717,0.67,2.051,1.918,0.328,5.938
		c-1.953,4.557,3.082,7.734,5.232,9.092c0.131,0.081,0.281,0.125,0.436,0.125c11.686,0,21.191-9.507,21.191-21.191
		C-25.167,312.25-25.234,311.264-25.368,310.294L-25.368,310.294z M-25.368,310.294"/>
	<path d="M-32.737,331.542c-3.959,2.949-8.669,4.508-13.621,4.508c-12.584,0-22.822-10.237-22.822-22.822
		c0-0.449-0.365-0.814-0.814-0.814c-0.451,0-0.816,0.365-0.816,0.814c0,13.21,10.531,23.999,23.638,24.433v2.465
		c0,0.45,0.365,0.815,0.815,0.815c0.449,0,0.814-0.365,0.814-0.815v-2.478c5.006-0.162,9.757-1.801,13.78-4.798
		c0.36-0.27,0.435-0.779,0.166-1.142C-31.866,331.347-32.375,331.272-32.737,331.542L-32.737,331.542z M-32.737,331.542"/>
	<path d="M-45.735,325.06c-1.017,0-2.211,1.17-2.646,2.221c-0.34,0.821-0.239,1.586,0.278,2.104
		c0.486,0.486,1.209,0.766,1.981,0.766s1.495-0.279,1.981-0.766c0.541-0.542,0.674-1.338,0.373-2.239
		c-0.204-0.61-0.606-1.255-1.076-1.726C-45.075,325.188-45.392,325.06-45.735,325.06L-45.735,325.06z M-45.292,328.23
		c-0.361,0.362-1.303,0.353-1.654,0.01c-0.012-0.035-0.011-0.239,0.205-0.596c0.281-0.465,0.678-0.792,0.894-0.908
		c0.231,0.274,0.433,0.618,0.534,0.924C-45.223,327.929-45.214,328.155-45.292,328.23L-45.292,328.23z M-45.292,328.23"/>
</g>
<g>
	<path d="M41.114,16.591C40.692,9.388,34.754,3.634,27.598,3.634c-4.344,0-8.547,2.129-11.157,5.605
		c-0.058-0.031-0.12-0.051-0.183-0.082c-0.155-0.074-0.317-0.148-0.477-0.211c-0.095-0.039-0.191-0.074-0.289-0.105
		c-0.156-0.055-0.316-0.104-0.479-0.147c-0.095-0.028-0.188-0.052-0.285-0.075c-0.177-0.039-0.356-0.07-0.537-0.098
		c-0.086-0.012-0.168-0.027-0.254-0.039c-0.265-0.027-0.53-0.047-0.804-0.047c-3.969,0-7.198,3.23-7.198,7.199
		c0,0.103,0.002,0.203,0.01,0.305c-3.327,1.813-5.612,5.613-5.612,9.418c0,5.669,4.608,10.277,10.276,10.277h4.121
		c0.442,0,0.802-0.358,0.802-0.801c0-0.441-0.359-0.801-0.802-0.801h-4.121c-4.784,0-8.674-3.891-8.674-8.676
		c0-3.324,2.164-6.773,5.144-8.202l0.453-0.216v-0.504c0-0.098,0.008-0.198,0.012-0.301l0.008-0.137l-0.008-0.164
		c-0.008-0.066-0.012-0.133-0.012-0.199c0-3.086,2.512-5.602,5.602-5.602c0.246,0,0.492,0.023,0.734,0.055
		c0.063,0.008,0.125,0.021,0.188,0.027c0.211,0.04,0.422,0.082,0.629,0.145c0.026,0.008,0.058,0.012,0.086,0.021
		c0.226,0.069,0.448,0.159,0.666,0.257c0.056,0.023,0.11,0.051,0.166,0.078c0.194,0.098,0.381,0.199,0.565,0.32
		c1.539,1,2.562,2.73,2.562,4.699c0,0.441,0.36,0.801,0.802,0.801c0.442,0,0.801-0.359,0.801-0.801c0-2.203-0.996-4.176-2.56-5.496
		c2.293-3,6.071-4.901,9.825-4.901c6.195,0,11.344,4.905,11.879,11.108c-0.816-0.059-2.043-0.09-3.266,0.099
		c-0.438,0.065-0.738,0.476-0.672,0.913c0.063,0.395,0.402,0.68,0.793,0.68c0.039,0,0.078-0.004,0.121-0.011
		c1.777-0.271,3.633-0.017,3.746,0c3.727,0.707,6.531,4.136,6.531,7.987c0,4.422-3.598,8.02-8.02,8.02h-3.18
		c-0.441,0-0.801,0.359-0.801,0.801c0,0.442,0.359,0.801,0.801,0.801h3.18c5.305,0,9.621-4.315,9.621-9.621
		C48.333,21.622,45.27,17.681,41.114,16.591L41.114,16.591z M41.114,16.591"/>
	<path d="M30.965,28.2c0.156,0.156,0.363,0.234,0.566,0.234c0.207,0,0.41-0.078,0.566-0.234c0.313-0.313,0.313-0.82,0-1.132
		L25.7,20.669c-0.074-0.074-0.164-0.133-0.262-0.172c-0.195-0.082-0.415-0.082-0.609,0c-0.101,0.039-0.187,0.098-0.263,0.172
		l-6.397,6.399c-0.313,0.312-0.313,0.819,0,1.132c0.156,0.156,0.358,0.234,0.562,0.234c0.207,0,0.412-0.078,0.567-0.234l5.035-5.035
		v20.137l-5.035-5.035c-0.313-0.313-0.817-0.313-1.129,0c-0.313,0.313-0.313,0.82,0,1.134l6.397,6.397
		c0.076,0.074,0.162,0.133,0.263,0.176c0.098,0.039,0.198,0.059,0.305,0.059c0.101,0,0.207-0.02,0.305-0.059
		c0.098-0.043,0.188-0.102,0.262-0.176l6.398-6.397c0.313-0.313,0.313-0.821,0-1.134s-0.82-0.313-1.133,0l-5.031,5.035V23.165
		L30.965,28.2z M30.965,28.2"/>
</g>
</svg>
