<?xml version="1.0" encoding="utf-8"?>
<!-- Generator: Adobe Illustrator 16.0.3, SVG Export Plug-In . SVG Version: 6.00 Build 0)  -->
<!DOCTYPE svg PUBLIC "-//W3C//DTD SVG 1.1//EN" "http://www.w3.org/Graphics/SVG/1.1/DTD/svg11.dtd">
<svg version="1.1" id="圖層_1" xmlns="http://www.w3.org/2000/svg" xmlns:xlink="http://www.w3.org/1999/xlink" x="0px" y="0px"
	 width="48.665px" height="48.666px" viewBox="0 0 48.665 48.666" enable-background="new 0 0 48.665 48.666" xml:space="preserve">
<g>
	<path d="M1446.004,458.906c-0.01-5.322-1.59-9.934-4.829-14.099c-2.794-3.593-6.466-6.426-10.016-9.165
		c-6.778-5.23-13.181-10.17-13.181-19.931c0-0.394-0.319-0.712-0.713-0.712h-2.852c-0.394,0-0.713,0.318-0.713,0.712
		c0,5.343,1.58,9.973,4.83,14.152c2.225,2.859,5.004,5.238,7.836,7.472c-2.648,2.087-5.553,4.534-7.836,7.472
		c-3.25,4.179-4.83,8.809-4.83,14.151c0,0.394,0.319,0.714,0.713,0.714h2.852c0.394,0,0.713-0.32,0.713-0.714
		c0-0.74,0.037-1.451,0.106-2.139h5.069c0.394,0,0.713-0.319,0.713-0.712c0-0.394-0.319-0.714-0.713-0.714h-4.87
		c0.274-1.528,0.729-2.928,1.335-4.23h17.655c0.394,0,0.712-0.318,0.712-0.713c0-0.394-0.318-0.713-0.712-0.713h-16.911
		c0.879-1.516,1.974-2.905,3.232-4.231h8.702c0.394,0,0.712-0.319,0.712-0.713s-0.318-0.713-0.712-0.713h-7.263
		c1.458-1.368,3.084-2.69,4.818-4.042c6.271,4.878,11.873,9.791,11.873,18.92c0,0.394,0.32,0.714,0.714,0.714h2.852
		c0.396,0,0.714-0.32,0.714-0.714C1446.006,458.941,1446.006,458.924,1446.004,458.906L1446.004,458.906z M1422.794,444.259
		c-0.03,0.027-0.06,0.057-0.085,0.09c-0.787,0.813-1.523,1.66-2.191,2.553c-0.765,1.022-1.415,2.075-1.956,3.165
		c-0.028,0.043-0.052,0.091-0.069,0.14c-0.882,1.812-1.459,3.724-1.738,5.759c-0.007,0.029-0.01,0.06-0.013,0.09
		c-0.095,0.714-0.155,1.444-0.179,2.192h-1.426c0.135-4.716,1.617-8.832,4.52-12.564c2.267-2.914,5.214-5.361,7.869-7.443
		c0.341,0.264,0.682,0.528,1.021,0.79c0.047,0.037,0.094,0.074,0.143,0.11C1426.586,440.781,1424.563,442.439,1422.794,444.259
		L1422.794,444.259z M1443.143,458.247c-0.137-4.413-1.537-8.268-4.275-11.764c-2.555-3.263-5.903-5.848-9.45-8.584
		c-3.479-2.684-7.078-5.461-9.761-8.911c-2.902-3.732-4.385-7.849-4.52-12.563h1.428c0.135,4.413,1.537,8.267,4.273,11.764
		c2.555,3.262,5.904,5.847,9.45,8.583c3.479,2.686,7.078,5.461,9.762,8.911c2.901,3.732,4.384,7.849,4.519,12.564H1443.143z
		 M1443.143,458.247"/>
	<path d="M1422.432,423.508c-0.395,0-0.713,0.318-0.713,0.713c0,0.394,0.318,0.713,0.713,0.713h2.852
		c0.394,0,0.713-0.319,0.713-0.713c0-0.395-0.319-0.713-0.713-0.713H1422.432z M1422.432,423.508"/>
	<path d="M1420.34,419.276h21.09c-0.268,1.524-0.713,2.922-1.318,4.231h-11.977c-0.395,0-0.713,0.318-0.713,0.713
		c0,0.394,0.318,0.713,0.713,0.713h11.234c-0.865,1.495-1.953,2.884-3.235,4.23h-8.726c-0.394,0-0.713,0.319-0.713,0.713
		c0,0.395,0.319,0.713,0.713,0.713h7.284c-0.919,0.859-1.913,1.71-2.979,2.57c-0.306,0.248-0.354,0.697-0.106,1.003
		s0.696,0.354,1.003,0.106c3.174-2.566,6.48-5.539,8.524-9.65c0.037-0.054,0.065-0.112,0.086-0.176
		c0.824-1.699,1.432-3.591,1.729-5.727c0.009-0.036,0.014-0.073,0.016-0.111c0.093-0.701,0.154-1.427,0.178-2.181h1.426
		c-0.135,4.715-1.617,8.831-4.519,12.563c-1.485,1.91-3.401,3.807-6.029,5.97c-0.304,0.25-0.347,0.7-0.097,1.003
		c0.141,0.172,0.344,0.26,0.551,0.26c0.158,0,0.319-0.053,0.452-0.162c2.712-2.231,4.696-4.199,6.248-6.194
		c3.25-4.179,4.829-8.81,4.829-14.152c0-0.394-0.318-0.712-0.712-0.712h-2.852c-0.394,0-0.714,0.318-0.714,0.712
		c0,0.74-0.034,1.452-0.102,2.139h-21.285c-0.395,0-0.713,0.319-0.713,0.713S1419.945,419.276,1420.34,419.276L1420.34,419.276z
		 M1420.34,419.276"/>
	<path d="M1439.366,455.395h-13.36c-0.393,0-0.713,0.32-0.713,0.714c0,0.393,0.32,0.712,0.713,0.712h13.36
		c0.394,0,0.714-0.319,0.714-0.712C1440.08,455.715,1439.76,455.395,1439.366,455.395L1439.366,455.395z M1439.366,455.395"/>
</g>
<g>
	<path d="M1427,276.723c5.988,0,10.859-4.873,10.859-10.861c0-5.99-4.871-10.861-10.859-10.861c-5.99,0-10.861,4.871-10.861,10.861
		C1416.139,271.85,1421.01,276.723,1427,276.723L1427,276.723z M1427,256.426c5.201,0,9.436,4.232,9.436,9.436
		s-4.234,9.436-9.436,9.436c-5.203,0-9.438-4.232-9.438-9.436S1421.797,256.426,1427,256.426L1427,256.426z M1427,256.426"/>
	<path d="M1435.338,287.5h-1.705c-0.395,0-0.713,0.318-0.713,0.713v1.449l-5.207,7.117v-5.416l6.775-9.262
		c1.41,0.629,2.746,1.441,3.988,2.43c0.307,0.246,0.756,0.195,1.002-0.113c0.244-0.307,0.193-0.756-0.115-1.002
		c-3.545-2.824-7.82-4.318-12.363-4.318c-2.629,0-5.139,0.516-7.438,1.447c-0.051,0.014-0.102,0.035-0.15,0.063
		c-2.113,0.875-4.045,2.107-5.719,3.621c-0.01,0.006-0.02,0.012-0.029,0.02c-0.055,0.039-0.102,0.086-0.143,0.137
		c-3.922,3.631-6.383,8.82-6.383,14.576c0,0.393,0.318,0.713,0.711,0.713c0.395,0,0.715-0.32,0.715-0.713
		c0-5.096,2.076-9.715,5.43-13.055l1.994,2.729c0.135,0.182,0.35,0.291,0.576,0.291h3.09v0.969c0,0.152,0.047,0.299,0.137,0.422
		l6.633,9.064c0.002,0.004,0.006,0.008,0.01,0.012c0.01,0.014,0.021,0.027,0.033,0.041c0.006,0.008,0.012,0.014,0.02,0.02
		c0.012,0.014,0.025,0.027,0.039,0.039c0.006,0.006,0.012,0.01,0.016,0.014c0.02,0.018,0.041,0.033,0.063,0.047
		c0.002,0.002,0.006,0.004,0.01,0.006c0.018,0.012,0.037,0.023,0.057,0.035c0.008,0.002,0.014,0.004,0.02,0.008
		c0.018,0.008,0.035,0.016,0.053,0.023c0.008,0.002,0.014,0.006,0.021,0.008c0.018,0.006,0.035,0.012,0.055,0.016
		c0.008,0.002,0.014,0.004,0.021,0.006c0.02,0.004,0.039,0.008,0.059,0.012c0.006,0,0.014,0.002,0.021,0.002
		c0.025,0.004,0.053,0.006,0.078,0.006c0.027,0,0.055-0.002,0.08-0.006c0.008,0,0.014-0.002,0.021-0.002
		c0.02-0.004,0.039-0.008,0.059-0.012c0.006-0.002,0.014-0.004,0.021-0.006c0.02-0.004,0.037-0.01,0.055-0.016
		c0.006-0.002,0.014-0.006,0.021-0.008c0.018-0.008,0.035-0.016,0.053-0.023c0.006-0.004,0.012-0.006,0.02-0.008
		c0.02-0.012,0.039-0.023,0.057-0.035c0.004-0.002,0.006-0.004,0.01-0.006c0.021-0.014,0.043-0.029,0.063-0.047
		c0.004-0.004,0.01-0.008,0.014-0.014c0.016-0.012,0.029-0.025,0.041-0.039c0.008-0.006,0.014-0.012,0.02-0.02
		c0.012-0.014,0.021-0.027,0.033-0.041c0.004-0.004,0.006-0.008,0.01-0.012l6.633-9.064c0.09-0.123,0.137-0.27,0.137-0.422v-0.969
		h0.994c0.395,0,0.713-0.32,0.713-0.713C1436.051,287.818,1435.732,287.5,1435.338,287.5L1435.338,287.5z M1426.287,296.779
		l-5.207-7.117v-1.449c0-0.395-0.32-0.713-0.713-0.713h-3.441l-1.877-2.566c1.338-1.141,2.842-2.096,4.469-2.82l6.77,9.25V296.779z
		 M1427,289.924l-6.115-8.355c1.914-0.676,3.973-1.043,6.115-1.043c2.121,0,4.18,0.35,6.119,1.033L1427,289.924z M1427,289.924"/>
	<path d="M1425.574,268.707c0.393,0,0.713-0.32,0.713-0.713s0.318-0.713,0.713-0.713c0.393,0,0.713,0.32,0.713,0.713
		s0.318,0.713,0.713,0.713h3.957c1.232,0,2.234-1.002,2.234-2.234v-2.209c0-1.232-1.002-2.234-2.234-2.234h-10.768
		c-1.232,0-2.234,1.002-2.234,2.234v2.209c0,1.232,1.002,2.234,2.234,2.234H1425.574z M1420.807,266.473v-2.209
		c0-0.445,0.363-0.809,0.809-0.809h10.768c0.445,0,0.809,0.363,0.809,0.809v2.209c0,0.445-0.363,0.809-0.809,0.809h-3.367
		c-0.293-0.83-1.088-1.426-2.016-1.426c-0.93,0-1.723,0.596-2.018,1.426h-3.367C1421.17,267.281,1420.807,266.918,1420.807,266.473
		L1420.807,266.473z M1420.807,266.473"/>
	<path d="M1446.754,284.955v-7.52c0-0.393-0.32-0.713-0.713-0.713h-3.607c-0.395,0-0.715,0.32-0.715,0.713v7.52
		c-3.002,1.057-5.057,3.92-5.057,7.145c0,4.176,3.398,7.574,7.574,7.574c4.178,0,7.574-3.398,7.574-7.574
		C1451.811,288.875,1449.758,286.012,1446.754,284.955L1446.754,284.955z M1444.236,298.248c-3.148,0-5.752-2.381-6.105-5.436h7.264
		c0.395,0,0.713-0.32,0.713-0.713c0-0.395-0.318-0.713-0.713-0.713h-7.264c0.287-2.465,2.053-4.557,4.488-5.219
		c0.311-0.086,0.527-0.367,0.527-0.688v-7.332h2.182v7.332c0,0.32,0.215,0.602,0.525,0.688c2.438,0.662,4.201,2.754,4.488,5.219
		h-2.096c-0.393,0-0.713,0.318-0.713,0.713c0,0.393,0.32,0.713,0.713,0.713h2.096
		C1449.988,295.867,1447.387,298.248,1444.236,298.248L1444.236,298.248z M1444.236,298.248"/>
</g>
<g>
	<path d="M17.844,30.01c0,0.448,0.364,0.813,0.812,0.813h3.244c0.448,0,0.811-0.364,0.811-0.813v-4.866
		c0-0.447-0.362-0.811-0.811-0.811h-3.244c-0.447,0-0.812,0.363-0.812,0.811V30.01z M19.466,25.955h1.622v3.244h-1.622V25.955z
		 M19.466,25.955"/>
	<path d="M18.655,21.088h3.244c0.448,0,0.811-0.363,0.811-0.811V15.41c0-0.447-0.362-0.811-0.811-0.811h-3.244
		c-0.447,0-0.812,0.363-0.812,0.811v4.867C17.844,20.725,18.208,21.088,18.655,21.088L18.655,21.088z M19.466,16.223h1.622v3.244
		h-1.622V16.223z M19.466,16.223"/>
	<path d="M12.584,15.295l11.749-7.049l11.748,7.049c0.131,0.079,0.275,0.115,0.417,0.115c0.275,0,0.544-0.14,0.696-0.393
		c0.23-0.385,0.106-0.883-0.277-1.113L25.144,6.841V1.622h4.056v1.622h-2.433c-0.448,0-0.812,0.363-0.812,0.812
		s0.363,0.812,0.812,0.812h3.244c0.447,0,0.811-0.363,0.811-0.812V0.812C30.821,0.363,30.458,0,30.011,0h-5.678
		c-0.448,0-0.812,0.363-0.812,0.812v6.029l-11.772,7.063c-0.384,0.23-0.509,0.729-0.277,1.113C11.7,15.4,12.2,15.525,12.584,15.295
		L12.584,15.295z M12.584,15.295"/>
	<path d="M8.922,30.822c0.448,0,0.812-0.364,0.812-0.813v-4.865c0-0.448-0.363-0.812-0.812-0.812H5.678
		c-0.447,0-0.812,0.363-0.812,0.812v1.621c0,0.448,0.364,0.812,0.812,0.812s0.811-0.363,0.811-0.812v-0.811H8.11v4.055
		C8.11,30.458,8.474,30.822,8.922,30.822L8.922,30.822z M8.922,30.822"/>
	<path d="M14.6,41.365V17.844c0-0.447-0.363-0.811-0.811-0.811c-0.448,0-0.812,0.363-0.812,0.811v23.521
		c0,0.448,0.363,0.813,0.812,0.813C14.236,42.178,14.6,41.813,14.6,41.365L14.6,41.365z M14.6,41.365"/>
	<path d="M10.544,45.421h27.577c0.448,0,0.812-0.363,0.812-0.811c0-0.448-0.363-0.812-0.812-0.812h-7.3v-8.11h0.811
		c0.448,0,0.812-0.364,0.812-0.812s-0.363-0.811-0.812-0.811h-14.6c-0.447,0-0.811,0.363-0.811,0.811s0.363,0.812,0.811,0.812h0.812
		v8.11h-7.3c-0.447,0-0.811,0.363-0.811,0.811C9.733,45.058,10.097,45.421,10.544,45.421L10.544,45.421z M25.144,40.555
		c0.448,0,0.812-0.363,0.812-0.811c0-0.448-0.363-0.812-0.812-0.812v-3.244h4.056v8.11h-4.056V40.555z M19.466,35.688h4.056v3.244
		c-0.447,0-0.811,0.363-0.811,0.812c0,0.447,0.363,0.811,0.811,0.811v3.244h-4.056V35.688z M19.466,35.688"/>
	<path d="M42.987,34.877h-3.244c-0.447,0-0.811,0.363-0.811,0.811v4.867c0,0.447,0.363,0.811,0.811,0.811h3.244
		c0.448,0,0.812-0.363,0.812-0.811v-4.867C43.799,35.24,43.436,34.877,42.987,34.877L42.987,34.877z M42.177,39.744h-1.622v-3.245
		h1.622V39.744z M42.177,39.744"/>
	<path d="M42.987,25.144h-3.244c-0.447,0-0.811,0.364-0.811,0.812v4.867c0,0.447,0.363,0.811,0.811,0.811h3.244
		c0.448,0,0.812-0.363,0.812-0.811v-4.867C43.799,25.508,43.436,25.144,42.987,25.144L42.987,25.144z M42.177,30.01h-1.622v-3.244
		h1.622V30.01z M42.177,30.01"/>
	<path d="M41.365,47.043H7.3c-0.447,0-0.812,0.363-0.812,0.812c0,0.447,0.364,0.812,0.812,0.812h34.065
		c0.448,0,0.812-0.363,0.812-0.812S41.813,47.043,41.365,47.043L41.365,47.043z M41.365,47.043"/>
	<path d="M47.854,17.844c-0.448,0-0.812,0.363-0.812,0.812v0.812h-8.922c-0.447,0-0.811,0.363-0.811,0.811s0.363,0.811,0.811,0.811
		h8.922v26.767c0,0.447,0.363,0.812,0.812,0.812c0.447,0,0.811-0.364,0.811-0.812V18.655C48.665,18.207,48.302,17.844,47.854,17.844
		L47.854,17.844z M47.854,17.844"/>
	<path d="M25.955,30.01c0,0.448,0.363,0.813,0.812,0.813h3.244c0.447,0,0.811-0.364,0.811-0.813v-4.866
		c0-0.447-0.363-0.811-0.811-0.811h-3.244c-0.448,0-0.812,0.363-0.812,0.811V30.01z M27.577,25.955h1.622v3.244h-1.622V25.955z
		 M27.577,25.955"/>
	<path d="M8.11,39.744c0-0.105-0.046-10.545-4.055-10.545S0,39.639,0,39.744c0,1.958,1.396,3.596,3.244,3.973v4.138
		c0,0.448,0.363,0.812,0.812,0.812c0.447,0,0.811-0.363,0.811-0.812v-4.138C6.715,43.34,8.11,41.702,8.11,39.744L8.11,39.744z
		 M4.056,42.178c-1.342,0-2.434-1.093-2.434-2.434c0-4.041,1.086-8.922,2.434-8.922s2.433,4.881,2.433,8.922
		C6.488,41.085,5.397,42.178,4.056,42.178L4.056,42.178z M4.056,42.178"/>
	<path d="M35.688,41.365V17.033c0-0.447-0.363-0.811-0.812-0.811s-0.811,0.363-0.811,0.811v24.332c0,0.448,0.362,0.813,0.811,0.813
		S35.688,41.813,35.688,41.365L35.688,41.365z M35.688,41.365"/>
	<path d="M26.767,21.088h3.244c0.447,0,0.811-0.363,0.811-0.811V15.41c0-0.447-0.363-0.811-0.811-0.811h-3.244
		c-0.448,0-0.812,0.363-0.812,0.811v4.867C25.955,20.725,26.318,21.088,26.767,21.088L26.767,21.088z M27.577,16.223h1.622v3.244
		h-1.622V16.223z M27.577,16.223"/>
	<path d="M0.812,28.389c0.447,0,0.811-0.363,0.811-0.812v-6.489h8.922c0.448,0,0.812-0.363,0.812-0.811s-0.363-0.811-0.812-0.811
		H1.622v-0.811c0-0.449-0.363-0.813-0.811-0.813C0.363,17.844,0,18.207,0,18.655v8.922C0,28.025,0.363,28.389,0.812,28.389
		L0.812,28.389z M0.812,28.389"/>
</g>
<g>
	<path d="M1437.926,372.6c-0.403-0.103-0.812,0.145-0.912,0.547l-0.752,3.008c-0.102,0.404,0.145,0.813,0.548,0.913
		c0.061,0.016,0.122,0.022,0.183,0.022c0.338,0,0.643-0.228,0.729-0.569l0.753-3.009
		C1438.574,373.108,1438.328,372.7,1437.926,372.6L1437.926,372.6z M1437.926,372.6"/>
	<path d="M1428.717,357.532c0.098,0,0.195-0.019,0.287-0.057l8.275-3.424c0.383-0.159,0.565-0.599,0.406-0.982
		c-0.158-0.385-0.6-0.565-0.982-0.407l-7.986,3.305l-21.061-8.715v-0.25c0-0.415-0.338-0.752-0.752-0.752
		c-0.416,0-0.753,0.337-0.753,0.752v0.752c0,0.305,0.184,0.58,0.465,0.695l21.813,9.026
		C1428.521,357.514,1428.619,357.532,1428.717,357.532L1428.717,357.532z M1428.717,357.532"/>
	<path d="M1437.666,365.239c-0.184-0.372-0.634-0.526-1.008-0.342c-1.428,0.706-3.814,1.528-7.188,1.64v-6.748
		c0-0.415-0.337-0.752-0.753-0.752c-0.415,0-0.752,0.337-0.752,0.752v6.742c-9.34-0.299-12.354-5.956-12.787-6.898v-5.108
		c0-0.416-0.337-0.753-0.752-0.753s-0.752,0.337-0.752,0.753v5.265c0,0.096,0.018,0.19,0.053,0.28
		c0.131,0.325,3.332,7.994,14.99,7.994c4.075,0,6.931-0.988,8.607-1.817C1437.697,366.063,1437.851,365.611,1437.666,365.239
		L1437.666,365.239z M1437.666,365.239"/>
	<path d="M1440,373.329c-0.416,0-0.752,0.337-0.752,0.752v2.257c0,0.415,0.336,0.752,0.752,0.752s0.752-0.337,0.752-0.752v-2.257
		C1440.752,373.666,1440.416,373.329,1440,373.329L1440,373.329z M1440,373.329"/>
	<path d="M1450.531,346.25c-0.416,0-0.752,0.337-0.752,0.752v0.248l-9.027,3.716v-1.359l10.066-4.166
		c0.281-0.116,0.465-0.391,0.465-0.695s-0.184-0.578-0.464-0.694l-21.815-9.027c-0.184-0.075-0.391-0.075-0.574,0l-21.813,9.027
		c-0.281,0.116-0.465,0.39-0.465,0.694c0,0.306,0.184,0.58,0.465,0.695l21.813,9.026c0.092,0.038,0.189,0.058,0.287,0.058
		s0.195-0.02,0.288-0.058l7.888-3.264c0.384-0.158,0.566-0.598,0.408-0.982c-0.16-0.384-0.6-0.565-0.983-0.407l-7.601,3.145
		l-19.846-8.213l19.846-8.212l19.848,8.212l-8.637,3.574l-8.271-3.089c0.043-0.156,0.07-0.317,0.07-0.485
		c0-1.265-1.322-2.256-3.01-2.256c-1.687,0-3.008,0.991-3.008,2.256c0,1.266,1.321,2.257,3.008,2.257
		c0.754,0,1.426-0.205,1.947-0.536l8.584,3.205v18.531c-0.873,0.312-1.504,1.139-1.504,2.118c0,1.244,1.012,2.256,2.256,2.256
		s2.257-1.012,2.257-2.256c0-0.979-0.631-1.807-1.505-2.118v-4.27c2.16-1.63,2.934-3.801,2.968-3.897
		c0.027-0.078,0.042-0.162,0.042-0.245v-5.266c0-0.415-0.337-0.752-0.752-0.752c-0.417,0-0.753,0.337-0.753,0.752v5.126
		c-0.13,0.319-0.583,1.303-1.505,2.272v-9.331l10.065-4.142c0.282-0.116,0.466-0.392,0.466-0.696v-0.752
		C1451.283,346.587,1450.947,346.25,1450.531,346.25L1450.531,346.25z M1428.717,345.497c-0.918,0-1.504-0.444-1.504-0.752
		c0-0.307,0.586-0.752,1.504-0.752c0.919,0,1.505,0.445,1.505,0.752C1430.222,345.053,1429.636,345.497,1428.717,345.497
		L1428.717,345.497z M1440,371.072c-0.415,0-0.752-0.338-0.752-0.752c0-0.415,0.337-0.752,0.752-0.752
		c0.416,0,0.752,0.337,0.752,0.752C1440.752,370.734,1440.416,371.072,1440,371.072L1440,371.072z M1440,371.072"/>
	<path d="M1442.986,373.146c-0.101-0.402-0.51-0.648-0.912-0.547c-0.402,0.101-0.648,0.509-0.547,0.912l0.752,3.009
		c0.086,0.342,0.393,0.569,0.729,0.569c0.061,0,0.122-0.007,0.184-0.022c0.402-0.101,0.648-0.509,0.547-0.913L1442.986,373.146z
		 M1442.986,373.146"/>
</g>
<g>
	<path d="M1410.174,511.269c0.432,0.126,0.884-0.122,1.01-0.555c2.414-8.292,10.139-14.083,18.785-14.083
		c1.384,0,2.76,0.145,4.1,0.43c-0.029,1.174,0.477,1.978,0.803,2.494c0.091,0.144,0.214,0.34,0.229,0.366
		c0,2.923-0.598,3.399-0.592,3.401c-1.32,0-3.488,1.18-4.304,2.701c-0.501,0.934-0.46,1.921,0.113,2.782
		c0.394,0.589,0.731,1.244,1.059,1.879c0.692,1.341,1.462,2.83,2.669,2.83c0.255,0,0.53-0.067,0.828-0.216
		c0.951-0.476,1.633-1.827,2.291-3.133c0.29-0.576,0.717-1.42,0.969-1.688c0.828,0.112,1.232,0.86,1.779,2.046
		c0.402,0.872,0.818,1.773,1.637,2.182c1.377,0.689,5.907-0.032,8.41-1.095c0.374-0.159,0.574-0.57,0.468-0.963
		c-1.71-6.325-6.357-11.586-12.432-14.073c-0.417-0.172-0.894,0.028-1.063,0.445c-0.17,0.416,0.029,0.893,0.446,1.063
		c5.38,2.204,9.548,6.765,11.271,12.288c-2.536,0.895-5.792,1.163-6.372,0.877c-0.307-0.153-0.613-0.819-0.885-1.406
		c-0.568-1.231-1.348-2.917-3.334-3.005c-1.027-0.063-1.605,1.12-2.351,2.596c-0.437,0.866-1.097,2.174-1.622,2.433
		c-0.303-0.071-0.902-1.234-1.262-1.929c-0.332-0.643-0.707-1.37-1.15-2.034c-0.24-0.36-0.25-0.702-0.033-1.108
		c0.561-1.045,2.24-1.841,2.867-1.841c1.475,0,2.222-1.692,2.222-5.031c0-0.475-0.243-0.86-0.479-1.234
		c-0.346-0.548-0.702-1.114-0.491-2.08c0.094-0.43-0.17-0.857-0.596-0.965c-1.688-0.425-3.437-0.642-5.195-0.642
		c-9.367,0-17.736,6.274-20.35,15.259C1409.492,510.69,1409.742,511.144,1410.174,511.269L1410.174,511.269z M1410.174,511.269"/>
	<path d="M1439.746,516.616c-0.235,0.067-0.557,0.16-0.643,0.167c-1.127,0-1.841,0.872-2.361,1.508
		c-0.199,0.243-0.559,0.68-0.788,0.686c-0.368-0.184-0.755-0.277-1.15-0.277c-0.962,0-1.794,0.572-1.979,1.361
		c-0.131,0.554,0.063,1.313,0.996,1.779c1.322,0.662,2.691,1.346,3.301,1.955c0.418,0.419,1.143,0.659,1.988,0.659
		c1.284,0,2.99-0.624,3.576-2.383c0.232-0.692,0.785-1.222,1.321-1.734c0.621-0.595,1.208-1.157,1.217-1.963
		c0.005-0.477-0.206-0.931-0.626-1.353c-0.573-0.572-1.354-0.863-2.32-0.863C1441.351,516.158,1440.423,516.424,1439.746,516.616
		L1439.746,516.616z M1443.594,518.352c-0.039,0.16-0.444,0.549-0.715,0.808c-0.615,0.589-1.38,1.321-1.738,2.397
		c-0.402,1.206-1.764,1.268-2.031,1.268c-0.475,0-0.773-0.126-0.835-0.182c-0.798-0.797-2.22-1.508-3.726-2.261
		c-0.004-0.001-0.006-0.002-0.01-0.004c0.154-0.063,0.438-0.067,0.687,0.058c0.263,0.132,0.534,0.198,0.803,0.198
		c0.903,0,1.472-0.696,1.975-1.31c0.367-0.447,0.747-0.911,1.101-0.911c0.289,0,0.625-0.097,1.09-0.229
		c0.617-0.176,1.385-0.396,2.084-0.396c0.526,0,0.908,0.127,1.167,0.386C1443.558,518.288,1443.589,518.352,1443.594,518.352
		L1443.594,518.352z M1443.594,518.352"/>
	<path d="M1450.959,513.26c-0.063-0.446-0.48-0.757-0.919-0.696c-0.446,0.063-0.759,0.474-0.696,0.92
		c0.124,0.896,0.188,1.808,0.188,2.71c0,10.708-8.648,19.434-19.328,19.56c-2.898-1.852-5.615-4.119-4.404-6.941
		c2.173-5.073,0.15-6.963-0.713-7.771l-0.162-0.154c-0.248-0.246-0.526-0.414-0.771-0.562c-0.597-0.357-0.758-0.454-0.438-1.415
		c0.212-0.638,0.494-0.936,0.819-1.28c0.755-0.797,1.33-1.591,1.33-3.896c0-1.342-0.681-2.411-1.866-2.936
		c-1.347-0.596-3.144-0.385-4.094,0.478c-0.594,0.539-0.793,1.273-0.547,2.014c0.58,1.739-0.748,4.255-3.229,6.115
		c-0.656,0.493-0.852,0.267-0.97,0.133c-0.728-0.839-0.671-3.225-0.074-3.821c0.4-0.4,0.519-0.911,0.317-1.366
		c-0.66-1.498-4.871-1.383-5.707-1.343c-0.396,0.019-0.723,0.32-0.771,0.715c-0.104,0.843-0.147,1.582-0.147,2.472
		c0,9.772,6.617,18.231,16.093,20.573c0.435,0.108,0.878-0.159,0.985-0.597c0.108-0.437-0.158-0.878-0.596-0.985
		c-8.745-2.161-14.853-9.972-14.853-18.992c0-0.565,0.02-1.065,0.063-1.574c1.379-0.002,2.551,0.157,3.148,0.341
		c-0.936,1.46-0.832,4.329,0.311,5.646c0.819,0.943,2.008,0.983,3.18,0.104c3.131-2.349,4.621-5.464,3.796-7.936
		c-0.026-0.081-0.052-0.156,0.099-0.293c0.428-0.39,1.52-0.555,2.336-0.192c0.604,0.267,0.896,0.739,0.896,1.445
		c0,1.84-0.371,2.232-0.885,2.775c-0.38,0.403-0.854,0.905-1.182,1.886c-0.732,2.201,0.443,2.907,1.146,3.328
		c0.182,0.109,0.353,0.211,0.458,0.316c0.059,0.059,0.127,0.123,0.201,0.191c0.717,0.67,2.051,1.918,0.328,5.938
		c-1.953,4.557,3.082,7.734,5.232,9.092c0.131,0.081,0.281,0.125,0.436,0.125c11.686,0,21.191-9.507,21.191-21.191
		C1451.16,515.216,1451.093,514.229,1450.959,513.26L1450.959,513.26z M1450.959,513.26"/>
	<path d="M1443.59,534.507c-3.959,2.949-8.669,4.508-13.621,4.508c-12.584,0-22.822-10.237-22.822-22.822
		c0-0.449-0.365-0.814-0.814-0.814c-0.451,0-0.816,0.365-0.816,0.814c0,13.21,10.531,23.999,23.638,24.433v2.465
		c0,0.45,0.365,0.815,0.815,0.815c0.449,0,0.814-0.365,0.814-0.815v-2.478c5.006-0.162,9.757-1.801,13.78-4.798
		c0.36-0.27,0.435-0.779,0.166-1.142C1444.461,534.313,1443.951,534.237,1443.59,534.507L1443.59,534.507z M1443.59,534.507"/>
	<path d="M1430.592,528.025c-1.017,0-2.211,1.17-2.646,2.221c-0.34,0.821-0.239,1.586,0.278,2.104
		c0.486,0.486,1.209,0.766,1.981,0.766s1.495-0.279,1.981-0.766c0.541-0.542,0.674-1.338,0.373-2.239
		c-0.204-0.61-0.606-1.255-1.076-1.726C1431.252,528.153,1430.935,528.025,1430.592,528.025L1430.592,528.025z M1431.035,531.195
		c-0.361,0.362-1.303,0.353-1.654,0.01c-0.012-0.035-0.011-0.239,0.205-0.596c0.281-0.465,0.678-0.792,0.894-0.908
		c0.231,0.274,0.433,0.618,0.534,0.924C1431.104,530.895,1431.112,531.12,1431.035,531.195L1431.035,531.195z M1431.035,531.195"/>
</g>
<g>
	<path d="M1447.37,588.061c-0.422-7.203-6.359-12.957-13.516-12.957c-4.344,0-8.547,2.129-11.157,5.605
		c-0.058-0.031-0.12-0.051-0.183-0.082c-0.155-0.074-0.317-0.148-0.477-0.211c-0.095-0.039-0.191-0.074-0.289-0.105
		c-0.156-0.055-0.316-0.104-0.479-0.147c-0.095-0.028-0.188-0.052-0.285-0.075c-0.177-0.039-0.356-0.07-0.537-0.098
		c-0.086-0.012-0.168-0.027-0.254-0.039c-0.265-0.027-0.53-0.047-0.804-0.047c-3.969,0-7.198,3.23-7.198,7.199
		c0,0.103,0.002,0.203,0.01,0.305c-3.327,1.813-5.612,5.613-5.612,9.418c0,5.669,4.608,10.277,10.276,10.277h4.121
		c0.442,0,0.802-0.358,0.802-0.801c0-0.441-0.359-0.801-0.802-0.801h-4.121c-4.784,0-8.674-3.891-8.674-8.676
		c0-3.324,2.164-6.773,5.144-8.202l0.453-0.216v-0.504c0-0.098,0.008-0.198,0.012-0.301l0.008-0.137l-0.008-0.164
		c-0.008-0.066-0.012-0.133-0.012-0.199c0-3.086,2.512-5.602,5.602-5.602c0.246,0,0.492,0.023,0.734,0.055
		c0.063,0.008,0.125,0.021,0.188,0.027c0.211,0.04,0.422,0.082,0.629,0.145c0.026,0.008,0.058,0.012,0.086,0.021
		c0.226,0.069,0.448,0.159,0.666,0.257c0.056,0.023,0.11,0.051,0.166,0.078c0.194,0.098,0.381,0.199,0.565,0.32
		c1.539,1,2.562,2.73,2.562,4.699c0,0.441,0.36,0.801,0.802,0.801c0.442,0,0.801-0.359,0.801-0.801c0-2.203-0.996-4.176-2.56-5.496
		c2.293-3,6.071-4.901,9.825-4.901c6.195,0,11.344,4.905,11.879,11.108c-0.816-0.059-2.043-0.09-3.266,0.099
		c-0.438,0.065-0.738,0.476-0.672,0.913c0.063,0.395,0.402,0.68,0.793,0.68c0.039,0,0.078-0.004,0.121-0.011
		c1.777-0.271,3.633-0.017,3.746,0c3.727,0.707,6.531,4.136,6.531,7.987c0,4.422-3.598,8.02-8.02,8.02h-3.18
		c-0.441,0-0.801,0.359-0.801,0.801c0,0.442,0.359,0.801,0.801,0.801h3.18c5.305,0,9.621-4.315,9.621-9.621
		C1454.589,593.092,1451.526,589.15,1447.37,588.061L1447.37,588.061z M1447.37,588.061"/>
	<path d="M1437.222,599.67c0.156,0.156,0.363,0.234,0.566,0.234c0.207,0,0.41-0.078,0.566-0.234c0.313-0.313,0.313-0.82,0-1.132
		l-6.398-6.399c-0.074-0.074-0.164-0.133-0.262-0.172c-0.195-0.082-0.415-0.082-0.609,0c-0.101,0.039-0.187,0.098-0.263,0.172
		l-6.397,6.399c-0.313,0.312-0.313,0.819,0,1.132c0.156,0.156,0.358,0.234,0.562,0.234c0.207,0,0.412-0.078,0.567-0.234l5.035-5.035
		v20.137l-5.035-5.035c-0.313-0.313-0.817-0.313-1.129,0c-0.313,0.313-0.313,0.82,0,1.134l6.397,6.397
		c0.076,0.074,0.162,0.133,0.263,0.176c0.098,0.039,0.198,0.059,0.305,0.059c0.101,0,0.207-0.02,0.305-0.059
		c0.098-0.043,0.188-0.102,0.262-0.176l6.398-6.397c0.313-0.313,0.313-0.821,0-1.134s-0.82-0.313-1.133,0l-5.031,5.035v-20.137
		L1437.222,599.67z M1437.222,599.67"/>
</g>
</svg>
