<?xml version="1.0" encoding="utf-8"?>
<!-- Generator: Adobe Illustrator 16.0.3, SVG Export Plug-In . SVG Version: 6.00 Build 0)  -->
<!DOCTYPE svg PUBLIC "-//W3C//DTD SVG 1.1//EN" "http://www.w3.org/Graphics/SVG/1.1/DTD/svg11.dtd">
<svg version="1.1" id="圖層_1" xmlns="http://www.w3.org/2000/svg" xmlns:xlink="http://www.w3.org/1999/xlink" x="0px" y="0px"
	 width="20.943px" height="20.766px" viewBox="0 0 20.943 20.766" enable-background="new 0 0 20.943 20.766" xml:space="preserve">
<g>
	<polygon fill="none" stroke="#000000" stroke-linecap="round" stroke-linejoin="round" stroke-miterlimit="10" points="
		-60.5,174.107 -55.406,171.168 -60.5,168.227 	"/>
	<path fill="none" stroke="#000000" stroke-miterlimit="10" d="M-42.5,171.5c0-4.418-3.582-8-8-8h-16c-4.418,0-8,3.582-8,8l0,0
		c0,4.418,3.582,8,8,8h16C-46.082,179.5-42.5,175.918-42.5,171.5L-42.5,171.5z"/>
</g>
<g>
	<g>
		<path fill="none" stroke="#000000" stroke-miterlimit="10" d="M-81.5,171.5c0-4.418-3.582-8-8-8h-16c-4.418,0-8,3.582-8,8l0,0
			c0,4.418,3.582,8,8,8h16C-85.082,179.5-81.5,175.918-81.5,171.5L-81.5,171.5z"/>
	</g>
	<g>
		<path d="M-97.163,170.532h2.773c0.894,0,0.894,1.21,0,1.267h-2.773v2.792c0,0.409-0.298,0.672-0.671,0.672
			c-0.428,0-0.669-0.263-0.669-0.672v-2.792h-2.774c-0.372,0-0.669-0.298-0.669-0.634c0-0.409,0.297-0.633,0.669-0.633h2.774v-2.813
			c0-0.354,0.241-0.649,0.669-0.649c0.373,0,0.671,0.297,0.671,0.649V170.532z"/>
	</g>
</g>
<g>
	<path d="M-10.803,13.732h-2.141V9.831c0-4.119-3.228-7.499-7.285-7.746V0.496c0-0.273-0.223-0.496-0.496-0.496
		c-0.274,0-0.497,0.223-0.497,0.496v1.583c-4.108,0.194-7.39,3.597-7.39,7.752v2.537c0,0.274,0.222,0.497,0.496,0.497
		c0.273,0,0.496-0.223,0.496-0.497V9.831c0-3.73,3.036-6.768,6.769-6.768h0.146c3.732,0,6.769,3.036,6.769,6.768v3.901h-16.817
		c-0.272,0-0.496,0.223-0.496,0.497v2.879c0,0.273,0.224,0.497,0.496,0.497h19.951c0.274,0,0.496-0.224,0.496-0.497v-2.879
		C-10.307,13.955-10.528,13.732-10.803,13.732L-10.803,13.732z M-11.299,16.611h-18.958v-1.886h18.958V16.611z"/>
	<path d="M-18.987,17.999c-0.274,0-0.497,0.223-0.497,0.496c0,0.704-0.572,1.276-1.275,1.276h-0.036
		c-0.704,0-1.275-0.572-1.275-1.276c0-0.273-0.224-0.496-0.496-0.496c-0.274,0-0.496,0.223-0.496,0.496
		c0,1.251,1.018,2.271,2.269,2.271h0.036c1.251,0,2.27-1.02,2.27-2.271C-18.491,18.221-18.713,17.999-18.987,17.999L-18.987,17.999z
		"/>
</g>
<g>
	<path d="M20.303,16.549c0.233,0,0.422-0.188,0.422-0.421V5.343C20.725,2.396,18.329,0,15.384,0h-0.1
		c-2.209,0-4.108,1.347-4.921,3.263C9.55,1.346,7.65,0,5.442,0h-0.1C2.396,0,0,2.396,0,5.343v14.961
		c0,0.233,0.189,0.423,0.422,0.423H0.43c0.228,0,0.413-0.18,0.422-0.407c0.088-2.43,2.061-4.333,4.49-4.333h0.1
		c2.429,0,4.401,1.903,4.49,4.333c0.008,0.228,0.194,0.407,0.421,0.407h0.018c0.228,0,0.414-0.18,0.421-0.407
		c0.09-2.43,2.063-4.333,4.491-4.333h0.1c2.429,0,4.4,1.903,4.489,4.333c0.009,0.228,0.195,0.407,0.422,0.407h0.009
		c0.233,0,0.422-0.189,0.422-0.423c0-0.036-0.005-0.072-0.014-0.106c-0.071-1.351-0.645-2.609-1.619-3.553
		c-0.999-0.969-2.317-1.501-3.709-1.501h-0.1c-1.393,0-2.71,0.532-3.709,1.501c-0.527,0.51-0.936,1.112-1.212,1.771
		c-0.277-0.659-0.685-1.262-1.212-1.771c-1-0.969-2.317-1.501-3.709-1.501h-0.1c-1.393,0-2.709,0.532-3.71,1.501
		c-0.303,0.293-0.566,0.617-0.789,0.964V5.343c0-2.481,2.018-4.499,4.499-4.499h0.1c2.48,0,4.499,2.018,4.499,4.499v9.449
		c0,0.232,0.188,0.421,0.422,0.421c0.233,0,0.421-0.188,0.421-0.421V5.343c0-2.481,2.019-4.499,4.5-4.499h0.1
		c2.48,0,4.499,2.018,4.499,4.499v10.785C19.883,16.36,20.071,16.549,20.303,16.549L20.303,16.549z M20.303,16.549"/>
</g>
</svg>
