<?xml version="1.0" encoding="utf-8"?>
<!-- Generator: Adobe Illustrator 16.0.0, SVG Export Plug-In . SVG Version: 6.00 Build 0)  -->
<!DOCTYPE svg PUBLIC "-//W3C//DTD SVG 1.1//EN" "http://www.w3.org/Graphics/SVG/1.1/DTD/svg11.dtd">
<svg version="1.1" id="圖層_1" xmlns="http://www.w3.org/2000/svg" xmlns:xlink="http://www.w3.org/1999/xlink" x="0px" y="0px"
	 width="20px" height="20px" viewBox="0 0 20 20" enable-background="new 0 0 20 20" xml:space="preserve">
<g>
	<path fill="#FFFFFF" d="M16.406,5.65H13.34V3.861c0-0.199-0.166-0.361-0.371-0.361H7.031C6.826,3.5,6.66,3.662,6.66,3.861V5.65
		H3.594C3.266,5.65,3,5.912,3,6.23v6.828c0,0.32,0.266,0.582,0.594,0.582H5.92l-0.367,2.357c-0.02,0.127,0.018,0.254,0.102,0.35
		C5.74,16.443,5.863,16.5,5.992,16.5h8.016h0.002c0.246,0,0.445-0.195,0.445-0.436c0-0.041-0.006-0.078-0.016-0.115l-0.359-2.309
		h2.326c0.328,0,0.594-0.262,0.594-0.582V6.23C17,5.912,16.734,5.65,16.406,5.65z M7.4,4.225H12.6V5.65H7.4V4.225z M6.51,15.629
		l0.605-3.883h5.77l0.605,3.883H6.51z M15.813,12.479h-1.914l-0.193-1.234c-0.031-0.213-0.219-0.371-0.439-0.371H6.734
		c-0.221,0-0.406,0.158-0.439,0.371l-0.193,1.234H4.188V6.813h11.625V12.479z"/>
	<path fill="#FFFFFF" d="M6.236,8.748h1.436c0.244,0,0.445-0.193,0.445-0.434S7.916,7.879,7.672,7.879H6.236
		c-0.246,0-0.445,0.195-0.445,0.436S5.99,8.748,6.236,8.748z"/>
</g>
</svg>
