<?xml version="1.0" encoding="utf-8"?>
<!-- Generator: Adobe Illustrator 16.0.0, SVG Export Plug-In . SVG Version: 6.00 Build 0)  -->
<!DOCTYPE svg PUBLIC "-//W3C//DTD SVG 1.1//EN" "http://www.w3.org/Graphics/SVG/1.1/DTD/svg11.dtd">
<svg version="1.1" id="圖層_1" xmlns="http://www.w3.org/2000/svg" xmlns:xlink="http://www.w3.org/1999/xlink" x="0px" y="0px"
	 width="40px" height="40px" viewBox="0 0 40 40" enable-background="new 0 0 40 40" xml:space="preserve">
<g id="instagram_2_">
	<g>
		<path fill-rule="evenodd" clip-rule="evenodd" fill="#FFFFFF" d="M34.584,2.5H5.416C3.806,2.5,2.5,3.806,2.5,5.417v29.166
			c0,1.611,1.306,2.917,2.916,2.917h29.168c1.61,0,2.916-1.306,2.916-2.917V5.417C37.5,3.806,36.194,2.5,34.584,2.5z M35.39,35.362
			H4.729V21.458h8.126c0.678,3.328,3.618,5.834,7.146,5.834s6.468-2.506,7.146-5.834h8.244V35.362z M15.625,20
			c0-2.416,1.958-4.375,4.375-4.375c2.415,0,4.375,1.959,4.375,4.375s-1.96,4.375-4.375,4.375
			C17.583,24.375,15.625,22.416,15.625,20z M35.39,18.542h-8.244c-0.678-3.329-3.618-5.834-7.146-5.834s-6.468,2.505-7.146,5.834
			H4.729V4.701H35.39V18.542z M29.479,12.708c1.208,0,2.188-0.98,2.188-2.187c0-1.209-0.98-2.188-2.188-2.188
			c-1.207,0-2.187,0.979-2.187,2.188C27.292,11.728,28.271,12.708,29.479,12.708z"/>
	</g>
</g>
</svg>
