<?xml version="1.0" encoding="utf-8"?>
<!-- Generator: Adobe Illustrator 16.0.3, SVG Export Plug-In . SVG Version: 6.00 Build 0)  -->
<!DOCTYPE svg PUBLIC "-//W3C//DTD SVG 1.1//EN" "http://www.w3.org/Graphics/SVG/1.1/DTD/svg11.dtd">
<svg version="1.1" id="圖層_1" xmlns="http://www.w3.org/2000/svg" xmlns:xlink="http://www.w3.org/1999/xlink" x="0px" y="0px"
	 width="20.943px" height="20.766px" viewBox="0 0 20.943 20.766" enable-background="new 0 0 20.943 20.766" xml:space="preserve">
<g>
	<path d="M14.163,12.45c-0.046-0.141,0.005-0.293,0.123-0.38l2.654-1.948c0.423-0.31,0.592-0.833,0.431-1.332
		c-0.163-0.498-0.606-0.823-1.132-0.825L12.948,7.95c-0.148,0-0.277-0.095-0.324-0.235l-1.032-3.127
		c-0.164-0.498-0.608-0.819-1.133-0.819S9.49,4.091,9.325,4.589L8.86,5.998C8.786,6.221,8.908,6.463,9.131,6.535
		c0.224,0.074,0.464-0.048,0.538-0.271l0.465-1.409c0.072-0.217,0.267-0.234,0.325-0.234s0.253,0.017,0.325,0.234l1.033,3.127
		c0.161,0.488,0.614,0.817,1.128,0.819l3.293,0.016c0.229,0.001,0.305,0.181,0.323,0.237c0.019,0.054,0.063,0.245-0.123,0.381
		l-2.655,1.948c-0.414,0.303-0.587,0.836-0.431,1.325l1.003,3.139c0.07,0.219-0.077,0.347-0.124,0.381
		c-0.047,0.033-0.214,0.134-0.401,0l-2.673-1.923c-0.417-0.301-0.978-0.301-1.395,0l-2.673,1.923c-0.187,0.135-0.355,0.034-0.401,0
		c-0.047-0.034-0.194-0.162-0.125-0.381l1.002-3.139c0.157-0.489-0.017-1.022-0.431-1.325L4.48,9.436
		C4.295,9.3,4.339,9.109,4.357,9.054c0.018-0.056,0.094-0.236,0.324-0.237l3.293-0.016c0.235,0,0.425-0.192,0.423-0.427
		C8.396,8.14,8.206,7.95,7.972,7.95H7.969L4.677,7.967C4.153,7.969,3.709,8.292,3.547,8.79c-0.162,0.499,0.006,1.022,0.429,1.332
		l2.655,1.948c0.119,0.087,0.168,0.239,0.124,0.38l-1.003,3.138c-0.159,0.499,0.012,1.021,0.436,1.329
		c0.213,0.155,0.457,0.231,0.701,0.231c0.243,0,0.485-0.076,0.697-0.229l2.674-1.924c0.119-0.086,0.28-0.086,0.4,0l2.673,1.924
		c0.426,0.306,0.975,0.305,1.398-0.003c0.425-0.309,0.596-0.83,0.436-1.33L14.163,12.45z M14.163,12.45"/>
	<path d="M10.459,0C4.691,0,0,4.692,0,10.459s4.691,10.459,10.459,10.459c0.234,0,0.426-0.191,0.426-0.425
		c0-0.236-0.191-0.427-0.426-0.427c-5.298,0-9.607-4.311-9.607-9.607s4.31-9.608,9.607-9.608c5.297,0,9.607,4.311,9.607,9.608
		c0,3.298-1.661,6.326-4.445,8.104c-0.198,0.126-0.256,0.391-0.129,0.588c0.125,0.199,0.39,0.256,0.588,0.13
		c3.029-1.935,4.837-5.231,4.837-8.821C20.917,4.692,16.225,0,10.459,0L10.459,0z M10.459,0"/>
</g>
</svg>
