<?xml version="1.0" encoding="utf-8"?>
<!-- Generator: Adobe Illustrator 16.0.0, SVG Export Plug-In . SVG Version: 6.00 Build 0)  -->
<!DOCTYPE svg PUBLIC "-//W3C//DTD SVG 1.1//EN" "http://www.w3.org/Graphics/SVG/1.1/DTD/svg11.dtd">
<svg version="1.1" id="圖層_1" xmlns="http://www.w3.org/2000/svg" xmlns:xlink="http://www.w3.org/1999/xlink" x="0px" y="0px"
	 width="50px" height="50px" viewBox="0 0 50 50" enable-background="new 0 0 50 50" xml:space="preserve">
<g>
	<path fill="none" stroke="#FFFFFF" stroke-width="2" stroke-linejoin="round" stroke-miterlimit="10" d="M30.145,20.032V8.971
		h0.859c0.945,0,1.713-0.757,1.713-1.688V3.909c0-0.931-0.768-1.688-1.713-1.688H18.997c-0.946,0-1.713,0.757-1.713,1.688v3.374
		c0,0.931,0.767,1.688,1.713,1.688h0.858v11.062c-5.51,2.047-9.433,7.267-9.433,13.404c0,7.92,6.527,14.342,14.577,14.342
		c8.051,0,14.577-6.422,14.577-14.342C39.577,27.299,35.651,22.079,30.145,20.032z"/>
	<path fill="none" stroke="#FFFFFF" stroke-width="2" stroke-linejoin="round" stroke-miterlimit="10" d="M10.423,33.437
		c0,0,4.145-2.319,7.575-1.475c4.479,1.098,5.573,3.516,8.715,1.475c3.206-2.076,0.859-2.531,4.291-3.375
		c3.426-0.844,7.716-0.844,7.716-0.844"/>
	<path fill="#FFFFFF" d="M17.284,37.655c0.946,0,1.713,0.755,1.713,1.687c0,0.934-0.767,1.687-1.713,1.687
		c-0.951,0-1.718-0.753-1.718-1.687C15.566,38.41,16.333,37.655,17.284,37.655z"/>
	<path fill="#FFFFFF" d="M24.143,41.028c0.945,0,1.717,0.756,1.717,1.688c0,0.934-0.771,1.688-1.717,1.688
		c-0.948,0-1.715-0.754-1.715-1.688C22.428,41.784,23.194,41.028,24.143,41.028z"/>
	<path fill="#FFFFFF" d="M34.43,30.062c0.951,0,1.718,0.756,1.718,1.688c0,0.93-0.767,1.688-1.718,1.688
		c-0.942,0-1.713-0.758-1.713-1.688C32.717,30.817,33.487,30.062,34.43,30.062z"/>
</g>
</svg>
