<?xml version="1.0" encoding="utf-8"?>
<!-- Generator: Adobe Illustrator 16.0.0, SVG Export Plug-In . SVG Version: 6.00 Build 0)  -->
<!DOCTYPE svg PUBLIC "-//W3C//DTD SVG 1.1//EN" "http://www.w3.org/Graphics/SVG/1.1/DTD/svg11.dtd">
<svg version="1.1" id="圖層_1" xmlns="http://www.w3.org/2000/svg" xmlns:xlink="http://www.w3.org/1999/xlink" x="0px" y="0px"
	 width="12px" height="12px" viewBox="0 0 12 12" enable-background="new 0 0 12 12" xml:space="preserve">
<g id="key">
	<g>
		<path fill-rule="evenodd" clip-rule="evenodd" d="M6.001,0C4.619,0,3.5,1.12,3.5,2.5c0,1.209,0.859,2.217,2,2.449v4.05H5
			c-0.276,0-0.5,0.224-0.5,0.501c0,0.274,0.224,0.499,0.5,0.499h0.5v1h-1c-0.275,0-0.5,0.225-0.5,0.499C4,11.775,4.225,12,4.5,12
			h1.501C6.275,12,6.5,11.775,6.5,11.498V4.949c1.141-0.232,2-1.24,2-2.449C8.5,1.12,7.379,0,6.001,0z M6.001,4
			C5.171,4,4.5,3.327,4.5,2.5c0-0.829,0.671-1.501,1.501-1.501C6.827,0.999,7.5,1.671,7.5,2.5C7.5,3.327,6.827,4,6.001,4z"/>
	</g>
</g>
</svg>
