<?xml version="1.0" encoding="utf-8"?>
<!-- Generator: Adobe Illustrator 16.0.0, SVG Export Plug-In . SVG Version: 6.00 Build 0)  -->
<!DOCTYPE svg PUBLIC "-//W3C//DTD SVG 1.1//EN" "http://www.w3.org/Graphics/SVG/1.1/DTD/svg11.dtd">
<svg version="1.1" xmlns="http://www.w3.org/2000/svg" xmlns:xlink="http://www.w3.org/1999/xlink" x="0px" y="0px" width="612px"
	 height="612px" viewBox="0 0 612 612" enable-background="new 0 0 612 612" xml:space="preserve">
<g id="圖層_1">
</g>
<g id="圖層_2">
	<path fill-rule="evenodd" clip-rule="evenodd" d="M245.196,370.426c8.132,7.651,16.261,14.989,24.037,22.684
		c13.232,13.095,26.252,26.406,39.342,39.644c4.137,4.184,4.169,10.187,0.145,14.077c-4.018,3.883-9.881,3.583-14.072-0.668
		c-20.56-20.851-41.163-41.658-61.647-62.581c-2.113-2.158-3.676-2.603-6.517-1.233c-41.676,20.092-92.544-1.724-106.887-45.73
		c-15.61-47.892,16.688-96.841,67.023-101.58c42.489-3.999,80.754,28.124,84.007,70.524
		C272.496,329.915,265.202,349.11,245.196,370.426z M135.042,312.914c-0.579,30.629,26.638,58.762,59.987,57.743
		c32.052-0.98,58.457-28.565,56.644-61.573c-1.692-30.816-27.921-56.399-61.18-55.233
		C159.957,254.921,134.526,281.479,135.042,312.914z"/>
	<path fill-rule="evenodd" clip-rule="evenodd" d="M329.941,168.092c-10.155,10.715-19.826,21.19-29.798,31.371
		c-10.715,10.939-21.696,21.619-32.595,32.377c-4.167,4.113-10.256,4.059-14.075-0.018c-3.826-4.085-3.432-9.858,0.842-14.069
		c20.858-20.555,41.651-41.176,62.59-61.649c2.241-2.191,2.429-3.769,1.085-6.522c-20.916-42.89,3.653-95.402,49.776-107.918
		c44.34-12.032,90.265,16.973,97.08,63.318c7.005,47.639-30.087,90.127-77.763,89.195
		C365.159,193.748,346.583,185.325,329.941,168.092z M387.604,174.817c32.304,0.18,58.21-25.366,58.979-56.988
		c0.799-32.815-26.453-59.101-57.211-59.761c-33.055-0.709-59.898,27.298-59.635,58.247
		C330.013,148.597,355.392,174.637,387.604,174.817z"/>
	<path fill-rule="evenodd" clip-rule="evenodd" d="M465.923,505.837c-0.088,42.029-35.497,77.269-77.551,77.121
		c-43.284-0.152-78.006-34.364-77.805-77.594c0.204-44.137,33.775-77.469,77.141-77.685
		C433.416,427.453,465.35,463.183,465.923,505.837z M387.688,446.96c-33.063,0.454-58.259,26.493-57.856,59.787
		c0.391,32.271,28.513,58.578,61.269,56.857c31.041-1.631,56.234-27.772,55.425-60.071
		C445.738,472.116,419.448,446.524,387.688,446.96z"/>
</g>
</svg>
