<?xml version="1.0" encoding="utf-8"?>
<!-- Generator: Adobe Illustrator 16.0.0, SVG Export Plug-In . SVG Version: 6.00 Build 0)  -->
<!DOCTYPE svg PUBLIC "-//W3C//DTD SVG 1.1//EN" "http://www.w3.org/Graphics/SVG/1.1/DTD/svg11.dtd">
<svg version="1.1" id="圖層_1" xmlns="http://www.w3.org/2000/svg" xmlns:xlink="http://www.w3.org/1999/xlink" x="0px" y="0px"
	 width="20px" height="20px" viewBox="0 0 20 20" enable-background="new 0 0 20 20" xml:space="preserve">
<path fill="#FFFFFF" d="M16.133,5.159c-0.01-0.01-0.02-0.019-0.029-0.026l-1.549-1.349C14.361,3.603,14.102,3.5,13.816,3.5
	c-0.324,0-0.639,0.13-0.861,0.353c-0.018,0.018-0.033,0.033-0.047,0.052l-1.52,1.918c-0.405,0.434-0.395,1.117,0.027,1.539
	c0.029,0.028,0.059,0.054,0.092,0.075l0.766,0.51c-0.07,0.275-0.484,1.056-1.877,2.447c-1.383,1.383-2.17,1.803-2.449,1.877
	l-0.508-0.764c-0.021-0.034-0.047-0.063-0.074-0.092c-0.211-0.209-0.49-0.325-0.785-0.325c-0.283,0-0.549,0.105-0.756,0.298
	l-1.918,1.518c-0.018,0.015-0.035,0.03-0.051,0.047c-0.447,0.447-0.475,1.175-0.068,1.601l1.348,1.548
	c0.008,0.01,0.018,0.021,0.027,0.03C5.406,16.375,5.783,16.5,6.277,16.5l0,0c1.578,0,4.389-1.211,6.702-3.524
	c1.324-1.324,2.396-2.928,3.021-4.514C16.291,7.72,16.889,5.916,16.133,5.159z M12.135,12.133c-2.19,2.189-4.743,3.173-5.858,3.173
	c-0.168,0-0.252-0.021-0.281-0.032l-1.289-1.48l1.848-1.463l0.492,0.741c0.012,0.016,0.021,0.029,0.033,0.044
	c0.189,0.232,0.469,0.36,0.787,0.36h0.002c0.75,0,1.885-0.754,3.372-2.238c1.523-1.524,2.275-2.68,2.236-3.434
	c-0.016-0.293-0.143-0.551-0.359-0.725c-0.014-0.012-0.029-0.023-0.045-0.033l-0.74-0.494l1.463-1.847l1.482,1.29
	C15.51,6.515,14.771,9.495,12.135,12.133z"/>
</svg>
