<?xml version="1.0" encoding="utf-8"?>
<!-- Generator: Adobe Illustrator 16.0.0, SVG Export Plug-In . SVG Version: 6.00 Build 0)  -->
<!DOCTYPE svg PUBLIC "-//W3C//DTD SVG 1.1//EN" "http://www.w3.org/Graphics/SVG/1.1/DTD/svg11.dtd">
<svg version="1.1" id="圖層_1" xmlns="http://www.w3.org/2000/svg" xmlns:xlink="http://www.w3.org/1999/xlink" x="0px" y="0px"
	 width="29px" height="29px" viewBox="0 0 29 29" enable-background="new 0 0 29 29" xml:space="preserve">
<g>
	<path fill="#373737" stroke="#8F8F8F" stroke-miterlimit="10" d="M28.5,26.5c0,1.104-0.896,2-2,2h-24c-1.104,0-2-0.896-2-2v-24
		c0-1.104,0.896-2,2-2h24c1.104,0,2,0.896,2,2V26.5z"/>
	<g>
		<path fill="#FFFFFF" d="M25.405,12l-0.655,3H20v12h-4V15h-2v-3h2V9.317C16,5.143,18.17,3,21.914,3C23.426,3,24,3,25,3v4
			c0,0-1.179,0-2.114,0C21.229,7,20,7.697,20,9.678V12H25.405z"/>
	</g>
</g>
</svg>
