<?xml version="1.0" encoding="utf-8"?>
<!-- Generator: Adobe Illustrator 16.0.0, SVG Export Plug-In . SVG Version: 6.00 Build 0)  -->
<!DOCTYPE svg PUBLIC "-//W3C//DTD SVG 1.1//EN" "http://www.w3.org/Graphics/SVG/1.1/DTD/svg11.dtd">
<svg version="1.1" id="圖層_1" xmlns="http://www.w3.org/2000/svg" xmlns:xlink="http://www.w3.org/1999/xlink" x="0px" y="0px"
	 width="29px" height="29px" viewBox="0 0 29 29" enable-background="new 0 0 29 29" xml:space="preserve">
<g>
	<path fill="#373737" stroke="#8F8F8F" stroke-miterlimit="10" d="M28.5,26.5c0,1.104-0.896,2-2,2h-24c-1.104,0-2-0.896-2-2v-24
		c0-1.104,0.896-2,2-2h24c1.104,0,2,0.896,2,2V26.5z"/>
	<path fill="#FFFFFF" d="M26.639,14.475c-0.163-0.658-0.518-1.049-1.133-1.163c-2.501-0.467-6.027-0.559-9.79-0.503
		c-3.718-0.056-7.532,0.036-10.034,0.503c-0.614,0.114-1.09,0.505-1.255,1.163c-0.406,1.629-0.51,3.237-0.481,4.652
		c-0.028,1.163,0.075,2.78,0.481,4.409c0.165,0.66,0.641,0.807,1.255,0.92c2.502,0.468,6.316,0.592,10.034,0.535
		c3.763,0.057,7.289,0.029,9.79-0.438c0.615-0.115,0.97-0.374,1.133-1.033c0.405-1.629,0.388-3.23,0.36-4.394
		C27.026,17.712,27.044,16.104,26.639,14.475z"/>
	<g>
		<path fill="#FFFFFF" d="M11.211,7.707v3.627H9.754V7.707l-1.793-5.63h1.611l0.91,3.666l0.924-3.666h1.598L11.211,7.707z"/>
		<path fill="#FFFFFF" d="M16.67,10.709c-0.402,0.56-0.961,0.729-1.625,0.729c-0.662,0-1.223-0.169-1.625-0.729
			c-0.43-0.598-0.48-1.65-0.48-2.808s0.051-2.21,0.48-2.808c0.402-0.56,0.963-0.715,1.625-0.715c0.664,0,1.223,0.155,1.625,0.715
			c0.43,0.598,0.48,1.65,0.48,2.808S17.1,10.111,16.67,10.709z M15.578,5.887C15.461,5.704,15.254,5.6,15.045,5.6
			c-0.207,0-0.416,0.104-0.533,0.287c-0.182,0.312-0.195,1-0.195,2.015s0.014,1.716,0.195,2.028
			c0.117,0.182,0.326,0.273,0.533,0.273c0.209,0,0.416-0.092,0.533-0.273c0.182-0.313,0.195-1.014,0.195-2.028
			S15.76,6.198,15.578,5.887z"/>
		<path fill="#FFFFFF" d="M21.051,11.334v-0.521c-0.117,0.156-0.299,0.338-0.469,0.429c-0.193,0.117-0.441,0.195-0.688,0.195
			c-0.561,0-0.938-0.169-1.248-0.533c-0.273-0.313-0.391-0.689-0.391-1.482V4.482h1.377v4.927c0,0.533,0.301,0.794,0.678,0.794
			s0.676-0.261,0.676-0.794V4.482h1.377v6.852H21.051z"/>
	</g>
	<g>
		<path fill="#373737" d="M9.127,16.255v7.329H7.783v-7.329H6.355v-1.212h4.211v1.212H9.127z"/>
		<path fill="#373737" d="M13.434,23.584v-0.48c-0.107,0.144-0.275,0.313-0.432,0.396c-0.18,0.107-0.406,0.18-0.635,0.18
			c-0.516,0-0.863-0.156-1.152-0.492c-0.252-0.288-0.359-0.636-0.359-1.367v-4.558h1.271v4.546c0,0.491,0.275,0.73,0.623,0.73
			s0.625-0.239,0.625-0.73v-4.546h1.271v6.321H13.434z"/>
		<path fill="#373737" d="M19.289,23.188c-0.287,0.359-0.646,0.492-1.115,0.492c-0.227,0-0.455-0.072-0.635-0.18
			c-0.133-0.072-0.348-0.277-0.42-0.396v0.48h-1.223v-8.541h1.27v2.627c0.098-0.131,0.24-0.264,0.373-0.336
			c0.18-0.107,0.408-0.168,0.635-0.168c0.492,0,0.828,0.145,1.115,0.492c0.42,0.516,0.445,1.391,0.445,2.758
			C19.734,21.784,19.709,22.672,19.289,23.188z M18.283,18.558c-0.109-0.168-0.289-0.264-0.48-0.264
			c-0.156,0-0.324,0.06-0.432,0.168c-0.133,0.132-0.205,0.323-0.205,0.6v2.723c0,0.276,0.072,0.468,0.205,0.6
			c0.107,0.108,0.275,0.155,0.432,0.155c0.191,0,0.371-0.084,0.48-0.252c0.168-0.287,0.18-0.936,0.18-1.871
			C18.463,19.481,18.451,18.846,18.283,18.558z"/>
		<path fill="#373737" d="M21.871,20.789c0,0.719,0.035,1.271,0.191,1.498c0.096,0.145,0.264,0.252,0.492,0.252
			c0.215,0,0.359-0.096,0.479-0.252c0.096-0.119,0.156-0.371,0.156-0.563h1.26c-0.023,0.527-0.168,1.055-0.527,1.451
			c-0.324,0.359-0.816,0.504-1.367,0.504c-0.588,0-0.984-0.133-1.367-0.517c-0.541-0.54-0.588-1.595-0.588-2.747
			c0-1.15,0.047-2.206,0.588-2.746c0.383-0.383,0.84-0.504,1.355-0.504c0.527,0,0.982,0.108,1.354,0.504
			c0.613,0.648,0.564,1.932,0.576,3.119H21.871z M23.021,18.546c-0.107-0.144-0.252-0.252-0.479-0.252
			c-0.229,0-0.373,0.108-0.48,0.252c-0.145,0.18-0.191,0.659-0.191,1.308h1.33C23.201,19.205,23.166,18.726,23.021,18.546z"/>
	</g>
</g>
</svg>
