<?xml version="1.0" encoding="utf-8"?>
<!-- Generator: Adobe Illustrator 16.0.0, SVG Export Plug-In . SVG Version: 6.00 Build 0)  -->
<!DOCTYPE svg PUBLIC "-//W3C//DTD SVG 1.1//EN" "http://www.w3.org/Graphics/SVG/1.1/DTD/svg11.dtd">
<svg version="1.1" id="圖層_1" xmlns="http://www.w3.org/2000/svg" xmlns:xlink="http://www.w3.org/1999/xlink" x="0px" y="0px"
	 width="12px" height="12px" viewBox="0 0 12 12" enable-background="new 0 0 12 12" xml:space="preserve">
<g id="user">
	<g>
		<path fill-rule="evenodd" clip-rule="evenodd" d="M6,6.916c-2.546,0-3.703,2.097-4,4.584h0.9C3.133,9.507,3.955,7.833,6,7.833
			c2.046,0,2.867,1.674,3.1,3.667H10C9.704,9.013,8.547,6.916,6,6.916z M6,6c1.503,0,2.722-1.231,2.722-2.75S7.503,0.5,6,0.5
			S3.279,1.731,3.279,3.25S4.497,6,6,6z M6,1.416c1.002,0,1.814,0.821,1.814,1.834c0,1.012-0.813,1.833-1.814,1.833
			c-1.001,0-1.813-0.821-1.813-1.833C4.187,2.237,4.999,1.416,6,1.416z"/>
	</g>
</g>
</svg>
