<?xml version="1.0" encoding="utf-8"?>
<!-- Generator: Adobe Illustrator 16.0.0, SVG Export Plug-In . SVG Version: 6.00 Build 0)  -->
<!DOCTYPE svg PUBLIC "-//W3C//DTD SVG 1.1//EN" "http://www.w3.org/Graphics/SVG/1.1/DTD/svg11.dtd">
<svg version="1.1" id="圖層_1" xmlns="http://www.w3.org/2000/svg" xmlns:xlink="http://www.w3.org/1999/xlink" x="0px" y="0px"
	 width="20px" height="20px" viewBox="0 0 20 20" enable-background="new 0 0 20 20" xml:space="preserve">
<path fill="#FFFFFF" d="M16.998,5.715c0-0.027-0.004-0.057-0.006-0.084c-0.002-0.02-0.004-0.041-0.006-0.059
	c-0.006-0.025-0.012-0.047-0.02-0.07c-0.006-0.023-0.01-0.047-0.018-0.068c-0.008-0.016-0.016-0.035-0.025-0.055
	c-0.01-0.023-0.02-0.047-0.033-0.07c-0.002-0.006-0.004-0.008-0.006-0.012c-0.008-0.014-0.018-0.025-0.027-0.037
	c-0.014-0.02-0.027-0.041-0.043-0.061c-0.014-0.016-0.027-0.029-0.043-0.043c-0.016-0.016-0.031-0.029-0.047-0.043
	c-0.018-0.012-0.033-0.023-0.051-0.033c-0.018-0.012-0.035-0.023-0.053-0.029c-0.018-0.008-0.035-0.016-0.055-0.021
	c-0.018-0.008-0.037-0.014-0.055-0.018c-0.021-0.006-0.043-0.006-0.064-0.008C16.434,5.002,16.42,5,16.406,5H3.594
	C3.58,5,3.566,5.002,3.555,5.004C3.531,5.006,3.51,5.006,3.488,5.012c-0.018,0.004-0.035,0.01-0.055,0.016
	C3.416,5.036,3.396,5.043,3.379,5.051C3.361,5.057,3.344,5.069,3.328,5.081C3.311,5.09,3.293,5.102,3.275,5.114
	C3.26,5.127,3.244,5.141,3.23,5.155C3.215,5.17,3.199,5.184,3.186,5.202C3.17,5.219,3.156,5.241,3.143,5.258
	c-0.01,0.014-0.02,0.025-0.027,0.039C3.113,5.301,3.111,5.303,3.109,5.309c-0.014,0.023-0.023,0.047-0.033,0.07
	c-0.008,0.02-0.018,0.039-0.025,0.055C3.043,5.456,3.039,5.479,3.033,5.502C3.025,5.524,3.02,5.547,3.016,5.573
	C3.012,5.59,3.01,5.612,3.008,5.631C3.004,5.659,3.002,5.688,3.002,5.715L3,5.729v8.539C3,14.67,3.266,15,3.594,15h12.813
	C16.734,15,17,14.67,17,14.268V5.729L16.998,5.715z M15.24,6.256L10,10.895L4.834,6.256H15.24z M3.977,13.74V6.989l5.672,5.119
	C9.754,12.201,9.877,12.25,10,12.25s0.246-0.049,0.352-0.143l5.682-5.16v6.792H3.977z"/>
</svg>
