<?xml version="1.0" encoding="utf-8"?>
<!-- Generator: Adobe Illustrator 16.0.3, SVG Export Plug-In . SVG Version: 6.00 Build 0)  -->
<!DOCTYPE svg PUBLIC "-//W3C//DTD SVG 1.1//EN" "http://www.w3.org/Graphics/SVG/1.1/DTD/svg11.dtd">
<svg version="1.1" id="圖層_1" xmlns="http://www.w3.org/2000/svg" xmlns:xlink="http://www.w3.org/1999/xlink" x="0px" y="0px"
	 width="20.943px" height="20.765px" viewBox="0 0 20.943 20.765" enable-background="new 0 0 20.943 20.765" xml:space="preserve">
<g>
	<polygon fill="none" stroke="#000000" stroke-linecap="round" stroke-linejoin="round" stroke-miterlimit="10" points="
		-60.5,174.107 -55.406,171.168 -60.5,168.227 	"/>
	<path fill="none" stroke="#000000" stroke-miterlimit="10" d="M-42.5,171.5c0-4.418-3.582-8-8-8h-16c-4.418,0-8,3.582-8,8l0,0
		c0,4.418,3.582,8,8,8h16C-46.082,179.5-42.5,175.918-42.5,171.5L-42.5,171.5z"/>
</g>
<g>
	<g>
		<path fill="none" stroke="#000000" stroke-miterlimit="10" d="M-81.5,171.5c0-4.418-3.582-8-8-8h-16c-4.418,0-8,3.582-8,8l0,0
			c0,4.418,3.582,8,8,8h16C-85.082,179.5-81.5,175.918-81.5,171.5L-81.5,171.5z"/>
	</g>
	<g>
		<path d="M-97.163,170.532h2.773c0.894,0,0.894,1.21,0,1.267h-2.773v2.792c0,0.409-0.298,0.671-0.671,0.671
			c-0.428,0-0.669-0.262-0.669-0.671v-2.792h-2.775c-0.372,0-0.669-0.298-0.669-0.634c0-0.409,0.297-0.633,0.669-0.633h2.775v-2.812
			c0-0.354,0.241-0.65,0.669-0.65c0.373,0,0.671,0.297,0.671,0.65V170.532z"/>
	</g>
</g>
<g>
	<path d="M20.447,13.732h-2.141V9.831c0-4.119-3.227-7.499-7.285-7.746V0.496C11.021,0.222,10.799,0,10.525,0
		c-0.274,0-0.497,0.222-0.497,0.496v1.583C5.92,2.273,2.638,5.676,2.638,9.831v2.537c0,0.274,0.222,0.497,0.497,0.497
		c0.273,0,0.496-0.223,0.496-0.497V9.831c0-3.731,3.036-6.768,6.768-6.768h0.146c3.732,0,6.768,3.036,6.768,6.768v3.901H0.496
		C0.223,13.732,0,13.955,0,14.229v2.879c0,0.274,0.223,0.497,0.496,0.497h19.951c0.274,0,0.496-0.223,0.496-0.497v-2.879
		C20.943,13.955,20.722,13.732,20.447,13.732L20.447,13.732z M19.951,16.611H0.993v-1.886h18.958V16.611z M19.951,16.611"/>
	<path d="M12.263,17.999c-0.274,0-0.497,0.222-0.497,0.496c0,0.704-0.572,1.276-1.275,1.276h-0.036
		c-0.704,0-1.276-0.572-1.276-1.276c0-0.274-0.223-0.496-0.496-0.496c-0.274,0-0.496,0.222-0.496,0.496
		c0,1.251,1.018,2.27,2.269,2.27h0.036c1.251,0,2.269-1.019,2.269-2.27C12.759,18.221,12.537,17.999,12.263,17.999L12.263,17.999z
		 M12.263,17.999"/>
</g>
</svg>
