<?xml version="1.0" encoding="utf-8"?>
<!-- Generator: Adobe Illustrator 16.0.0, SVG Export Plug-In . SVG Version: 6.00 Build 0)  -->
<!DOCTYPE svg PUBLIC "-//W3C//DTD SVG 1.1//EN" "http://www.w3.org/Graphics/SVG/1.1/DTD/svg11.dtd">
<svg version="1.1" id="圖層_1" xmlns="http://www.w3.org/2000/svg" xmlns:xlink="http://www.w3.org/1999/xlink" x="0px" y="0px"
	 width="20px" height="20px" viewBox="0 0 20 20" enable-background="new 0 0 20 20" xml:space="preserve">
<g>
	<path fill="#FFFFFF" d="M17.303,9.412l-6.824-6.232C10.352,3.064,10.18,3,10,3c-0.178,0-0.352,0.064-0.477,0.18L2.697,9.412
		c-0.264,0.242-0.264,0.633,0,0.873c0.266,0.242,0.691,0.242,0.955,0L10,4.49l6.348,5.795c0.131,0.121,0.305,0.18,0.477,0.18
		c0.174,0,0.346-0.059,0.479-0.18C17.566,10.044,17.566,9.654,17.303,9.412z"/>
	<path fill="#FFFFFF" d="M14.701,9.826c-0.373,0-0.674,0.275-0.674,0.617v5.325h-1.729V12.02c0-0.34-0.303-0.615-0.674-0.615H8.377
		c-0.373,0-0.676,0.275-0.676,0.615v3.748H5.975v-5.325c0-0.342-0.303-0.617-0.676-0.617s-0.676,0.275-0.676,0.617v5.94
		C4.623,16.725,4.926,17,5.299,17h3.078c0.373,0,0.676-0.275,0.676-0.617v-3.746h1.895v3.746c0,0.342,0.303,0.617,0.678,0.617h3.076
		c0.373,0,0.676-0.275,0.676-0.617v-5.94C15.377,10.101,15.074,9.826,14.701,9.826z"/>
</g>
</svg>
