<?xml version="1.0" encoding="utf-8"?>
<!-- Generator: Adobe Illustrator 16.0.0, SVG Export Plug-In . SVG Version: 6.00 Build 0)  -->
<!DOCTYPE svg PUBLIC "-//W3C//DTD SVG 1.1//EN" "http://www.w3.org/Graphics/SVG/1.1/DTD/svg11.dtd">
<svg version="1.1" id="圖層_1" xmlns="http://www.w3.org/2000/svg" xmlns:xlink="http://www.w3.org/1999/xlink" x="0px" y="0px"
	 width="21.189px" height="21.07px" viewBox="0 0 21.189 21.07" enable-background="new 0 0 21.189 21.07" xml:space="preserve">
<g>
	<path fill="#FFFFFF" d="M16.285,17.652c-0.289,0-0.481-0.193-0.481-0.482c0-0.29,0.192-0.481,0.481-0.481s0.481,0.191,0.481,0.481
		C16.766,17.459,16.574,17.652,16.285,17.652L16.285,17.652z M20.05,5.539l-8.397-3.088c-0.916-0.338-1.93-0.338-2.847,0
		l-7.866,3.04C0.263,5.732-0.123,6.36-0.123,7.035S0.311,8.29,0.939,8.531l8.396,3.088c0.436,0.146,0.917,0.241,1.4,0.241
		c0.482,0,0.965-0.097,1.352-0.29l1.931-0.723c0.24-0.098,0.387-0.387,0.29-0.627c-0.098-0.242-0.387-0.387-0.628-0.29l-1.931,0.725
		c-0.628,0.241-1.352,0.241-2.076,0l-8.396-3.04C0.89,7.469,0.843,7.132,0.843,7.035S0.89,6.552,1.277,6.408l7.866-2.992
		c0.676-0.241,1.447-0.289,2.172,0l8.396,3.089c0.29,0.049,0.436,0.241,0.436,0.531s-0.193,0.531-0.482,0.627l-3.378,1.303
		L11.17,6.892c-0.145-0.193-0.48-0.338-0.916-0.338l0,0l0,0c-0.53,0-0.965,0.241-0.965,0.482c0,0.242,0.386,0.435,0.869,0.483
		l5.646,2.268v5.984c-0.579,0.192-0.967,0.724-0.967,1.351c0,0.82,0.628,1.447,1.448,1.447s1.448-0.627,1.448-1.447
		c0-0.531-0.291-1.014-0.772-1.255c0.387-0.24,0.772-0.529,1.062-0.771c0.097-0.097,0.145-0.241,0.145-0.339v-3.859
		c0-0.29-0.191-0.482-0.481-0.482s-0.482,0.192-0.482,0.482v3.619c-0.145,0.145-0.29,0.24-0.482,0.338V9.834l3.232-1.206
		c0.676-0.24,1.11-0.869,1.11-1.544C21.111,6.36,20.676,5.781,20.05,5.539L20.05,5.539z"/>
	<path fill="#FFFFFF" d="M13.293,16.349c-0.966,0.239-1.93,0.338-2.798,0.338c-2.413,0-5.261-0.917-6.757-2.172v-3.619
		c0-0.29-0.193-0.482-0.482-0.482s-0.481,0.192-0.481,0.482v3.859c0,0.146,0.048,0.29,0.144,0.339
		c1.882,1.688,5.212,2.558,7.578,2.558c0.916,0,1.979-0.146,2.992-0.386c0.241-0.05,0.435-0.338,0.337-0.579
		C13.775,16.445,13.534,16.253,13.293,16.349L13.293,16.349z"/>
</g>
</svg>
