<?xml version="1.0" encoding="utf-8"?>
<!-- Generator: Adobe Illustrator 16.0.0, SVG Export Plug-In . SVG Version: 6.00 Build 0)  -->
<!DOCTYPE svg PUBLIC "-//W3C//DTD SVG 1.1//EN" "http://www.w3.org/Graphics/SVG/1.1/DTD/svg11.dtd">
<svg version="1.1" id="圖層_1" xmlns="http://www.w3.org/2000/svg" xmlns:xlink="http://www.w3.org/1999/xlink" x="0px" y="0px"
	 width="12px" height="12px" viewBox="0 0 12 12" enable-background="new 0 0 12 12" xml:space="preserve">
<g>
	<path fill-rule="evenodd" clip-rule="evenodd" fill="#101010" d="M6,0.5c-2.762,0-5,2.239-5,5c0,1.116,0.322,2.109,0.984,2.979
		C2.578,9.258,5.359,11.5,6,11.5c0.703,0,3.391-2.211,4.017-3.022C10.76,7.515,11,6.615,11,5.5C11,2.739,8.762,0.5,6,0.5z M6,10.508
		c-0.375,0-1.983-1.367-2.668-2.027C2.406,7.586,2,6.684,2,5.5c0-2.208,1.791-4,4-4s4,1.792,4,4c0,1.184-0.422,2.102-1.332,2.979
		C7.983,9.138,6.391,10.508,6,10.508z"/>
	<path fill-rule="evenodd" clip-rule="evenodd" fill="#101010" d="M6,3C4.619,3,3.5,4.119,3.5,5.5S4.619,8,6,8s2.5-1.119,2.5-2.5
		S7.381,3,6,3z M6,7C5.172,7,4.5,6.329,4.5,5.5S5.172,4,6,4s1.5,0.671,1.5,1.5S6.828,7,6,7z"/>
</g>
</svg>
