<?xml version="1.0" encoding="utf-8"?>
<!-- Generator: Adobe Illustrator 16.0.0, SVG Export Plug-In . SVG Version: 6.00 Build 0)  -->
<!DOCTYPE svg PUBLIC "-//W3C//DTD SVG 1.1//EN" "http://www.w3.org/Graphics/SVG/1.1/DTD/svg11.dtd">
<svg version="1.1" id="圖層_1" xmlns="http://www.w3.org/2000/svg" xmlns:xlink="http://www.w3.org/1999/xlink" x="0px" y="0px"
	 width="50px" height="50px" viewBox="0 0 50 50" enable-background="new 0 0 50 50" xml:space="preserve">
<g>
	<path fill="none" stroke="#323232" stroke-width="2" stroke-miterlimit="10" d="M16.95,37.785l15.911-2.256
		c0-4.912,6.818-10.966,6.818-19.272c0-8.048-6.572-14.572-14.68-14.572c-8.108,0-14.68,6.524-14.68,14.572
		c0,8.232,6.63,14.284,6.63,19.198V37.785z"/>
	<line fill="none" stroke="#323232" stroke-width="2" stroke-miterlimit="10" x1="18.027" y1="41.029" x2="32.561" y2="38.844"/>
	<line fill="none" stroke="#323232" stroke-width="2" stroke-miterlimit="10" x1="18.027" y1="43.943" x2="32.561" y2="41.758"/>
	<path fill="none" stroke="#323232" stroke-width="2" stroke-miterlimit="10" d="M30.651,46.129c0,1.207-2.431,2.186-5.431,2.186
		s-5.432-0.979-5.432-2.186"/>
	<path fill="none" stroke="#323232" stroke-width="2" stroke-linejoin="round" stroke-miterlimit="10" d="M23.011,32.381
		c0-9.327-2.708-12.627-2.708-12.627c0,1.288,1.053,2.332,2.349,2.332c1.298,0,2.35-1.044,2.35-2.332
		c0,1.288,1.052,2.332,2.35,2.332c1.296,0,2.349-1.044,2.349-2.332c0,0-2.141,5.049-2.141,12.627"/>
</g>
</svg>
