<?xml version="1.0" encoding="utf-8"?>
<!-- Generator: Adobe Illustrator 16.0.0, SVG Export Plug-In . SVG Version: 6.00 Build 0)  -->
<!DOCTYPE svg PUBLIC "-//W3C//DTD SVG 1.1//EN" "http://www.w3.org/Graphics/SVG/1.1/DTD/svg11.dtd">
<svg version="1.1" id="圖層_1" xmlns="http://www.w3.org/2000/svg" xmlns:xlink="http://www.w3.org/1999/xlink" x="0px" y="0px"
	 width="12px" height="12px" viewBox="0 0 12 12" enable-background="new 0 0 12 12" xml:space="preserve">
<path fill="#002D5A" d="M6,0.5C2.967,0.5,0.5,2.967,0.5,6c0,3.032,2.467,5.5,5.5,5.5c3.032,0,5.5-2.468,5.5-5.5
	C11.5,2.967,9.032,0.5,6,0.5z M6,11c-2.762,0-5-2.239-5-5.001C1,3.238,3.238,1,6,1c2.761,0,5,2.238,5,4.999C11,8.761,8.761,11,6,11z
	"/>
<path fill="#002D5A" d="M9.847,5.65H6.35V2.153C6.232,2.142,6.12,2.118,6,2.118S5.768,2.142,5.65,2.153V5.65H2.153
	C2.143,5.767,2.118,5.879,2.118,5.999c0,0.12,0.025,0.233,0.035,0.351H5.65v3.496C5.768,9.856,5.88,9.881,6,9.881
	s0.232-0.024,0.35-0.035V6.35h3.497c0.011-0.118,0.035-0.231,0.035-0.351C9.882,5.879,9.857,5.767,9.847,5.65z"/>
</svg>
