<?xml version="1.0" encoding="utf-8"?>
<!-- Generator: Adobe Illustrator 16.0.0, SVG Export Plug-In . SVG Version: 6.00 Build 0)  -->
<!DOCTYPE svg PUBLIC "-//W3C//DTD SVG 1.1//EN" "http://www.w3.org/Graphics/SVG/1.1/DTD/svg11.dtd">
<svg version="1.1" id="圖層_1" xmlns="http://www.w3.org/2000/svg" xmlns:xlink="http://www.w3.org/1999/xlink" x="0px" y="0px"
	 width="20px" height="20px" viewBox="0 0 20 20" enable-background="new 0 0 20 20" xml:space="preserve">
<g opacity="0.9">
	
		<path fill="none" stroke="#FFFFFF" stroke-width="0.75" stroke-linecap="round" stroke-linejoin="round" stroke-miterlimit="10" d="
		M15.073,7.493h-3.837c-0.248,0-0.452-0.187-0.452-0.416V3.775"/>
	
		<path fill="none" stroke="#FFFFFF" stroke-width="0.75" stroke-linecap="round" stroke-linejoin="round" stroke-miterlimit="10" d="
		M15.073,12.906v3.111c0,0.229-0.201,0.414-0.451,0.414H4.915c-0.248,0-0.451-0.187-0.451-0.414V3.983
		c0-0.229,0.203-0.416,0.451-0.416h5.853l4.307,3.753v3.096"/>
	
		<line fill="none" stroke="#FFFFFF" stroke-width="0.75" stroke-linecap="round" stroke-linejoin="round" stroke-miterlimit="10" x1="6.497" y1="7.095" x2="9.431" y2="7.095"/>
	
		<line fill="none" stroke="#FFFFFF" stroke-width="0.75" stroke-linecap="round" stroke-linejoin="round" stroke-miterlimit="10" x1="6.497" y1="9.171" x2="13.493" y2="9.171"/>
	
		<line fill="none" stroke="#FFFFFF" stroke-width="0.75" stroke-linecap="round" stroke-linejoin="round" stroke-miterlimit="10" x1="6.497" y1="10.623" x2="12.354" y2="10.623"/>
	
		<line fill="none" stroke="#FFFFFF" stroke-width="0.75" stroke-linecap="round" stroke-linejoin="round" stroke-miterlimit="10" x1="6.497" y1="12.49" x2="10.784" y2="12.49"/>
	
		<line fill="none" stroke="#FFFFFF" stroke-width="0.75" stroke-linecap="round" stroke-linejoin="round" stroke-miterlimit="10" x1="6.497" y1="13.736" x2="9.431" y2="13.736"/>
	<g>
		
			<path fill="none" stroke="#FFFFFF" stroke-width="0.75" stroke-linecap="round" stroke-linejoin="round" stroke-miterlimit="10" d="
			M12.673,15.002c-0.098,0.089-0.254,0.089-0.354,0l-0.185-0.643l-0.696-0.172c-0.097-0.088-0.097-0.232,0-0.32l4.584-4.215
			c0.102-0.091,0.256-0.091,0.354,0l0.883,0.811c0.097,0.089,0.097,0.234,0,0.324L12.673,15.002z"/>
		
			<polyline fill="none" stroke="#FFFFFF" stroke-width="0.75" stroke-linecap="round" stroke-linejoin="round" stroke-miterlimit="10" points="
			11.354,13.949 9.995,16.434 12.585,15.082 		"/>
		
			<line fill="none" stroke="#FFFFFF" stroke-width="0.75" stroke-linecap="round" stroke-linejoin="round" stroke-miterlimit="10" x1="15.495" y1="10.139" x2="16.729" y2="11.273"/>
	</g>
</g>
</svg>
