<?xml version="1.0" encoding="utf-8"?>
<!-- Generator: Adobe Illustrator 16.0.0, SVG Export Plug-In . SVG Version: 6.00 Build 0)  -->
<!DOCTYPE svg PUBLIC "-//W3C//DTD SVG 1.1//EN" "http://www.w3.org/Graphics/SVG/1.1/DTD/svg11.dtd">
<svg version="1.1" id="圖層_1" xmlns="http://www.w3.org/2000/svg" xmlns:xlink="http://www.w3.org/1999/xlink" x="0px" y="0px"
	 width="20px" height="20px" viewBox="0 0 20 20" enable-background="new 0 0 20 20" xml:space="preserve">
<g opacity="0.9">
	<circle fill="none" stroke="#646464" stroke-width="0.75" stroke-miterlimit="10" cx="9.999" cy="10.198" r="6.433"/>
	<path fill="none" stroke="#646464" stroke-width="0.75" stroke-miterlimit="10" d="M9.999,3.972c0,0-0.207,0.208-0.415,0.415
		C9.377,4.594,8.962,4.594,9.17,4.802C9.377,5.01,9.377,5.217,9.377,5.217L9.17,5.424c0,0,0,0.208-0.417,0.415
		c-0.414,0.208-0.414,0-0.621,0.208C7.924,6.254,7.924,6.254,7.716,6.254c-0.207,0-0.207,0.208-0.414,0.208c-0.209,0,0-0.83,0-0.83
		l0.414-0.208l0.416-0.208h0.207c0,0,0-0.415-0.207-0.415c-0.208,0-0.208,0-0.208,0s0-0.208-0.208-0.416
		C7.509,4.179,7.509,4.179,7.509,4.179"/>
	<path fill="none" stroke="#646464" stroke-width="0.75" stroke-miterlimit="10" d="M5.849,5.839L6.056,6.67L5.849,7.084
		c0,0-0.415,0-0.415,0.416c0,0.415-0.208,0,0,0.415c0.207,0.416,0,0.622,0,0.622v0.208V9.16H4.812c0,0,0,0-0.208,0
		c-0.209,0-0.209,0.208-0.209,0.208s0-0.208-0.206,0C3.98,9.575,3.98,9.575,3.98,9.783c0,0.208,0,0.208,0,0.208l-0.207,0.415
		l-0.208,0.208"/>
	<path fill="none" stroke="#646464" stroke-width="0.75" stroke-miterlimit="10" d="M4.188,11.235
		c0.206,0.208,0.415,0.208,0.415,0.208s0.415-0.208,0.622,0c0.208,0.207,0.208,0.623,0.208,0.623v0.207c0,0,0.415,0.622,0.622,0.622
		s0.207,0,0.207,0s0.209,0.209,0.416,0.209c0.208,0,0.414,0.206,0.414,0.206s0.209,0.622,0,0.622c-0.206,0-0.206,0.209-0.206,0.209
		s0,0.83,0.415,1.037c0.414,0.209,0.83,0.415,1.037,0.623c0.208,0.207,0.414,0,0.414,0.207c0,0.208,0.417,0.622,1.246,0.622"/>
	<path fill="none" stroke="#646464" stroke-width="0.75" stroke-miterlimit="10" d="M16.435,10.82c0,0-0.624-0.622-0.624-0.415
		c0,0.208-0.207,0.415-0.207,0.83s-0.207,1.038-0.207,1.038l-0.416-0.415l0.208-1.038l-0.623-0.622H14.15
		c0,0,0.207,0.415,0.207,0.622s0,0.83,0,0.83s-0.414,0.831-0.414,1.038s-0.209,0-0.415,0.416c-0.209,0.415-0.415,0.415-0.623,0.828
		c-0.208,0.416-0.623,0.624-0.83,1.039c-0.208,0.416-0.415,0.207-0.415,0c0-0.208-0.415-0.623-0.208-0.83
		c0.208-0.209,0-0.415,0.208-0.622c0.207-0.209,0.415-0.209,0.207-0.415c-0.207-0.209-0.415-0.209-0.415-0.416s0-0.83,0-0.83
		s-0.415-0.623-0.622-0.415c-0.209,0.207-0.415,0.415-0.415,0.415l-0.831-0.623l0.415-1.037L9.792,9.368
		c0,0,0.623-0.623,0.623-0.831c0-0.207,0.206-0.415,0.206-0.415c-0.206-0.83-0.206-0.83-0.206-0.83s-0.208-0.208,0.206,0
		c0.416,0.207,0.624,0.622,0.624,0.622l0.622-0.208c0,0,0,0,0-0.208c0-0.207,0.208-0.623,0.415-0.623c0.208,0,0.415,0,0.415,0
		l0.831-0.831c0,0-0.831-0.208-0.831-0.415c0-0.208,0-0.416,0.208-0.623c0.208-0.208,0.623-0.208,0.623-0.208"/>
</g>
</svg>
