<?xml version="1.0" encoding="utf-8"?>
<!-- Generator: Adobe Illustrator 16.0.0, SVG Export Plug-In . SVG Version: 6.00 Build 0)  -->
<!DOCTYPE svg PUBLIC "-//W3C//DTD SVG 1.1//EN" "http://www.w3.org/Graphics/SVG/1.1/DTD/svg11.dtd">
<svg version="1.1" id="圖層_1" xmlns="http://www.w3.org/2000/svg" xmlns:xlink="http://www.w3.org/1999/xlink" x="0px" y="0px"
	 width="20px" height="20px" viewBox="0 0 20 20" enable-background="new 0 0 20 20" xml:space="preserve">
<g opacity="0.9">
	<g>
		<path fill="none" stroke="#FFFFFF" stroke-width="0.75" stroke-linecap="round" stroke-miterlimit="10" d="M12.334,12.756
			l-1.82,2.746c-0.05,0.07-0.081,0.128-0.135,0.128h-0.256l0,0c-0.047,0.001-0.087-0.046-0.134-0.127l-1.857-2.739"/>
		
			<line fill="none" stroke="#FFFFFF" stroke-width="0.75" stroke-linecap="round" stroke-miterlimit="10" x1="9.296" y1="12.654" x2="9.296" y2="11.045"/>
		
			<line fill="none" stroke="#FFFFFF" stroke-width="0.75" stroke-linecap="round" stroke-miterlimit="10" x1="11.166" y1="12.654" x2="11.166" y2="11.045"/>
	</g>
	<g>
		<path fill="none" stroke="#FFFFFF" stroke-width="0.75" stroke-linecap="round" stroke-miterlimit="10" d="M6.198,6.415
			C6.876,5.197,8.2,4.37,9.717,4.37c2.215,0,4.011,1.754,4.011,3.919c0,0.304-0.035,0.6-0.105,0.883"/>
		<path fill="none" stroke="#FFFFFF" stroke-width="0.75" stroke-linecap="round" stroke-miterlimit="10" d="M9.296,12.654H5.938
			c-1.755,0-3.178-1.393-3.178-3.107c0-1.718,1.423-3.109,3.178-3.109c0.813,0,1.557,0.3,2.119,0.791"/>
		<path fill="none" stroke="#FFFFFF" stroke-width="0.75" stroke-linecap="round" stroke-miterlimit="10" d="M13.838,7.715
			c0.256-0.082,0.527-0.127,0.811-0.127c1.432,0,2.592,1.134,2.592,2.532c0,1.399-1.16,2.534-2.592,2.534h-3.48"/>
	</g>
</g>
</svg>
