<?xml version="1.0" encoding="utf-8"?>
<!-- Generator: Adobe Illustrator 16.0.0, SVG Export Plug-In . SVG Version: 6.00 Build 0)  -->
<!DOCTYPE svg PUBLIC "-//W3C//DTD SVG 1.1//EN" "http://www.w3.org/Graphics/SVG/1.1/DTD/svg11.dtd">
<svg version="1.1" id="圖層_1" xmlns="http://www.w3.org/2000/svg" xmlns:xlink="http://www.w3.org/1999/xlink" x="0px" y="0px"
	 width="20px" height="20px" viewBox="0 0 20 20" enable-background="new 0 0 20 20" xml:space="preserve">
<g opacity="0.9">
	
		<circle fill="none" stroke="#FFFFFF" stroke-width="0.75" stroke-linecap="round" stroke-linejoin="round" stroke-miterlimit="10" cx="10" cy="10" r="6.433"/>
	
		<path fill="none" stroke="#FFFFFF" stroke-width="0.75" stroke-linecap="round" stroke-linejoin="round" stroke-miterlimit="10" d="
		M10,4.604c2.98,0,5.396,2.416,5.396,5.396"/>
	
		<path fill="none" stroke="#FFFFFF" stroke-width="0.75" stroke-linecap="round" stroke-linejoin="round" stroke-miterlimit="10" d="
		M10,15.396c-2.98,0-5.396-2.414-5.396-5.396"/>
	
		<path fill="none" stroke="#FFFFFF" stroke-width="0.75" stroke-linecap="round" stroke-linejoin="round" stroke-miterlimit="10" d="
		M10.188,12.905H6.672c0-1.558,1.418-1.662,1.843-1.869c0.268-0.131,0.643-0.354,0.643-0.561c0-0.113-0.048-0.182-0.082-0.201
		c-0.523-0.28-0.605-1.212-0.64-1.212c-0.177,0-0.299-0.428-0.299-0.714c0-0.226,0.069-0.222,0.193-0.292
		c0-0.011-0.001-0.021-0.001-0.03c0-0.746,0.483-1.354,1.245-1.354c0.761,0,1.302,0.627,1.302,1.374c0,0.01,0,0.021-0.002,0.031
		c0.123,0.071,0.174,0.104,0.174,0.332c0,0.287-0.104,0.69-0.276,0.69c-0.035,0-0.168,0.885-0.667,1.18
		c-0.033,0.02-0.083,0.072-0.083,0.166c0,0.238,0.389,0.453,0.668,0.59"/>
	
		<polygon fill="none" stroke="#FFFFFF" stroke-width="0.75" stroke-linecap="round" stroke-linejoin="round" stroke-miterlimit="10" points="
		13.809,13.891 13.809,12.856 14.818,12.856 14.818,11.616 13.791,11.616 13.791,10.59 12.553,10.59 12.553,11.616 11.525,11.616 
		11.525,12.856 12.535,12.856 12.535,13.891 	"/>
</g>
</svg>
