<?xml version="1.0" encoding="utf-8"?>
<!-- Generator: Adobe Illustrator 16.0.0, SVG Export Plug-In . SVG Version: 6.00 Build 0)  -->
<!DOCTYPE svg PUBLIC "-//W3C//DTD SVG 1.1//EN" "http://www.w3.org/Graphics/SVG/1.1/DTD/svg11.dtd">
<svg version="1.1" id="圖層_1" xmlns="http://www.w3.org/2000/svg" xmlns:xlink="http://www.w3.org/1999/xlink" x="0px" y="0px"
	 width="20px" height="20px" viewBox="0 0 20 20" enable-background="new 0 0 20 20" xml:space="preserve">
<g opacity="0.9">
	<path fill="none" stroke="#646464" stroke-width="0.75" stroke-linejoin="round" stroke-miterlimit="10" d="M16.756,14.932h-0.241
		v-0.728c0-0.269-0.217-0.485-0.482-0.485h-0.724v-4.37h0.481c0.267,0,0.483-0.218,0.483-0.486V8.134
		c0-0.268-0.217-0.485-0.483-0.485h-0.24V7.406c0-0.268-0.217-0.486-0.482-0.486L10,3.764L4.933,6.92
		c-0.266,0-0.482,0.218-0.482,0.486v0.243H4.209c-0.266,0-0.481,0.217-0.481,0.485v0.729c0,0.268,0.216,0.486,0.481,0.486h0.482
		v4.37H3.969c-0.266,0-0.483,0.217-0.483,0.485v0.728H3.244c-0.266,0-0.482,0.219-0.482,0.486v0.729
		c0,0.269,0.217,0.484,0.482,0.484h13.512c0.267,0,0.482-0.216,0.482-0.484v-0.729C17.238,15.15,17.022,14.932,16.756,14.932z"/>
	
		<circle fill="none" stroke="#646464" stroke-width="0.75" stroke-linejoin="round" stroke-miterlimit="10" cx="10" cy="6.435" r="0.729"/>
	
		<line fill="none" stroke="#646464" stroke-width="0.75" stroke-linejoin="round" stroke-miterlimit="10" x1="4.45" y1="7.649" x2="5.657" y2="7.649"/>
	
		<line fill="none" stroke="#646464" stroke-width="0.75" stroke-linejoin="round" stroke-miterlimit="10" x1="15.55" y1="7.649" x2="14.343" y2="7.649"/>
	
		<line fill="none" stroke="#646464" stroke-width="0.75" stroke-linejoin="round" stroke-miterlimit="10" x1="3.485" y1="14.932" x2="4.209" y2="14.932"/>
	
		<line fill="none" stroke="#646464" stroke-width="0.75" stroke-linejoin="round" stroke-miterlimit="10" x1="16.515" y1="14.932" x2="15.79" y2="14.932"/>
	
		<line fill="none" stroke="#646464" stroke-width="0.75" stroke-linejoin="round" stroke-miterlimit="10" x1="4.933" y1="14.932" x2="15.067" y2="14.932"/>
	
		<rect x="5.897" y="9.349" fill="none" stroke="#646464" stroke-width="0.75" stroke-linejoin="round" stroke-miterlimit="10" width="0.967" height="4.37"/>
	
		<rect x="8.312" y="9.349" fill="none" stroke="#646464" stroke-width="0.75" stroke-linejoin="round" stroke-miterlimit="10" width="0.965" height="4.37"/>
	
		<rect x="10.724" y="9.349" fill="none" stroke="#646464" stroke-width="0.75" stroke-linejoin="round" stroke-miterlimit="10" width="0.965" height="4.37"/>
	
		<rect x="13.136" y="9.349" fill="none" stroke="#646464" stroke-width="0.75" stroke-linejoin="round" stroke-miterlimit="10" width="0.967" height="4.37"/>
</g>
</svg>
