<?xml version="1.0" encoding="utf-8"?>
<!-- Generator: Adobe Illustrator 16.0.0, SVG Export Plug-In . SVG Version: 6.00 Build 0)  -->
<!DOCTYPE svg PUBLIC "-//W3C//DTD SVG 1.1//EN" "http://www.w3.org/Graphics/SVG/1.1/DTD/svg11.dtd">
<svg version="1.1" id="圖層_1" xmlns="http://www.w3.org/2000/svg" xmlns:xlink="http://www.w3.org/1999/xlink" x="0px" y="0px"
	 width="20px" height="20px" viewBox="0 0 20 20" enable-background="new 0 0 20 20" xml:space="preserve">
<g opacity="0.9">
	<g>
		<path fill="none" stroke="#646464" stroke-width="0.75" stroke-miterlimit="10" d="M11.331,12.827l0.87-0.002
			c0.073,0,0.134,0.058,0.134,0.128l-1.822,2.746c-0.049,0.071-0.079,0.128-0.134,0.128h-0.256l0,0
			c-0.047,0.001-0.087-0.046-0.134-0.127l-1.857-2.74c0-0.071,0.061-0.129,0.134-0.129l0.786-0.001"/>
		<line fill="none" stroke="#646464" stroke-width="0.75" stroke-miterlimit="10" x1="9.298" y1="13.274" x2="9.298" y2="11.242"/>
		
			<line fill="none" stroke="#646464" stroke-width="0.75" stroke-miterlimit="10" x1="11.167" y1="13.274" x2="11.167" y2="11.242"/>
	</g>
	<g>
		<path fill="none" stroke="#646464" stroke-width="0.75" stroke-miterlimit="10" d="M6.198,6.613
			C6.878,5.395,8.2,4.568,9.719,4.568c2.215,0,4.009,1.754,4.009,3.919c0,0.304-0.035,0.6-0.102,0.883"/>
		<path fill="none" stroke="#646464" stroke-width="0.75" stroke-miterlimit="10" d="M9.532,12.852H5.939
			c-1.755,0-3.178-1.392-3.178-3.108c0-1.718,1.423-3.109,3.178-3.109c0.813,0,1.557,0.3,2.119,0.791"/>
		<path fill="none" stroke="#646464" stroke-width="0.75" stroke-miterlimit="10" d="M13.839,7.913
			c0.255-0.082,0.527-0.127,0.81-0.127c1.431,0,2.59,1.134,2.59,2.533c0,1.399-1.159,2.533-2.59,2.533H11.4"/>
	</g>
</g>
</svg>
