<?xml version="1.0" encoding="utf-8"?>
<!-- Generator: Adobe Illustrator 16.0.0, SVG Export Plug-In . SVG Version: 6.00 Build 0)  -->
<!DOCTYPE svg PUBLIC "-//W3C//DTD SVG 1.1//EN" "http://www.w3.org/Graphics/SVG/1.1/DTD/svg11.dtd">
<svg version="1.1" id="圖層_1" xmlns="http://www.w3.org/2000/svg" xmlns:xlink="http://www.w3.org/1999/xlink" x="0px" y="0px"
	 width="20px" height="20px" viewBox="0 0 20 20" enable-background="new 0 0 20 20" xml:space="preserve">
<g opacity="0.9">
	<path fill="none" stroke="#646464" stroke-width="0.75" stroke-linejoin="round" stroke-miterlimit="10" d="M14.969,7.69h-3.837
		c-0.248,0-0.452-0.186-0.452-0.416V3.972"/>
	<path fill="none" stroke="#646464" stroke-width="0.75" stroke-linejoin="round" stroke-miterlimit="10" d="M14.969,13.104v3.112
		c0,0.229-0.201,0.414-0.451,0.414H4.81c-0.248,0-0.451-0.187-0.451-0.414V4.18c0-0.229,0.203-0.416,0.451-0.416h5.852l4.307,3.753
		v3.096"/>
	
		<line fill="none" stroke="#646464" stroke-width="0.75" stroke-linejoin="round" stroke-miterlimit="10" x1="6.392" y1="7.292" x2="9.326" y2="7.292"/>
	
		<line fill="none" stroke="#646464" stroke-width="0.75" stroke-linejoin="round" stroke-miterlimit="10" x1="6.392" y1="9.368" x2="13.389" y2="9.368"/>
	
		<line fill="none" stroke="#646464" stroke-width="0.75" stroke-linejoin="round" stroke-miterlimit="10" x1="6.392" y1="10.82" x2="13.389" y2="10.82"/>
	
		<line fill="none" stroke="#646464" stroke-width="0.75" stroke-linejoin="round" stroke-miterlimit="10" x1="6.392" y1="12.688" x2="11.809" y2="12.688"/>
	
		<line fill="none" stroke="#646464" stroke-width="0.75" stroke-linejoin="round" stroke-miterlimit="10" x1="6.392" y1="13.934" x2="10.229" y2="13.934"/>
	<g>
		<path fill="none" stroke="#646464" stroke-width="0.75" stroke-linejoin="round" stroke-miterlimit="10" d="M12.568,15.199
			c-0.098,0.089-0.254,0.089-0.354,0l-0.184-0.643l-0.697-0.17c-0.096-0.089-0.096-0.234,0-0.322l4.584-4.215
			c0.1-0.09,0.255-0.09,0.354,0l0.883,0.811c0.097,0.089,0.097,0.234,0,0.324L12.568,15.199z"/>
		<polyline fill="none" stroke="#646464" stroke-width="0.75" stroke-linejoin="round" stroke-miterlimit="10" points="
			11.248,14.146 10.455,16.009 12.48,15.279 		"/>
		
			<line fill="none" stroke="#646464" stroke-width="0.75" stroke-linejoin="round" stroke-miterlimit="10" x1="15.391" y1="10.336" x2="16.625" y2="11.471"/>
		
			<line fill="none" stroke="#646464" stroke-width="0.75" stroke-linejoin="round" stroke-miterlimit="10" x1="12.033" y1="14.557" x2="15.984" y2="10.924"/>
	</g>
</g>
</svg>
