<?xml version="1.0" encoding="utf-8"?>
<!-- Generator: Adobe Illustrator 16.0.0, SVG Export Plug-In . SVG Version: 6.00 Build 0)  -->
<!DOCTYPE svg PUBLIC "-//W3C//DTD SVG 1.1//EN" "http://www.w3.org/Graphics/SVG/1.1/DTD/svg11.dtd">
<svg version="1.1" id="圖層_1" xmlns="http://www.w3.org/2000/svg" xmlns:xlink="http://www.w3.org/1999/xlink" x="0px" y="0px"
	 width="20px" height="20px" viewBox="0 0 20 20" enable-background="new 0 0 20 20" xml:space="preserve">
<g opacity="0.9">
	<path fill="none" stroke="#FFFFFF" stroke-width="0.75" stroke-linejoin="round" stroke-miterlimit="10" d="M14.878,15.538h-0.569
		c0.043-0.07,0.069-0.149,0.069-0.237V9.67V8.483L6.622,6.347l-0.5,1.187l5.188,1.342c0.385,0.925,0.99,4.289-2.188,4.289
		c-4.003,0-4.504,0-4.504,0c-0.276,0-0.249,0.212-0.249,0.476v0.235c0,0.265-0.027,0.476,0.249,0.476h3.253v1.188H5.871
		c-0.276,0-0.75,1.424-0.75,1.424c0,0.262,0.225,0.475,0.501,0.475h9.506c0.276,0,0.502-0.213,0.502-0.475
		C15.63,16.962,15.154,15.538,14.878,15.538z"/>
	
		<line fill="none" stroke="#FFFFFF" stroke-width="0.75" stroke-linejoin="round" stroke-miterlimit="10" x1="7.373" y1="15.538" x2="9.374" y2="15.538"/>
	
		<line fill="none" stroke="#FFFFFF" stroke-width="0.75" stroke-linejoin="round" stroke-miterlimit="10" x1="7.373" y1="14.352" x2="8.374" y2="14.352"/>
	
		<line fill="none" stroke="#FFFFFF" stroke-width="0.75" stroke-linejoin="round" stroke-miterlimit="10" x1="13.376" y1="15.538" x2="14.628" y2="15.538"/>
	<g>
		<polyline fill="none" stroke="#FFFFFF" stroke-width="0.75" stroke-linejoin="round" stroke-miterlimit="10" points="6.916,7.707 
			6.731,8.354 7.216,8.477 7.021,9.165 7.262,9.227 6.938,10.373 7.905,10.619 8.229,9.473 8.471,9.535 8.664,8.847 9.147,8.97 
			9.306,8.417 		"/>
		<polyline fill="none" stroke="#FFFFFF" stroke-width="0.75" stroke-linejoin="round" stroke-miterlimit="10" points="9.646,7.217 
			10.253,5.074 10.736,5.197 11.125,3.823 7.742,2.959 7.353,4.335 7.837,4.458 7.252,6.521 		"/>
		
			<line fill="none" stroke="#FFFFFF" stroke-width="0.5" stroke-linejoin="round" stroke-miterlimit="10" x1="8.562" y1="4.643" x2="8.301" y2="5.56"/>
		
			<line fill="none" stroke="#FFFFFF" stroke-width="0.5" stroke-linejoin="round" stroke-miterlimit="10" x1="9.527" y1="4.889" x2="9.268" y2="5.806"/>
	</g>
</g>
</svg>
