<?xml version="1.0" encoding="utf-8"?>
<!-- Generator: Adobe Illustrator 16.0.0, SVG Export Plug-In . SVG Version: 6.00 Build 0)  -->
<!DOCTYPE svg PUBLIC "-//W3C//DTD SVG 1.1//EN" "http://www.w3.org/Graphics/SVG/1.1/DTD/svg11.dtd">
<svg version="1.1" id="圖層_1" xmlns="http://www.w3.org/2000/svg" xmlns:xlink="http://www.w3.org/1999/xlink" x="0px" y="0px"
	 width="20px" height="20px" viewBox="0 0 20 20" enable-background="new 0 0 20 20" xml:space="preserve">
<g opacity="0.9">
	<circle fill="none" stroke="#646464" stroke-width="0.75" stroke-miterlimit="10" cx="10" cy="10.198" r="6.433"/>
	<path fill="none" stroke="#646464" stroke-width="0.75" stroke-miterlimit="10" d="M10,4.802c2.981,0,5.397,2.416,5.397,5.396"/>
	<path fill="none" stroke="#646464" stroke-width="0.75" stroke-miterlimit="10" d="M10,15.594c-2.98,0-5.396-2.415-5.396-5.396"/>
	<path fill="none" stroke="#646464" stroke-width="0.75" stroke-linejoin="round" stroke-miterlimit="10" d="M10.766,13.104H6.672
		c0-1.558,1.418-1.662,1.843-1.87c0.267-0.13,0.642-0.354,0.642-0.56c0-0.114-0.047-0.182-0.082-0.202
		C8.552,10.192,8.47,9.261,8.436,9.261c-0.177,0-0.299-0.428-0.299-0.714c0-0.226,0.069-0.222,0.193-0.292
		c0-0.011-0.001-0.022-0.001-0.031c0-0.746,0.484-1.353,1.245-1.353s1.302,0.627,1.302,1.374c0,0.01,0,0.021-0.002,0.031
		c0.123,0.071,0.174,0.105,0.174,0.332c0,0.287-0.104,0.691-0.277,0.691c-0.035,0-0.168,0.884-0.667,1.179
		c-0.033,0.02-0.083,0.073-0.083,0.166c0,0.239,0.388,0.454,0.667,0.591c0.084,0.042,0.115,0.042,0.299,0.103"/>
	<polygon fill="none" stroke="#646464" stroke-width="0.75" stroke-miterlimit="10" points="13.809,14.089 13.809,13.055 
		14.818,13.055 14.818,11.814 13.791,11.814 13.791,10.788 12.553,10.788 12.553,11.814 11.525,11.814 11.525,13.055 12.535,13.055 
		12.535,14.089 	"/>
</g>
</svg>
