<?xml version="1.0" encoding="utf-8"?>
<!-- Generator: Adobe Illustrator 16.0.0, SVG Export Plug-In . SVG Version: 6.00 Build 0)  -->
<!DOCTYPE svg PUBLIC "-//W3C//DTD SVG 1.1//EN" "http://www.w3.org/Graphics/SVG/1.1/DTD/svg11.dtd">
<svg version="1.1" id="圖層_1" xmlns="http://www.w3.org/2000/svg" xmlns:xlink="http://www.w3.org/1999/xlink" x="0px" y="0px"
	 width="20px" height="20px" viewBox="0 0 20 20" enable-background="new 0 0 20 20" xml:space="preserve">
<g opacity="0.9">
	
		<path fill="none" stroke="#FFFFFF" stroke-width="0.75" stroke-linecap="round" stroke-linejoin="round" stroke-miterlimit="10" d="
		M14.879,15.339H14.31c0.043-0.07,0.069-0.149,0.069-0.237V9.471V8.284L6.623,6.148l-0.5,1.187l5.188,1.342
		c0.385,0.925,0.989,4.289-2.188,4.289c-4.003,0-4.504,0-4.504,0c-0.276,0-0.249,0.212-0.249,0.476v0.235
		c0,0.265-0.027,0.476,0.249,0.476h3.253v1.188h-2c-0.276,0-0.75,1.424-0.75,1.424c0,0.263,0.225,0.476,0.501,0.476h9.506
		c0.276,0,0.502-0.213,0.502-0.476C15.631,16.763,15.155,15.339,14.879,15.339z"/>
	
		<line fill="none" stroke="#FFFFFF" stroke-width="0.75" stroke-linecap="round" stroke-linejoin="round" stroke-miterlimit="10" x1="7.374" y1="15.339" x2="9.375" y2="15.339"/>
	
		<line fill="none" stroke="#FFFFFF" stroke-width="0.75" stroke-linecap="round" stroke-linejoin="round" stroke-miterlimit="10" x1="13.377" y1="15.339" x2="14.629" y2="15.339"/>
	<g>
		
			<polyline fill="none" stroke="#FFFFFF" stroke-width="0.75" stroke-linecap="round" stroke-linejoin="round" stroke-miterlimit="10" points="
			6.917,7.508 6.732,8.155 7.217,8.278 7.022,8.966 7.263,9.028 6.939,10.174 7.906,10.42 8.23,9.274 8.472,9.336 8.665,8.648 
			9.148,8.771 9.307,8.218 		"/>
		
			<polyline fill="none" stroke="#FFFFFF" stroke-width="0.75" stroke-linecap="round" stroke-linejoin="round" stroke-miterlimit="10" points="
			9.647,7.018 10.254,4.875 10.737,4.998 11.126,3.624 7.743,2.76 7.354,4.136 7.838,4.259 7.253,6.322 		"/>
		
			<line fill="none" stroke="#FFFFFF" stroke-width="0.5" stroke-linecap="round" stroke-linejoin="round" stroke-miterlimit="10" x1="8.693" y1="4.444" x2="8.432" y2="5.361"/>
		
			<line fill="none" stroke="#FFFFFF" stroke-width="0.5" stroke-linecap="round" stroke-linejoin="round" stroke-miterlimit="10" x1="9.437" y1="4.639" x2="9.178" y2="5.556"/>
	</g>
</g>
</svg>
