<?xml version="1.0" encoding="utf-8"?>
<!-- Generator: Adobe Illustrator 16.0.0, SVG Export Plug-In . SVG Version: 6.00 Build 0)  -->
<!DOCTYPE svg PUBLIC "-//W3C//DTD SVG 1.1//EN" "http://www.w3.org/Graphics/SVG/1.1/DTD/svg11.dtd">
<svg version="1.1" id="圖層_1" xmlns="http://www.w3.org/2000/svg" xmlns:xlink="http://www.w3.org/1999/xlink" x="0px" y="0px"
	 width="20px" height="20px" viewBox="0 0 20 20" enable-background="new 0 0 20 20" xml:space="preserve">
<g opacity="0.9">
	
		<circle fill="none" stroke="#FFFFFF" stroke-width="0.75" stroke-linecap="round" stroke-miterlimit="10" cx="9.999" cy="10" r="6.433"/>
	<path fill="none" stroke="#FFFFFF" stroke-width="0.5" stroke-linecap="round" stroke-linejoin="round" stroke-miterlimit="10" d="
		M9.999,3.774c0,0-0.207,0.208-0.415,0.415C9.377,4.396,8.962,4.396,9.17,4.604c0.207,0.208,0.207,0.415,0.207,0.415L9.17,5.226
		c0,0,0,0.208-0.417,0.415c-0.414,0.208-0.414,0-0.621,0.208C7.924,6.056,7.924,6.056,7.716,6.056c-0.207,0-0.207,0.208-0.414,0.208
		c-0.209,0,0-0.83,0-0.83l0.414-0.208l0.416-0.208h0.207c0,0,0-0.415-0.207-0.415c-0.208,0-0.208,0-0.208,0s0-0.208-0.208-0.416
		C7.509,3.981,7.509,3.981,7.509,3.981"/>
	<path fill="none" stroke="#FFFFFF" stroke-width="0.5" stroke-linecap="round" stroke-linejoin="round" stroke-miterlimit="10" d="
		M5.849,5.641l0.207,0.831L5.849,6.886c0,0-0.415,0-0.415,0.416c0,0.415-0.208,0,0,0.415c0.207,0.416,0,0.622,0,0.622v0.208v0.415
		H4.812c0,0,0,0-0.208,0c-0.209,0-0.209,0.208-0.209,0.208s0-0.208-0.206,0C3.979,9.377,3.979,9.377,3.979,9.585s0,0.208,0,0.208
		l-0.207,0.415l-0.208,0.208"/>
	<path fill="none" stroke="#FFFFFF" stroke-width="0.5" stroke-linecap="round" stroke-linejoin="round" stroke-miterlimit="10" d="
		M4.188,11.036c0.206,0.209,0.415,0.209,0.415,0.209s0.415-0.209,0.622,0c0.208,0.207,0.208,0.623,0.208,0.623v0.207
		c0,0,0.415,0.621,0.622,0.621s0.207,0,0.207,0s0.209,0.209,0.416,0.209c0.208,0,0.414,0.207,0.414,0.207s0.209,0.621,0,0.621
		c-0.206,0-0.206,0.209-0.206,0.209s0,0.829,0.415,1.036c0.414,0.209,0.83,0.415,1.037,0.623c0.208,0.207,0.414,0,0.414,0.207
		c0,0.208,0.417,0.622,1.246,0.622"/>
	<path fill="none" stroke="#FFFFFF" stroke-width="0.5" stroke-linecap="round" stroke-linejoin="round" stroke-miterlimit="10" d="
		M16.436,10.622c0,0-0.625-0.622-0.625-0.416c0,0.207-0.207,0.416-0.207,0.83c0,0.416-0.207,1.039-0.207,1.039l-0.416-0.416
		l0.209-1.037L14.566,10H14.15c0,0,0.207,0.415,0.207,0.622s0,0.83,0,0.83s-0.414,0.83-0.414,1.037s-0.209,0-0.416,0.416
		c-0.209,0.416-0.414,0.416-0.623,0.828c-0.207,0.416-0.622,0.625-0.829,1.038c-0.208,0.416-0.415,0.207-0.415,0
		c0-0.206-0.415-0.622-0.208-0.829c0.208-0.209,0-0.414,0.208-0.621c0.207-0.209,0.415-0.209,0.207-0.416
		c-0.207-0.209-0.415-0.209-0.415-0.416s0-0.83,0-0.83s-0.415-0.623-0.622-0.414c-0.209,0.207-0.415,0.414-0.415,0.414l-0.831-0.623
		L9.999,10L9.792,9.17c0,0,0.623-0.623,0.623-0.831c0-0.207,0.206-0.415,0.206-0.415c-0.206-0.83-0.206-0.83-0.206-0.83
		s-0.208-0.208,0.206,0c0.416,0.207,0.624,0.622,0.624,0.622l0.622-0.208c0,0,0,0,0-0.208c0-0.207,0.208-0.623,0.415-0.623
		c0.208,0,0.415,0,0.415,0l0.83-0.831c0,0-0.83-0.208-0.83-0.415c0-0.208,0-0.416,0.207-0.623C13.113,4.6,13.527,4.6,13.527,4.6"/>
</g>
</svg>
