<?xml version="1.0" encoding="utf-8"?>
<!-- Generator: Adobe Illustrator 16.0.0, SVG Export Plug-In . SVG Version: 6.00 Build 0)  -->
<!DOCTYPE svg PUBLIC "-//W3C//DTD SVG 1.1//EN" "http://www.w3.org/Graphics/SVG/1.1/DTD/svg11.dtd">
<svg version="1.1" id="圖層_1" xmlns="http://www.w3.org/2000/svg" xmlns:xlink="http://www.w3.org/1999/xlink" x="0px" y="0px"
	 width="20px" height="20px" viewBox="0 0 20 20" enable-background="new 0 0 20 20" xml:space="preserve">
<g opacity="0.9">
	
		<path fill="none" stroke="#FFFFFF" stroke-width="0.75" stroke-linecap="round" stroke-linejoin="round" stroke-miterlimit="10" d="
		M16.756,14.932h-0.24v-0.728c0-0.269-0.218-0.485-0.481-0.485h-0.726v-4.37h0.481c0.267,0,0.483-0.218,0.483-0.486V8.134
		c0-0.268-0.217-0.485-0.483-0.485h-0.24V7.406c0-0.268-0.217-0.486-0.481-0.486L10,3.764L4.933,6.92
		c-0.266,0-0.481,0.218-0.481,0.486v0.243H4.209c-0.267,0-0.481,0.217-0.481,0.485v0.729c0,0.268,0.216,0.486,0.481,0.486H4.69v4.37
		H3.969c-0.266,0-0.483,0.217-0.483,0.485v0.728H3.244c-0.267,0-0.482,0.219-0.482,0.486v0.729c0,0.271,0.217,0.484,0.482,0.484
		h13.512c0.268,0,0.482-0.216,0.482-0.484v-0.729C17.238,15.15,17.021,14.932,16.756,14.932z"/>
	
		<circle fill="none" stroke="#FFFFFF" stroke-width="0.75" stroke-linecap="round" stroke-linejoin="round" stroke-miterlimit="10" cx="10" cy="6.435" r="0.729"/>
	
		<line fill="none" stroke="#FFFFFF" stroke-width="0.75" stroke-linecap="round" stroke-linejoin="round" stroke-miterlimit="10" x1="4.45" y1="7.649" x2="5.657" y2="7.649"/>
	
		<line fill="none" stroke="#FFFFFF" stroke-width="0.75" stroke-linecap="round" stroke-linejoin="round" stroke-miterlimit="10" x1="15.55" y1="7.649" x2="14.343" y2="7.649"/>
	
		<line fill="none" stroke="#FFFFFF" stroke-width="0.75" stroke-linecap="round" stroke-linejoin="round" stroke-miterlimit="10" x1="3.484" y1="14.932" x2="4.209" y2="14.932"/>
	
		<line fill="none" stroke="#FFFFFF" stroke-width="0.75" stroke-linecap="round" stroke-linejoin="round" stroke-miterlimit="10" x1="16.516" y1="14.932" x2="15.79" y2="14.932"/>
	
		<line fill="none" stroke="#FFFFFF" stroke-width="0.75" stroke-linecap="round" stroke-linejoin="round" stroke-miterlimit="10" x1="5.916" y1="14.932" x2="14.083" y2="14.932"/>
	<g>
		
			<rect x="6.514" y="9.349" fill="none" stroke="#FFFFFF" stroke-width="0.75" stroke-linecap="round" stroke-linejoin="round" stroke-miterlimit="10" width="0.968" height="4.37"/>
		
			<rect x="9.519" y="9.349" fill="none" stroke="#FFFFFF" stroke-width="0.75" stroke-linecap="round" stroke-linejoin="round" stroke-miterlimit="10" width="0.965" height="4.37"/>
		
			<rect x="12.521" y="9.349" fill="none" stroke="#FFFFFF" stroke-width="0.75" stroke-linecap="round" stroke-linejoin="round" stroke-miterlimit="10" width="0.965" height="4.37"/>
	</g>
</g>
</svg>
